<?xml version="1.0" encoding="utf-8"?>
<!-- Generator: Adobe Illustrator 18.1.1, SVG Export Plug-In . SVG Version: 6.00 Build 0)  -->
<!DOCTYPE svg PUBLIC "-//W3C//DTD SVG 1.1//EN" "http://www.w3.org/Graphics/SVG/1.1/DTD/svg11.dtd">
<svg version="1.1" id="Layer_1" xmlns="http://www.w3.org/2000/svg" xmlns:xlink="http://www.w3.org/1999/xlink" x="0px" y="0px"
	 viewBox="0 0 850 500" enable-background="new 0 0 850 500" xml:space="preserve">
<rect x="315.2" y="219.5" fill="#59A645" width="179.4" height="197.7"/>
<line fill="none" stroke="#545554" stroke-width="3" stroke-miterlimit="10" x1="180" y1="219.5" x2="670" y2="219.5"/>
<line fill="none" stroke="#545554" stroke-width="3" stroke-miterlimit="10" x1="180" y1="251.2" x2="670" y2="251.2"/>
<line fill="none" stroke="#545554" stroke-width="3" stroke-miterlimit="10" x1="180" y1="318.8" x2="670" y2="318.8"/>
<line fill="none" stroke="#545554" stroke-width="3" stroke-miterlimit="10" x1="180" y1="350.5" x2="670" y2="350.5"/>
<g>
	<line fill="none" stroke="#545554" stroke-width="2.7581" stroke-miterlimit="10" x1="316" y1="418" x2="316" y2="152"/>
	<line fill="none" stroke="#545554" stroke-width="2.7581" stroke-miterlimit="10" x1="357.1" y1="418" x2="357.1" y2="152"/>
</g>
<g>
	<line fill="none" stroke="#545554" stroke-width="2.7458" stroke-miterlimit="10" x1="493" y1="418" x2="493" y2="152"/>
	<line fill="none" stroke="#545554" stroke-width="2.7458" stroke-miterlimit="10" x1="534" y1="418" x2="534" y2="152"/>
</g>
<rect x="180" y="152" fill="none" stroke="#545554" stroke-width="3" stroke-miterlimit="10" width="490" height="266"/>
<g>
	<circle fill="#59A645" cx="318.9" cy="68" r="24.5"/>
	<g>
		<path fill="#FFFFFF" d="M325.6,74.7v2.8h-13.3v-2.8h5.2V62.2h-4V60c1.1-0.2,2-0.4,2.8-0.6c0.8-0.2,1.5-0.6,2.1-0.9h2.5v16.3H325.6
			z"/>
	</g>
</g>
<line fill="none" stroke="#59A645" stroke-width="2" stroke-miterlimit="10" x1="321.6" y1="85" x2="337.4" y2="232"/>
</svg>
