<svg xmlns="http://www.w3.org/2000/svg" viewBox="0 0 512 512" width="60px" height="60px">
	<path d="M370.214,205.502l-10.831-14.441V44.308C359.384,19.876,339.507,0,315.076,0c-24.431,0-44.308,19.876-44.308,44.308    v78.769H241.23V44.308C241.23,19.876,221.353,0,196.922,0s-44.308,19.876-44.308,44.308v146.754l-10.831,14.441    c-8.435,11.247-13.082,25.185-13.082,39.244c0.001,30.777,21.375,56.642,50.054,63.57c0.397,0.096,0.796,0.188,1.195,0.277    c0.48,0.106,0.958,0.215,1.442,0.31c0.753,0.15,1.512,0.284,2.274,0.408c0.389,0.063,0.78,0.119,1.171,0.174    c0.665,0.096,1.333,0.18,2.005,0.255c0.253,0.029,0.504,0.063,0.758,0.088c0.92,0.093,1.846,0.159,2.776,0.212    c0.259,0.015,0.518,0.028,0.777,0.038c0.981,0.044,1.965,0.075,2.957,0.075h123.781c0.992,0,1.976-0.031,2.957-0.075    c0.259-0.012,0.519-0.024,0.777-0.038c0.93-0.053,1.857-0.12,2.776-0.212c0.254-0.026,0.504-0.06,0.757-0.088    c0.672-0.075,1.34-0.16,2.005-0.256c0.391-0.056,0.782-0.112,1.17-0.174c0.762-0.123,1.521-0.258,2.274-0.408    c0.483-0.096,0.962-0.204,1.441-0.31c0.4-0.089,0.798-0.18,1.195-0.277c28.679-6.928,50.053-32.792,50.053-63.57    C383.296,230.687,378.65,216.749,370.214,205.502z M241.163,218.073c-0.049,0.473-0.128,0.955-0.217,1.428    c-0.099,0.473-0.217,0.945-0.354,1.408c-0.147,0.453-0.305,0.916-0.492,1.359c-0.186,0.443-0.393,0.876-0.62,1.3    c-0.225,0.433-0.472,0.847-0.738,1.25c-0.266,0.394-0.551,0.788-0.857,1.162s-0.639,0.738-0.975,1.083    c-0.345,0.335-0.709,0.67-1.083,0.975s-0.768,0.591-1.162,0.857c-0.404,0.266-0.817,0.522-1.251,0.748    c-0.414,0.217-0.857,0.423-1.299,0.61c-0.443,0.187-0.907,0.354-1.36,0.492c-0.463,0.138-0.934,0.256-1.408,0.354    c-0.472,0.089-0.955,0.167-1.428,0.217c-0.482,0.049-0.975,0.069-1.457,0.069s-0.975-0.02-1.457-0.069    c-0.472-0.049-0.955-0.128-1.428-0.217c-0.472-0.098-0.945-0.217-1.408-0.354c-0.453-0.138-0.916-0.305-1.359-0.492    c-0.443-0.187-0.886-0.394-1.3-0.61c-0.432-0.226-0.846-0.482-1.25-0.748c-0.394-0.266-0.788-0.551-1.162-0.857    c-0.375-0.305-0.738-0.64-1.084-0.975c-0.335-0.345-0.67-0.709-0.975-1.083s-0.591-0.768-0.856-1.162    c-0.267-0.404-0.522-0.817-0.749-1.25c-0.217-0.423-0.423-0.857-0.61-1.3c-0.186-0.443-0.345-0.906-0.492-1.359    c-0.138-0.463-0.256-0.935-0.353-1.408c-0.089-0.473-0.167-0.955-0.218-1.428c-0.049-0.482-0.068-0.975-0.068-1.457    c0-0.482,0.02-0.975,0.068-1.457c0.05-0.473,0.129-0.955,0.218-1.428c0.098-0.473,0.217-0.945,0.353-1.408    c0.148-0.453,0.306-0.916,0.492-1.359c0.187-0.443,0.394-0.876,0.61-1.3c0.226-0.433,0.482-0.847,0.749-1.25    c0.266-0.394,0.551-0.788,0.856-1.162c0.306-0.374,0.64-0.738,0.975-1.083c0.346-0.335,0.709-0.67,1.084-0.975    c0.374-0.305,0.767-0.591,1.162-0.857c0.404-0.266,0.817-0.512,1.25-0.738c0.414-0.226,0.857-0.433,1.3-0.62    c0.443-0.187,0.906-0.345,1.359-0.492c0.463-0.138,0.935-0.256,1.408-0.354c0.473-0.089,0.956-0.167,1.428-0.217    c0.965-0.089,1.95-0.089,2.914,0c0.473,0.049,0.956,0.128,1.428,0.217c0.473,0.098,0.945,0.217,1.408,0.354    c0.453,0.148,0.917,0.305,1.36,0.492c0.442,0.187,0.885,0.394,1.299,0.62c0.433,0.226,0.847,0.473,1.251,0.738    c0.393,0.266,0.788,0.551,1.162,0.857s0.738,0.64,1.083,0.975c0.336,0.345,0.671,0.709,0.975,1.083    c0.306,0.374,0.592,0.768,0.857,1.162c0.267,0.404,0.513,0.817,0.738,1.25c0.226,0.423,0.433,0.857,0.62,1.3    c0.187,0.443,0.346,0.906,0.492,1.359c0.139,0.463,0.256,0.935,0.354,1.408c0.089,0.473,0.167,0.955,0.217,1.428    c0.049,0.482,0.069,0.975,0.069,1.457C241.232,217.098,241.211,217.59,241.163,218.073z M300.231,218.063    c-0.039,0.482-0.118,0.965-0.217,1.438c-0.09,0.473-0.207,0.945-0.346,1.408c-0.147,0.453-0.305,0.916-0.492,1.359    c-0.186,0.443-0.393,0.876-0.62,1.3c-0.226,0.433-0.472,0.847-0.738,1.25c-0.266,0.404-0.561,0.788-0.857,1.162    c-0.314,0.374-0.639,0.738-0.975,1.083c-0.345,0.335-0.709,0.669-1.083,0.975c-0.374,0.305-0.768,0.591-1.162,0.857    c-0.404,0.266-0.817,0.512-1.251,0.738c-0.423,0.226-0.857,0.433-1.299,0.62c-0.443,0.187-0.907,0.345-1.36,0.492    c-0.463,0.138-0.934,0.256-1.408,0.354c-0.472,0.089-0.955,0.167-1.428,0.217c-0.482,0.049-0.975,0.069-1.457,0.069    c-0.482,0-0.975-0.02-1.457-0.069c-0.472-0.049-0.955-0.128-1.428-0.217c-0.472-0.098-0.945-0.217-1.398-0.354    c-0.463-0.148-0.925-0.305-1.369-0.492c-0.443-0.187-0.876-0.394-1.3-0.62c-0.432-0.226-0.846-0.473-1.25-0.738    c-0.394-0.266-0.788-0.551-1.162-0.857c-0.375-0.305-0.738-0.64-1.084-0.975c-0.335-0.345-0.669-0.709-0.975-1.083    s-0.591-0.758-0.856-1.162c-0.267-0.404-0.513-0.817-0.749-1.25c-0.217-0.423-0.423-0.857-0.61-1.3    c-0.186-0.443-0.345-0.906-0.492-1.359c-0.138-0.463-0.256-0.935-0.353-1.408c-0.089-0.473-0.167-0.955-0.218-1.438    c-0.049-0.473-0.068-0.965-0.068-1.447c0-0.482,0.02-0.975,0.068-1.457c0.05-0.473,0.129-0.955,0.218-1.428    c0.099-0.473,0.217-0.945,0.354-1.408c0.148-0.453,0.306-0.916,0.492-1.359c0.187-0.443,0.394-0.876,0.61-1.3    c0.236-0.433,0.482-0.847,0.749-1.25c0.266-0.394,0.551-0.788,0.856-1.162c0.306-0.374,0.64-0.738,0.975-1.083    c0.346-0.335,0.709-0.67,1.084-0.975c0.374-0.305,0.767-0.591,1.162-0.857c0.404-0.266,0.817-0.512,1.25-0.738    c0.424-0.226,0.857-0.433,1.3-0.62c0.443-0.187,0.906-0.345,1.369-0.492c0.453-0.138,0.926-0.256,1.398-0.354    c0.473-0.089,0.956-0.167,1.428-0.217c0.965-0.089,1.95-0.089,2.914,0c0.473,0.049,0.956,0.128,1.428,0.217    c0.473,0.098,0.945,0.217,1.408,0.354c0.453,0.148,0.917,0.305,1.36,0.492c0.442,0.187,0.876,0.394,1.299,0.62    c0.433,0.226,0.847,0.473,1.251,0.738c0.393,0.266,0.788,0.551,1.162,0.857c0.374,0.305,0.738,0.64,1.083,0.975    c0.336,0.345,0.661,0.709,0.975,1.083c0.295,0.374,0.592,0.768,0.857,1.162c0.267,0.404,0.513,0.817,0.738,1.25    c0.226,0.423,0.433,0.857,0.62,1.3c0.187,0.443,0.346,0.906,0.492,1.359c0.139,0.463,0.256,0.935,0.346,1.408    c0.099,0.473,0.177,0.955,0.217,1.428c0.049,0.482,0.079,0.975,0.079,1.457C300.31,217.098,300.28,217.59,300.231,218.063z" fill="#FFFFFF"/>	
	<path d="M360.742,329.456c-12.882,6.543-27.443,10.236-42.852,10.236H194.11c-15.409,0-29.971-3.693-42.851-10.236    c-30.575,28.965-47.874,68.931-47.874,111.531c0,10.001,2.059,19.704,6.12,28.841C120.891,495.447,146.363,512,174.397,512h27.449    v-78.769c0-8.157,6.613-14.769,14.769-14.769c8.157,0,14.769,6.613,14.769,14.769V512h49.231v-78.769    c0-8.157,6.613-14.769,14.769-14.769c8.156,0,14.769,6.613,14.769,14.769V512h27.449c28.034,0,53.506-16.553,64.892-42.172    c4.062-9.136,6.12-18.841,6.12-28.841C408.615,398.387,391.317,358.422,360.742,329.456z" fill="#FFFFFF"/>
</svg>
