<?xml version="1.0" encoding="utf-8"?>
<!-- Generator: Adobe Illustrator 12.0.0, SVG Export Plug-In . SVG Version: 6.00 Build 51448)  -->
<!DOCTYPE svg PUBLIC "-//W3C//DTD SVG 1.1//EN" "http://www.w3.org/Graphics/SVG/1.1/DTD/svg11.dtd" [
	<!ENTITY ns_svg "http://www.w3.org/2000/svg">
	<!ENTITY ns_xlink "http://www.w3.org/1999/xlink">
]>
<svg  version="1.1" id="Layer_1" xmlns="&ns_svg;" xmlns:xlink="&ns_xlink;" width="127.559" height="88.489"
	 viewBox="0 0 127.559 88.489" overflow="visible" enable-background="new 0 0 127.559 88.489" xml:space="preserve">
<g>
	<ellipse fill="#FFFFFF" cx="63.779" cy="36.796" rx="63.779" ry="36.8"/>
	
	
	<g>
		<path fill="#00918C" d="M121.874,26.471C110.207,12.277,88.693,2.765,64.079,2.765c-24.609,0-46.122,9.513-57.791,23.706H51.9
			c7.066-8.071,20.089-13.493,34.989-13.493C101.784,12.978,114.808,18.399,121.874,26.471z"/>
		<path fill="#D58431" d="M6.2,47.126c11.673,14.187,33.185,23.706,57.795,23.706c24.604,0,46.119-9.52,57.796-23.706H76.173
			C69.11,55.198,56.084,60.612,41.19,60.612C26.289,60.612,13.264,55.198,6.2,47.126z"/>
		<path fill="#00918C" d="M28.111,32.937H23.34c-1.207,0-2.402,0.419-2.93,1.195c-0.527,0.773-3.656,5.344-3.656,5.344
			s-3.307-4.756-3.716-5.344c-0.407-0.588-1.874-1.195-3.575-1.195c-1.698,0-3.783,0-3.783,0s6.304,7.514,6.638,7.91
			s1.974,1.186,4.276,1.186s3.816-0.412,4.454-1.186c0.633-0.766,4.116-5,4.116-5s0,4.435,0,5c0,0.566,0.975,1.186,2.947,1.186
			c1.969,0,3.29-0.602,3.29-1.186v-6.715C31.401,33.517,30.249,32.937,28.111,32.937z M113.459,39.778
			c-1.208,0-1.906-0.411-1.906-1.541c0-1.125,0-4.105,0-4.105c0-0.625-1.178-1.195-3.134-1.195c-1.951,0-3.106,0.091-3.106,1.195
			s0,5.828,0,5.828s-9.224,0-10.273,0c-1.055,0-1.504-0.133-1.504-0.967c0-0.836,0-0.836,0-0.836s6.539,0,7.669,0
			c1.125,0,2.069,0.053,2.069-0.893s0-0.945,0-0.945s-7.185,0-8.234,0c-1.055,0-1.504-0.141-1.504-0.784c0-0.647,0-0.647,0-0.647
			s7.212,0,8.267,0s2.22-0.344,2.22-0.756c0-0.414,0-1.195,0-1.195s-10.667,0-23.63,0c-0.892,0-0.892-0.9-0.892-0.9v-0.199
			c0-0.553-1.101-1.183-2.911-1.183c-1.797,0-3.334,0.454-3.334,1.183v0.241l-0.02-0.042c0,0,0,0.9-0.895,0.9h-7.478
			c-0.89,0-0.89-0.9-0.89-0.9l-0.027,0.042v-0.241c0-0.553-1.1-1.183-2.904-1.183c-1.804,0-3.341,0.454-3.341,1.183v0.199
			c0,0,0,0.9-0.889,0.9H34.738c-1.129,0-1.72,0.39-1.72,1.195c0,0.59,0,6.715,0,6.715c0,0.584,0.741,1.186,2.546,1.186h12.323
			c0.951,0,2.164-0.584,2.164-1.211c0-0.621,0-0.861,0-0.861s-8.492,0-9.349,0s-1.444-0.199-1.444-1.002c0-0.801,0-0.801,0-0.801
			s6.73,0,7.629,0c0.907,0,2.109,0.018,2.109-0.91s0-0.928,0-0.928s-7.39,0-8.246,0s-1.492-0.061-1.492-0.598
			c0-0.532,0-0.532,0-0.532s13.973,0,15.55,0c1.579,0,2.893,0.492,2.893,2.075v3.582c0,0.553,1.472,1.186,3.2,1.186
			c1.729,0,3.045-0.608,3.045-1.186v-3.582c0-0.903,0.791-2.075,2.521-2.075h4.285c1.424,0,2.502,0.647,2.502,1.998v3.659
			c0,0.553,1.105,1.186,2.912,1.186c1.804,0,3.333-0.457,3.333-1.186v-3.659c0-0.901,1.173-1.998,2.228-1.998h3.234
			c1.125,0,2.332,0.726,2.332,2.075v3.582c0,0.553,0.521,1.186,1.877,1.186h29.624c1.356,0,2.458-0.531,2.458-1.186
			c0-0.646,0-1.068,0-1.068S114.659,39.778,113.459,39.778z"/>
	</g>
</g>
</svg>
