<?xml version="1.0" encoding="utf-8"?>
<!-- Generator: Adobe Illustrator 17.0.0, SVG Export Plug-In . SVG Version: 6.00 Build 0)  -->
<!DOCTYPE svg PUBLIC "-//W3C//DTD SVG 1.1//EN" "http://www.w3.org/Graphics/SVG/1.1/DTD/svg11.dtd">
<svg version="1.1" id="Layer_1" xmlns="http://www.w3.org/2000/svg" xmlns:xlink="http://www.w3.org/1999/xlink" x="0px" y="0px"
	 width="82.733px" height="47.247px" viewBox="0 0 82.733 47.247" style="enable-background:new 0 0 82.733 47.247;"
	 xml:space="preserve">
<g>
	<path style="fill:#00918D;" d="M77.289,46.076l-0.579,0.585l0.579,0.586l0.592-0.586L77.289,46.076z M22.868,42.024l-0.907,0.082
		v3.678l0.907-0.061V42.024z M2.925,45.784l0.925-0.061v-4.995l-0.925,0.113v1.903H0.925v-2.017L0,40.842v4.942l0.925-0.061v-2.07
		h1.999V45.784z M7.342,40.645H6.93c-0.036,0.197-0.137,0.293-0.299,0.293c-0.065,0-0.208-0.042-0.406-0.131
		c-0.209-0.085-0.37-0.139-0.489-0.139c-0.203,0-0.377,0.097-0.513,0.282c-0.126,0.16-0.197,0.356-0.221,0.602h0.406
		c0.042-0.197,0.137-0.298,0.28-0.298c0.078,0,0.233,0.041,0.453,0.119c0.221,0.097,0.388,0.131,0.49,0.131
		C6.997,41.504,7.229,41.212,7.342,40.645 M6.685,44.561c0,0.16-0.065,0.286-0.197,0.383c-0.143,0.095-0.293,0.143-0.465,0.143
		c-0.173,0-0.329-0.043-0.454-0.137c-0.149-0.103-0.22-0.229-0.22-0.389c0-0.149,0.071-0.281,0.22-0.382
		c0.126-0.096,0.281-0.138,0.454-0.138c0.173,0,0.322,0.042,0.465,0.144C6.62,44.279,6.685,44.411,6.685,44.561 M6.721,45.809
		l0.812-0.085v-2.709c0-0.346-0.142-0.603-0.435-0.787c-0.251-0.156-0.549-0.232-0.919-0.232c-0.34,0-0.687,0.029-1.044,0.094
		l-0.246,0.872c0.359-0.144,0.705-0.216,1.022-0.216c0.519,0,0.775,0.197,0.775,0.586c0,0.007-0.006,0.089-0.023,0.238
		c-0.311-0.16-0.645-0.231-0.997-0.231c-0.334,0-0.621,0.118-0.859,0.357c-0.239,0.245-0.365,0.536-0.365,0.865
		c0,0.399,0.131,0.723,0.4,0.954c0.251,0.209,0.574,0.322,0.973,0.322c0.34,0,0.639-0.113,0.907-0.34V45.809z M9.444,46.978
		l2.16-4.798l-0.883-0.185L9.76,44.31l-1.152-2.315L7.718,42.18l1.57,3.104l-0.74,1.563L9.444,46.978z M16.105,45.784l0.902-0.061
		V43.24c0-0.375-0.114-0.679-0.346-0.906c-0.221-0.228-0.519-0.339-0.902-0.339c-0.263,0-0.465,0.034-0.626,0.106
		c-0.179,0.079-0.34,0.216-0.484,0.412h-0.011v-0.488l-0.854,0.082v3.678l0.902-0.061v-2.053c0-0.238,0.07-0.452,0.209-0.627
		c0.148-0.172,0.352-0.256,0.626-0.256c0.197,0,0.341,0.064,0.443,0.202c0.095,0.125,0.142,0.299,0.142,0.502V45.784z
		 M19.961,41.564l1.057-1.046h-1.104l-0.668,1.046H19.961z M20.642,43.909c0,0.311-0.12,0.574-0.346,0.788
		c-0.232,0.216-0.502,0.316-0.812,0.316c-0.304,0-0.579-0.101-0.805-0.316c-0.233-0.214-0.353-0.478-0.353-0.788
		c0-0.296,0.12-0.562,0.353-0.77c0.226-0.221,0.501-0.328,0.805-0.328c0.31,0,0.58,0.107,0.812,0.328
		C20.522,43.348,20.642,43.613,20.642,43.909 M20.886,45.283c0.406-0.376,0.602-0.831,0.602-1.374c0-0.531-0.197-0.99-0.602-1.355
		c-0.394-0.374-0.859-0.559-1.403-0.559c-0.538,0-1.009,0.185-1.408,0.559c-0.395,0.365-0.597,0.824-0.597,1.355
		c0,0.543,0.202,0.998,0.597,1.374c0.399,0.37,0.871,0.554,1.408,0.554C20.027,45.837,20.492,45.653,20.886,45.283 M22.438,41.743
		l0.608-0.604l-0.608-0.614l-0.614,0.614L22.438,41.743z M26.617,44.441v-1.546h0.823v-0.795h-0.823v-1.025l-0.907,0.404v0.621
		h-0.358l-0.197,0.795h0.556v1.731c0,0.387,0.113,0.692,0.364,0.9c0.245,0.209,0.56,0.31,0.955,0.31c0.162,0,0.287-0.01,0.358-0.028
		l0.221-0.795h-0.317C26.843,45.014,26.617,44.822,26.617,44.441 M30.221,45.784l0.902-0.061V43.24c0-0.375-0.108-0.679-0.335-0.906
		c-0.227-0.228-0.531-0.339-0.908-0.339c-0.484,0-0.836,0.148-1.062,0.452h-0.012v-1.719l-0.908,0.113v4.942l0.908-0.061v-2.053
		c0-0.238,0.065-0.452,0.208-0.627c0.144-0.172,0.352-0.256,0.627-0.256c0.19,0,0.34,0.064,0.436,0.202
		c0.095,0.125,0.142,0.299,0.142,0.502V45.784z M32.521,44.005c-0.007-0.054-0.013-0.136-0.013-0.239
		c0.024-0.279,0.144-0.518,0.353-0.722c0.203-0.203,0.448-0.299,0.729-0.299c0.268,0,0.483,0.078,0.638,0.239L32.521,44.005z
		 M32.884,44.65l2.477-1.541c-0.155-0.333-0.388-0.602-0.699-0.812c-0.309-0.202-0.65-0.303-1.02-0.303
		c-0.549,0-1.009,0.185-1.415,0.559c-0.394,0.365-0.602,0.824-0.602,1.355c0,0.543,0.208,0.998,0.602,1.374
		c0.406,0.364,0.866,0.554,1.415,0.554c0.556,0,1.057-0.16,1.517-0.483l-0.382-0.769c-0.436,0.285-0.83,0.429-1.182,0.429
		C33.236,45.014,32.998,44.896,32.884,44.65 M38.77,43.909c0,0.311-0.119,0.574-0.339,0.788c-0.24,0.216-0.508,0.316-0.818,0.316
		c-0.31,0-0.579-0.101-0.812-0.316c-0.226-0.214-0.341-0.478-0.341-0.788c0-0.296,0.114-0.562,0.341-0.77
		c0.233-0.221,0.502-0.328,0.812-0.328c0.31,0,0.579,0.107,0.818,0.328C38.651,43.348,38.77,43.613,38.77,43.909 M39.021,45.283
		c0.399-0.376,0.597-0.831,0.597-1.374c0-0.531-0.198-0.99-0.597-1.355c-0.394-0.374-0.866-0.559-1.409-0.559
		c-0.538,0-1.003,0.185-1.409,0.559c-0.388,0.365-0.59,0.824-0.59,1.355c0,0.543,0.203,0.998,0.59,1.374
		c0.406,0.37,0.872,0.554,1.409,0.554C38.155,45.837,38.627,45.653,39.021,45.283 M44.739,43.086l0.471-0.674
		c-0.43-0.281-0.877-0.417-1.325-0.417c-0.537,0-1.003,0.178-1.391,0.53c-0.4,0.37-0.603,0.822-0.603,1.36
		c0,0.579,0.208,1.058,0.632,1.434c0.382,0.346,0.824,0.518,1.332,0.518c0.596,0,1.05-0.154,1.354-0.453l-0.501-0.656
		c-0.281,0.19-0.566,0.286-0.871,0.286c-0.25,0-0.483-0.101-0.692-0.31c-0.233-0.227-0.353-0.49-0.353-0.795
		c0-0.32,0.114-0.578,0.341-0.788c0.215-0.208,0.501-0.31,0.841-0.31C44.184,42.812,44.441,42.907,44.739,43.086 M47.144,41.564
		l1.063-1.046h-1.104l-0.675,1.046H47.144z M47.67,44.561c0,0.16-0.066,0.286-0.203,0.383c-0.138,0.095-0.293,0.143-0.46,0.143
		c-0.174,0-0.329-0.043-0.455-0.137c-0.143-0.103-0.22-0.229-0.22-0.389c0-0.149,0.077-0.281,0.22-0.382
		c0.126-0.096,0.281-0.138,0.455-0.138c0.166,0,0.321,0.042,0.46,0.144C47.604,44.279,47.67,44.411,47.67,44.561 M47.706,45.809
		l0.818-0.085v-2.709c0-0.346-0.15-0.603-0.437-0.787c-0.25-0.156-0.561-0.232-0.925-0.232c-0.34,0-0.687,0.029-1.038,0.094
		l-0.251,0.872c0.364-0.144,0.705-0.216,1.027-0.216c0.513,0,0.77,0.197,0.77,0.586c0,0.007-0.006,0.089-0.018,0.238
		c-0.323-0.16-0.651-0.231-0.997-0.231c-0.341,0-0.627,0.118-0.865,0.357c-0.24,0.245-0.358,0.536-0.358,0.865
		c0,0.399,0.131,0.723,0.406,0.954c0.238,0.209,0.555,0.322,0.961,0.322c0.341,0,0.639-0.113,0.908-0.34V45.809z M51.866,43.086
		l0.478-0.674c-0.436-0.281-0.884-0.417-1.332-0.417c-0.537,0-1.002,0.178-1.391,0.53c-0.399,0.37-0.597,0.822-0.597,1.36
		c0,0.579,0.209,1.058,0.622,1.434c0.388,0.346,0.835,0.518,1.331,0.518c0.608,0,1.057-0.154,1.362-0.453l-0.502-0.656
		c-0.281,0.19-0.567,0.286-0.865,0.286c-0.257,0-0.484-0.101-0.699-0.31c-0.232-0.227-0.346-0.49-0.346-0.795
		c0-0.32,0.108-0.578,0.334-0.788c0.221-0.208,0.508-0.31,0.842-0.31C51.312,42.812,51.568,42.907,51.866,43.086 M55.107,45.784
		l0.908-0.061V43.24c0-0.375-0.119-0.679-0.346-0.906c-0.227-0.228-0.531-0.339-0.902-0.339c-0.477,0-0.841,0.148-1.062,0.452
		h-0.012v-1.719l-0.908,0.113v4.942l0.908-0.061v-2.053c0-0.238,0.071-0.452,0.209-0.627c0.137-0.172,0.346-0.256,0.62-0.256
		c0.197,0,0.341,0.064,0.437,0.202c0.101,0.125,0.148,0.299,0.148,0.502V45.784z M61.225,43.086l0.478-0.674
		c-0.435-0.281-0.877-0.417-1.331-0.417c-0.538,0-1.003,0.178-1.397,0.53c-0.393,0.37-0.597,0.822-0.597,1.36
		c0,0.579,0.215,1.058,0.634,1.434c0.381,0.346,0.829,0.518,1.331,0.518c0.597,0,1.05-0.154,1.355-0.453l-0.501-0.656
		c-0.281,0.19-0.574,0.286-0.872,0.286c-0.251,0-0.478-0.101-0.698-0.31c-0.228-0.227-0.335-0.49-0.335-0.795
		c0-0.32,0.107-0.578,0.328-0.788c0.222-0.208,0.496-0.31,0.836-0.31C60.666,42.812,60.927,42.907,61.225,43.086 M64.736,40.519
		c0-0.202-0.084-0.375-0.257-0.508c-0.167-0.135-0.358-0.201-0.603-0.201c-0.382,0-0.692,0.209-0.919,0.634l0.501,0.22
		c0.096-0.168,0.167-0.263,0.227-0.306c0.06-0.041,0.132-0.064,0.228-0.064c0.16,0,0.244,0.064,0.244,0.202
		c0,0.089-0.09,0.187-0.257,0.282c-0.173,0.101-0.263,0.213-0.263,0.368v0.406l0.556-0.112v-0.161c0-0.055,0.065-0.119,0.202-0.216
		v0.006C64.622,40.919,64.736,40.733,64.736,40.519 M64.509,45.784l0.859-0.061v-3.729l-0.902,0.111v2.047
		c0,0.251-0.066,0.455-0.197,0.61c-0.149,0.186-0.37,0.279-0.645,0.279c-0.191,0-0.334-0.065-0.429-0.202
		c-0.102-0.126-0.155-0.293-0.155-0.494v-2.352l-0.896,0.111v2.483c0,0.382,0.115,0.687,0.34,0.907
		c0.221,0.226,0.526,0.34,0.908,0.34c0.257,0,0.472-0.04,0.639-0.113c0.167-0.076,0.322-0.209,0.472-0.41h0.006V45.784z
		 M68.12,44.561c0,0.16-0.06,0.286-0.197,0.383c-0.143,0.095-0.297,0.143-0.465,0.143c-0.173,0-0.328-0.043-0.454-0.137
		c-0.143-0.103-0.215-0.229-0.215-0.389c0-0.149,0.072-0.281,0.215-0.382c0.126-0.096,0.281-0.138,0.454-0.138
		c0.168,0,0.322,0.042,0.465,0.144C68.061,44.279,68.12,44.411,68.12,44.561 M68.156,45.809l0.817-0.085v-2.709
		c0-0.346-0.143-0.603-0.436-0.787c-0.245-0.156-0.555-0.232-0.918-0.232c-0.341,0-0.693,0.029-1.046,0.094l-0.251,0.872
		c0.365-0.144,0.71-0.216,1.027-0.216c0.514,0,0.77,0.197,0.77,0.586c0,0.007-0.006,0.089-0.018,0.238
		c-0.316-0.16-0.65-0.231-0.996-0.231c-0.336,0-0.628,0.118-0.866,0.357c-0.239,0.245-0.358,0.536-0.358,0.865
		c0,0.399,0.131,0.723,0.4,0.954c0.25,0.209,0.573,0.322,0.972,0.322c0.335,0,0.639-0.113,0.902-0.34V45.809z M74.549,43.891
		c0,0.3-0.095,0.551-0.293,0.771c-0.203,0.221-0.424,0.335-0.68,0.335c-0.299,0-0.55-0.114-0.759-0.328
		c-0.207-0.217-0.31-0.479-0.31-0.778c0-0.296,0.103-0.553,0.31-0.775c0.209-0.22,0.46-0.323,0.759-0.323
		c0.256,0,0.478,0.11,0.68,0.329C74.454,43.344,74.549,43.6,74.549,43.891 M74.812,45.259c0.395-0.37,0.591-0.823,0.591-1.368
		c0-0.537-0.179-0.988-0.549-1.359c-0.365-0.377-0.8-0.556-1.307-0.556c-0.401,0-0.759,0.131-1.04,0.412V40.71L71.6,40.817v3.021
		c0,0.572,0.186,1.05,0.55,1.433c0.352,0.356,0.763,0.543,1.259,0.543C73.952,45.814,74.411,45.628,74.812,45.259 M77.963,44.544
		c0,0.153-0.072,0.278-0.21,0.374c-0.131,0.096-0.292,0.15-0.465,0.15c-0.168,0-0.316-0.055-0.453-0.142
		c-0.144-0.104-0.215-0.229-0.215-0.383c0-0.158,0.072-0.283,0.215-0.385c0.137-0.094,0.286-0.135,0.453-0.135
		c0.173,0,0.334,0.041,0.465,0.143C77.891,44.261,77.963,44.386,77.963,44.544 M77.994,45.784l0.812-0.09V42.99
		c0-0.345-0.138-0.603-0.43-0.788c-0.251-0.156-0.561-0.226-0.925-0.226c-0.34,0-0.692,0.03-1.038,0.096l-0.25,0.865
		c0.358-0.145,0.704-0.215,1.021-0.215c0.519,0,0.782,0.191,0.782,0.586c0,0-0.012,0.082-0.03,0.238
		c-0.31-0.162-0.645-0.238-0.996-0.238c-0.335,0-0.621,0.125-0.86,0.369c-0.239,0.239-0.364,0.531-0.364,0.867
		c0,0.393,0.137,0.709,0.399,0.941c0.245,0.217,0.573,0.329,0.973,0.329c0.34,0,0.639-0.12,0.908-0.341V45.784z M82.733,45.694
		v-2.476c0-0.383-0.113-0.683-0.347-0.915c-0.221-0.215-0.525-0.328-0.901-0.328c-0.263,0-0.466,0.03-0.628,0.101
		c-0.179,0.077-0.34,0.217-0.482,0.418h-0.019v-0.494l-0.854,0.088v3.672l0.908-0.059v-2.049c0-0.251,0.071-0.459,0.209-0.626
		c0.15-0.175,0.352-0.269,0.627-0.269c0.191,0,0.34,0.071,0.43,0.203c0.107,0.137,0.149,0.304,0.149,0.514v2.286L82.733,45.694z"/>
	<path style="fill:#FFFFFF;" d="M71.344,17.795c0,9.406-13.425,17.794-29.978,17.794c-16.559,0-29.977-8.482-29.977-17.794
		C11.389,8.459,24.808,0,41.366,0C57.92,0,71.344,8.471,71.344,17.795"/>
	<path style="fill:#00918D;" d="M68.735,12.62C63.853,5.707,53.209,1.063,41.152,1.063c-11.843,0-22.402,5.002-27.082,11.557h21.113
		c3.469-3.936,8.799-6.555,17.149-6.572C63.381,6.018,68.735,12.62,68.735,12.62"/>
	<path style="fill:#D4822F;" d="M13.95,22.976c4.883,6.905,15.646,11.55,27.703,11.55c11.603,0,22.414-4.717,27.082-11.55H47.616
		c-3.457,3.927-8.792,6.566-17.137,6.571C19.28,29.548,13.95,22.976,13.95,22.976"/>
	<path style="fill:#00918D;" d="M27.052,15.587c0,0-3.838,0-4.632,0c-0.812,0-1.194,0.106-1.505,0.602
		c-0.125,0.204-0.901,1.367-1.384,2.096c-0.113,0.173-0.228,0.382-0.389,0.382c-0.167,0-0.28-0.209-0.394-0.382
		c-0.484-0.729-1.254-1.892-1.379-2.096c-0.316-0.495-0.901-0.602-1.713-0.602h-2.101c0,0,3.003,3.784,3.17,3.981
		c0.369,0.422,0.937,0.619,2.035,0.619h0.746c1.099,0,1.66-0.197,2.036-0.619c0.113-0.138,1.373-1.742,2.274-2.873
		c0.239-0.25,0.34-0.285,0.633-0.285c0.453,0,0.405,0.4,0.405,0.4v2.703c0,0.317,0.298,0.651,0.668,0.651h1.534
		c0.513,0,0.77-0.334,0.77-0.651v-3.252C27.828,15.943,27.62,15.587,27.052,15.587 M69.093,19.03h-4.089
		c-0.572,0-0.913-0.21-0.913-0.775c0-0.394,0.006-2.071,0.006-2.071c0-0.365-0.299-0.669-0.734-0.669h-1.397
		c-0.71,0-0.848,0.418-0.848,0.674v2.938h-4.901c-0.502,0-0.722-0.078-0.722-0.489c0-0.424,0.012-0.418,0.012-0.418h3.66
		c0.537,0,0.985-0.096,0.985-0.572v-0.354h-3.928c-0.5,0-0.728-0.066-0.728-0.388V16.57h4.256c0.376,0,0.752-0.168,0.752-0.602
		v-0.376H49.682c-0.657,0-0.65-0.455-0.65-0.455c0-0.316-0.197-0.638-0.813-0.638h-1.354c-0.621,0-0.818,0.321-0.818,0.638
		c0,0-0.006,0.455-0.549,0.455H43.08c-0.543,0-0.537-0.455-0.537-0.455c0-0.316-0.203-0.638-0.818-0.638H40.37
		c-0.615,0-0.817,0.321-0.817,0.638c0,0-0.012,0.455-0.591,0.455h-9.425c-0.537,0-0.818,0.303-0.818,0.709v3.157
		c0,0.3,0.126,0.699,0.835,0.699h6.262c0.562,0,1.027-0.202,1.027-0.703v-0.329h-4.453c-0.418,0-0.698-0.137-0.698-0.55v-0.352
		h3.766c0.437,0,0.884-0.096,0.884-0.567V17.3h-3.934c-0.406,0-0.716-0.029-0.716-0.293V16.57h6.489
		c0.698,0,1.366,0.525,1.366,1.267v1.641c0,0.209,0.161,0.675,0.829,0.675h1.295c0.555,0,0.848-0.341,0.866-0.675v-1.641
		c0-0.454,0.376-1.117,1.2-1.117h1.128c0.681,0,1.188,0.436,1.188,1.111v1.646c0,0.372,0.34,0.675,0.781,0.675h1.332
		c0.71,0,0.866-0.423,0.866-0.675v-1.641c0-0.454,0.299-1.117,1.229-1.117h1.141c0.525,0,1.121,0.431,1.121,1.106v1.651
		c0,0.328,0.251,0.681,0.896,0.681h14.504c0.645,0,1.17-0.281,1.17-0.781C69.093,19.048,69.093,19.03,69.093,19.03"/>
</g>
</svg>
