<?xml version="1.0" standalone="no"?>
<!DOCTYPE svg PUBLIC "-//W3C//DTD SVG 1.1//EN" "http://www.w3.org/Graphics/SVG/1.1/DTD/svg11.dtd" >
<svg xmlns="http://www.w3.org/2000/svg">
<metadata>
<json>
<![CDATA[
{
	"fontFamily": "IcoMoon-Free",
	"majorVersion": 1,
	"minorVersion": 0,
	"fontURL": "https://icomoon.io",
	"copyright": "Copyright © 2014 IcoMoon.io. All Rights Reserved.",
	"description": "Designed by Keyamoon (http://keyamoon.com).\nFont generated by IcoMoon.",
	"designerURL": "",
	"license": "GPL (http://www.gnu.org/licenses/gpl.html) or CC BY 4.0 (http://creativecommons.org/licenses/by/4.0/)",
	"licenseURL": "",
	"version": "Version 1.0",
	"fontId": "IcoMoon-Free",
	"psName": "IcoMoon-Free",
	"subFamily": "Regular",
	"fullName": "IcoMoon-Free"
}
]]>
</json>
</metadata>
<defs>
<font id="IcoMoon-Free" horiz-adv-x="2048">
<font-face units-per-em="2048" ascent="1920" descent="-128" />
<missing-glyph horiz-adv-x="2048" />
<glyph unicode="&#x20;" horiz-adv-x="1024" d="" />
<glyph unicode="&#x21;" glyph-name="uni21" horiz-adv-x="384" d="M192 256c-35.344 0-64 28.652-64 64v128c0 35.348 28.656 64 64 64 35.348 0 64-28.652 64-64v-128c0-35.348-28.652-64-64-64zM192 704c-35.344 0-64 28.652-64 64v832c0 35.344 28.656 64 64 64 35.348 0 64-28.656 64-64v-832c0-35.348-28.652-64-64-64z" />
<glyph unicode="&#x22;" glyph-name="uni22" horiz-adv-x="640" d="M192 1280c-35.344 0-64 28.652-64 64v384c0 35.348 28.656 64 64 64 35.348 0 64-28.652 64-64v-384c0-35.348-28.652-64-64-64zM448 1280c-35.344 0-64 28.652-64 64v384c0 35.348 28.656 64 64 64 35.348 0 64-28.652 64-64v-384c0-35.348-28.652-64-64-64z" />
<glyph unicode="&#x23;" glyph-name="uni23" horiz-adv-x="1664" d="M1472 1280h-254.732l61.488 307.448c6.928 34.66-15.548 68.376-50.208 75.308-34.64 6.916-68.376-15.544-75.308-50.208l-66.508-332.548h-381.46l61.488 307.448c6.928 34.66-15.548 68.376-50.208 75.308-34.644 6.916-68.376-15.544-75.308-50.208l-66.512-332.548h-254.732c-35.348 0-64-28.656-64-64s28.652-64 64-64h229.132l-76.8-384h-280.332c-35.344 0-64-28.652-64-64s28.656-64 64-64h254.732l-61.488-307.448c-6.928-34.66 15.548-68.376 50.208-75.308 4.24-0.848 8.456-1.252 12.62-1.252 29.88 0 56.6 21.040 62.688 51.46l66.508 332.548h381.46l-61.488-307.448c-6.928-34.66 15.548-68.376 50.208-75.308 4.24-0.848 8.456-1.252 12.62-1.252 29.88 0 56.6 21.040 62.688 51.46l66.512 332.548h254.732c35.348 0 64 28.652 64 64s-28.652 64-64 64h-229.132l76.8 384h280.332c35.348 0 64 28.656 64 64s-28.652 64-64 64zM984.332 768h-381.464l76.8 384h381.464l-76.8-384z" />
<glyph unicode="&#x24;" glyph-name="uni24" horiz-adv-x="1408" d="M1084.624 905.244c-89.528 44.764-203.052 75.936-316.62 104.676v524.212c123.472-7.164 221.656-33.776 285.604-56.648 81.264-29.060 126.632-58.564 126.896-58.736 29.408-19.604 69.14-11.656 88.752 17.752s11.66 69.144-17.752 88.752c-7.944 5.296-186.256 121.9-483.504 137.104v65.644c0 35.344-28.652 64-64 64s-64-28.656-64-64v-65.388c-181.416-7.928-316.66-50.46-402.52-126.78-72.644-64.572-109.48-150.648-109.48-255.832 0-111.18 65.736-200.42 195.38-265.244 89.528-44.764 203.052-75.936 316.62-104.676v-524.208c-123.472 7.16-221.652 33.772-285.604 56.644-80.568 28.812-125.848 58.056-127.060 58.844-29.392 19.464-69.016 11.5-88.588-17.86-19.604-29.412-11.66-69.144 17.752-88.752 7.94-5.296 186.252-121.904 483.5-137.108v-65.64c0-35.348 28.652-64 64-64s64 28.652 64 64v65.388c181.416 7.928 316.66 50.46 402.52 126.776 72.644 64.576 109.48 150.652 109.48 255.836 0 111.18-65.732 200.42-195.376 265.244zM380.624 1129.244c-58.024 29.008-124.624 72.364-124.624 150.756 0 67.988 21.756 120.38 66.52 160.168 62.82 55.84 169.464 87.5 317.48 94.392v-492.344c-95.96 24.804-189.036 51.856-259.376 87.028zM1085.48 479.836c-62.82-55.844-169.46-87.504-317.48-94.392v492.344c95.96-24.808 189.036-51.864 259.38-87.032 58.020-29.008 124.62-72.36 124.62-150.756 0-67.988-21.756-120.38-66.52-160.164z" />
<glyph unicode="&#x25;" glyph-name="uni25" horiz-adv-x="1536" d="M384 1024c-113.1 0-186.64 35.832-224.828 109.54-31.172 60.176-31.172 133.176-31.172 210.46s0 150.284 31.172 210.46c38.188 73.708 111.728 109.54 224.828 109.54s186.64-35.832 224.828-109.54c31.172-60.176 31.172-133.176 31.172-210.46s0-150.284-31.172-210.46c-38.188-73.708-111.728-109.54-224.828-109.54zM384 1536c-122.924 0-128-39.808-128-192s5.076-192 128-192 128 39.808 128 192-5.072 192-128 192zM1152 256c-113.096 0-186.64 35.832-224.828 109.544-31.172 60.172-31.172 133.172-31.172 210.456s0 150.284 31.172 210.456c38.188 73.712 111.732 109.544 224.828 109.544s186.64-35.832 224.828-109.544c31.172-60.172 31.172-133.172 31.172-210.456s0-150.284-31.172-210.456c-38.188-73.712-111.728-109.544-224.828-109.544zM1152 768c-122.924 0-128-39.808-128-192s5.076-192 128-192 128 39.808 128 192-5.072 192-128 192zM319.944 255.996c-12.672 0-25.472 3.752-36.644 11.576-28.956 20.268-36 60.176-15.732 89.132l896 1280c20.272 28.956 60.184 35.996 89.132 15.732 28.956-20.272 35.996-60.176 15.728-89.132l-896-1280c-12.448-17.792-32.304-27.308-52.484-27.308z" />
<glyph unicode="&#x26;" glyph-name="uni26" horiz-adv-x="1280" d="M1088 896h-384c-35.348 0-64-28.652-64-64s28.652-64 64-64h192v-64c0-127.336-16.796-200.864-56.164-245.856-44.26-50.584-128.096-74.144-263.836-74.144s-219.576 23.56-263.836 74.144c-39.368 44.992-56.164 118.52-56.164 245.856s16.796 200.864 56.164 245.856c44.264 50.584 128.1 74.144 263.836 74.144 35.344 0 64 28.656 64 64s-28.656 64-64 64c-80.156 0-129.328 11.836-154.744 37.256-25.416 25.416-37.256 74.588-37.256 154.744s11.836 129.328 37.256 154.744c25.416 25.42 74.588 37.256 154.744 37.256s129.328-11.836 154.748-37.256c25.412-25.416 37.252-74.588 37.252-154.744 0-35.344 28.652-64 64-64s64 28.656 64 64c0 117.92-23.052 193.564-74.748 245.256-51.688 51.692-127.328 74.744-245.252 74.744s-193.56-23.052-245.256-74.744c-51.692-51.692-74.744-127.336-74.744-245.256 0-109.976 20.064-183.168 64.696-234.468-42.484-18.684-77.116-43.684-104.86-75.388-77.4-88.456-87.836-216.528-87.836-330.144s10.436-241.688 87.836-330.144c70.356-80.408 184.8-117.856 360.164-117.856s289.808 37.448 360.164 117.856c77.404 88.456 87.836 216.528 87.836 330.144v64h64c35.348 0 64 28.652 64 64s-28.652 64-64 64z" />
<glyph unicode="&#x27;" glyph-name="uni27" horiz-adv-x="384" d="M192 1280c-35.344 0-64 28.652-64 64v384c0 35.348 28.656 64 64 64 35.348 0 64-28.652 64-64v-384c0-35.348-28.652-64-64-64z" />
<glyph unicode="&#x28;" glyph-name="uni28" horiz-adv-x="768" d="M575.976-128c-14.956 0-29.98 5.212-42.12 15.836-131.816 115.34-234.624 267.124-305.572 451.14-65.604 170.168-100.284 362.78-100.284 557.024 0 194.24 34.676 386.856 100.284 557.024 70.948 184.016 173.756 335.804 305.572 451.14 26.604 23.276 67.040 20.584 90.308-6.020 23.276-26.6 20.584-67.032-6.020-90.308-226.764-198.42-362.144-539.292-362.144-911.836s135.38-713.416 362.144-911.836c26.6-23.272 29.296-63.708 6.020-90.308-12.652-14.46-30.372-21.856-48.188-21.856z" />
<glyph unicode="&#x29;" glyph-name="uni29" horiz-adv-x="768" d="M192.024-128c14.956 0 29.98 5.212 42.12 15.836 131.816 115.34 234.624 267.124 305.572 451.14 65.604 170.168 100.284 362.78 100.284 557.024 0 194.24-34.676 386.856-100.284 557.024-70.948 184.016-173.756 335.804-305.572 451.14-26.604 23.276-67.040 20.584-90.308-6.020-23.276-26.6-20.584-67.032 6.020-90.308 226.764-198.42 362.144-539.292 362.144-911.836s-135.38-713.416-362.144-911.836c-26.6-23.272-29.296-63.708-6.020-90.308 12.652-14.46 30.372-21.856 48.188-21.856z" />
<glyph unicode="&#x2a;" glyph-name="uni2A" horiz-adv-x="1152" d="M995.5 1141.252l-304.12 202.748 304.12 202.748c29.412 19.608 37.36 59.344 17.752 88.752-19.604 29.412-59.344 37.356-88.752 17.752l-284.5-189.668v264.416c0 35.344-28.656 64-64 64s-64-28.656-64-64v-264.416l-284.5 189.668c-29.408 19.604-69.148 11.66-88.752-17.752-19.604-29.408-11.66-69.144 17.752-88.752l304.124-202.748-304.12-202.748c-29.412-19.608-37.356-59.344-17.752-88.752 12.332-18.5 32.628-28.504 53.312-28.504 12.196 0 24.532 3.48 35.44 10.752l284.496 189.668v-264.416c0-35.344 28.656-64 64-64s64 28.656 64 64v264.416l284.5-189.668c10.912-7.272 23.244-10.752 35.44-10.752 20.68 0 40.976 10.008 53.308 28.504 19.612 29.408 11.664 69.144-17.748 88.752z" />
<glyph unicode="&#x2b;" glyph-name="uni2B" horiz-adv-x="1152" d="M960 896h-320v320c0 35.344-28.652 64-64 64-35.344 0-64-28.656-64-64v-320h-320c-35.344 0-64-28.652-64-64s28.656-64 64-64h320v-320c0-35.348 28.656-64 64-64 35.348 0 64 28.652 64 64v320h320c35.348 0 64 28.652 64 64s-28.652 64-64 64z" />
<glyph unicode="&#x2c;" glyph-name="uni2C" horiz-adv-x="512" d="M384 448c0 35.348-28.652 64-64 64h-128c-35.344 0-64-28.652-64-64s28.656-64 64-64h61.020c-17.148-180.68-102.592-270.94-106.62-275.092l0.324 0.324c-11.568-11.584-18.724-27.572-18.724-45.232 0-35.348 28.656-64 64-64 17.688 0 33.696 7.176 45.28 18.772 6.236 6.244 146.72 150.184 146.72 429.228z" />
<glyph unicode="&#x2d;" glyph-name="uni2D" horiz-adv-x="896" d="M704 896h-512c-35.344 0-64-28.652-64-64s28.656-64 64-64h512c35.348 0 64 28.652 64 64s-28.652 64-64 64z" />
<glyph unicode="&#x2e;" glyph-name="uni2E" horiz-adv-x="384" d="M192 256c-35.344 0-64 28.652-64 64v128c0 35.348 28.656 64 64 64 35.348 0 64-28.652 64-64v-128c0-35.348-28.652-64-64-64z" />
<glyph unicode="&#x2f;" glyph-name="uni2F" horiz-adv-x="1152" d="M191.98-128.016c-7.916 0-15.952 1.476-23.752 4.592-32.82 13.124-48.78 50.372-35.652 83.192l768 1920c13.124 32.82 50.368 48.788 83.192 35.652 32.816-13.128 48.78-50.372 35.652-83.192l-768-1920c-10.004-25.020-34.040-40.244-59.44-40.244z" />
<glyph unicode="&#x30;" glyph-name="uni30" horiz-adv-x="1280" d="M640 256c-204.944 0-343.496 68.116-423.568 208.248-77.924 136.368-88.432 327.132-88.432 495.752 0 300.484 44.704 419.228 88.432 495.752 80.076 140.128 218.624 208.248 423.568 208.248s343.492-68.12 423.568-208.248c77.924-136.368 88.432-327.132 88.432-495.752 0-300.484-44.704-419.228-88.432-495.752-80.076-140.132-218.62-208.248-423.568-208.248zM640 1536c-206.416 0-277.168-82.044-312.432-143.752-50.164-87.788-71.568-217.060-71.568-432.248 0-215.192 21.404-344.46 71.568-432.248 35.264-61.708 106.016-143.752 312.432-143.752s277.168 82.044 312.432 143.752c50.168 87.788 71.568 217.056 71.568 432.248 0 215.188-21.404 344.46-71.568 432.248-35.264 61.708-106.016 143.752-312.432 143.752z" />
<glyph unicode="&#x31;" glyph-name="uni31" horiz-adv-x="640" d="M448 256c-35.344 0-64 28.652-64 64v1125.492l-146.744-146.748c-24.996-24.992-65.516-24.992-90.512 0-24.992 24.996-24.992 65.516 0 90.512l256 256c18.308 18.304 45.832 23.78 69.748 13.872 23.916-9.904 39.508-33.244 39.508-59.128v-1280c0-35.348-28.652-64-64-64z" />
<glyph unicode="&#x32;" glyph-name="uni32" horiz-adv-x="1280" d="M1088 256h-896c-35.344 0-64 28.652-64 64 0 195.036 62.968 342.124 192.496 449.664 109.136 90.608 249.92 138.628 374.136 180.996 210.356 71.744 329.368 119.44 329.368 265.34 0 128.908-17.748 199.236-61.252 242.744-52.708 52.708-155.264 77.256-322.748 77.256s-270.040-24.548-322.744-77.256c-43.508-43.508-61.256-113.836-61.256-242.744 0-35.344-28.656-64-64-64s-64 28.656-64 64c0 121.8 11.964 246.472 98.744 333.256 79.36 79.356 206.812 114.744 413.256 114.744s333.9-35.388 413.252-114.744c86.788-86.784 98.748-211.456 98.748-333.256 0-111.948-45.772-198.552-139.936-264.756-76.128-53.524-173.268-86.66-276.108-121.732-119.316-40.696-242.692-82.772-333.692-158.328-85.64-71.1-132.012-163.368-143.44-287.184h829.176c35.348 0 64-28.652 64-64s-28.652-64-64-64z" />
<glyph unicode="&#x33;" glyph-name="uni33" horiz-adv-x="1280" d="M1050.144 920.164c-17.092 14.956-36.416 28.208-58.092 39.836 21.676 11.628 41 24.88 58.092 39.836 90.28 78.992 101.856 191.22 101.856 280.164s-11.58 201.172-101.856 280.164c-80.96 70.84-211.288 103.836-410.144 103.836-176.576 0-297.096-25.504-379.284-80.268-76.088-50.7-118.42-126.96-129.408-233.136-3.64-35.16 21.912-66.608 57.072-70.248 35.152-3.628 66.608 21.912 70.248 57.072 8.184 79.076 20.556 198.58 381.372 198.58 163.768 0 270.36-23.604 325.856-72.164 41.3-36.136 58.144-89.4 58.144-183.836s-16.844-147.7-58.144-183.836c-55.448-48.516-161.908-72.12-325.432-72.164h-64.424c-35.344 0-64-28.656-64-64s28.656-64 64-64h63.92c0.024 0 0.052-0.004 0.076-0.004 163.768 0 270.36-23.604 325.856-72.168 41.304-36.128 58.148-89.392 58.148-183.828s-16.844-147.7-58.144-183.836c-55.496-48.56-162.084-72.164-325.856-72.164-331 0-369.672 96.032-380.916 194.392-4.008 35.12-35.728 60.312-70.852 56.32-35.116-4.012-60.332-35.736-56.32-70.852 11.936-104.432 54.932-179.444 131.444-229.332 82.184-53.576 201.86-78.528 376.644-78.528 198.856 0 329.184 32.996 410.144 103.836 90.28 78.992 101.856 191.22 101.856 280.164s-11.576 201.172-101.856 280.164z" />
<glyph unicode="&#x34;" glyph-name="uni34" horiz-adv-x="1280" d="M832 256c-35.348 0-64 28.652-64 64v320h-576c-23.976 0-45.936 13.4-56.908 34.716s-9.108 46.976 4.828 66.484l640 896c16.172 22.64 45.108 32.236 71.608 23.748 26.5-8.492 44.472-33.124 44.472-60.948v-832h192c35.348 0 64-28.652 64-64s-28.652-64-64-64h-192v-320c0-35.348-28.652-64-64-64zM316.364 768h451.636v632.292l-451.636-632.292z" />
<glyph unicode="&#x35;" glyph-name="uni35" horiz-adv-x="1280" d="M640 256c-120.892 0-215.596 12.16-289.532 37.18-75.504 25.552-130.092 64.48-166.884 119.012-19.768 29.3-12.040 69.084 17.26 88.848 29.304 19.776 69.084 12.036 88.848-17.26 16.652-24.684 67.32-99.78 350.308-99.78 163.768 0 270.36 23.604 325.856 72.164 41.3 36.136 58.144 89.4 58.144 183.836s-16.844 147.7-58.144 183.836c-55.496 48.56-162.084 72.164-325.856 72.164h-320c-18.084 0-35.32 7.648-47.452 21.056s-18.028 31.32-16.228 49.316l64 640c3.272 32.712 30.8 57.628 63.68 57.628h704c35.348 0 64-28.656 64-64s-28.652-64-64-64h-646.080l-51.2-512h249.28c198.856 0 329.184-32.996 410.144-103.832 90.28-78.996 101.856-191.224 101.856-280.168s-11.58-201.172-101.856-280.164c-80.96-70.84-211.288-103.836-410.144-103.836z" />
<glyph unicode="&#x36;" glyph-name="uni36" horiz-adv-x="1280" d="M229.856 359.836c80.96-70.84 211.288-103.836 410.144-103.836s329.184 32.996 410.144 103.836c90.28 78.992 101.856 191.22 101.856 280.164s-11.576 201.172-101.856 280.164c-80.96 70.84-211.288 103.836-410.144 103.836-178.732 0-302.076-26.672-384-83.504v339.504c0 94.436 16.844 147.7 58.144 183.836 55.496 48.56 162.084 72.164 325.856 72.164 360.82 0 373.184-119.504 381.368-198.584 3.64-35.164 35.128-60.716 70.248-57.076 35.16 3.636 60.712 35.088 57.072 70.248-10.988 106.176-53.316 182.436-129.404 233.14-82.184 54.764-202.708 80.272-379.284 80.272-198.856 0-329.184-32.996-410.144-103.836-90.28-78.992-101.856-191.22-101.856-280.164v-640c0-88.944 11.576-201.172 101.856-280.164zM314.144 823.836c55.496 48.56 162.084 72.164 325.856 72.164s270.36-23.604 325.856-72.164c41.296-36.136 58.144-89.4 58.144-183.836s-16.844-147.7-58.144-183.836c-55.496-48.56-162.084-72.164-325.856-72.164-163.768 0-270.36 23.604-325.856 72.164-41.3 36.136-58.144 89.4-58.144 183.836s16.844 147.7 58.144 183.836z" />
<glyph unicode="&#x37;" glyph-name="uni37" horiz-adv-x="1280" d="M447.952 255.984c-9.62 0-19.384 2.18-28.572 6.772-31.616 15.804-44.428 54.248-28.624 85.864l593.692 1187.38h-792.448c-35.344 0-64 28.656-64 64s28.656 64 64 64h896c22.18 0 42.78-11.484 54.44-30.352s12.724-42.428 2.8-62.268l-640-1280c-11.208-22.428-33.812-35.392-57.288-35.396z" />
<glyph unicode="&#x38;" glyph-name="uni38" horiz-adv-x="1280" d="M1050.144 920.164c-17.092 14.956-36.416 28.208-58.092 39.836 21.676 11.628 41 24.88 58.092 39.836 90.28 78.992 101.856 191.22 101.856 280.164s-11.58 201.172-101.856 280.164c-80.96 70.84-211.288 103.836-410.144 103.836s-329.184-32.996-410.144-103.836c-90.28-78.992-101.856-191.22-101.856-280.164s11.576-201.172 101.856-280.164c17.092-14.956 36.416-28.208 58.092-39.836-21.676-11.628-41-24.88-58.092-39.836-90.276-78.992-101.856-191.22-101.856-280.164s11.576-201.172 101.856-280.164c80.96-70.84 211.288-103.836 410.144-103.836s329.184 32.996 410.144 103.836c90.28 78.992 101.856 191.22 101.856 280.164s-11.576 201.172-101.856 280.164zM314.144 1463.836c55.496 48.56 162.084 72.164 325.856 72.164 163.768 0 270.36-23.604 325.856-72.164 41.3-36.136 58.144-89.4 58.144-183.836s-16.844-147.7-58.144-183.836c-55.496-48.56-162.084-72.164-325.856-72.164s-270.36 23.604-325.856 72.164c-41.296 36.136-58.144 89.4-58.144 183.836s16.848 147.7 58.144 183.836zM965.856 456.164c-55.496-48.56-162.084-72.164-325.856-72.164s-270.36 23.604-325.856 72.164c-41.296 36.136-58.144 89.4-58.144 183.836s16.844 147.7 58.144 183.832c55.496 48.564 162.084 72.168 325.856 72.168 163.768 0 270.36-23.604 325.856-72.168 41.3-36.132 58.144-89.396 58.144-183.832s-16.844-147.7-58.144-183.836z" />
<glyph unicode="&#x39;" glyph-name="uni39" horiz-adv-x="1280" d="M1050.144 1560.164c-80.96 70.84-211.288 103.836-410.144 103.836s-329.184-32.996-410.144-103.836c-90.28-78.992-101.856-191.22-101.856-280.164s11.576-201.172 101.856-280.164c80.96-70.84 211.288-103.836 410.144-103.836 178.732 0 302.076 26.672 384 83.504v-339.504c0-94.436-16.844-147.7-58.144-183.836-55.496-48.56-162.084-72.164-325.856-72.164-360.82 0-373.184 119.504-381.368 198.584-3.64 35.164-35.128 60.716-70.248 57.076-35.16-3.636-60.712-35.088-57.072-70.248 10.988-106.176 53.316-182.436 129.404-233.14 82.184-54.764 202.708-80.272 379.284-80.272 198.856 0 329.184 32.996 410.144 103.836 90.28 78.992 101.856 191.22 101.856 280.164v640c0 88.944-11.576 201.172-101.856 280.164zM965.856 1096.164c-55.496-48.56-162.084-72.164-325.856-72.164s-270.36 23.604-325.856 72.164c-41.296 36.136-58.144 89.4-58.144 183.836s16.844 147.7 58.144 183.836c55.496 48.56 162.084 72.164 325.856 72.164 163.768 0 270.36-23.604 325.856-72.164 41.3-36.136 58.144-89.4 58.144-183.836s-16.844-147.7-58.144-183.836z" />
<glyph unicode="&#x3a;" glyph-name="uni3A" horiz-adv-x="384" d="M192 256c-35.344 0-64 28.652-64 64v128c0 35.348 28.656 64 64 64 35.348 0 64-28.652 64-64v-128c0-35.348-28.652-64-64-64zM192 1024c-35.344 0-64 28.652-64 64v128c0 35.348 28.656 64 64 64 35.348 0 64-28.652 64-64v-128c0-35.348-28.652-64-64-64z" />
<glyph unicode="&#x3b;" glyph-name="uni3B" horiz-adv-x="512" d="M384 448c0 35.348-28.652 64-64 64h-128c-35.344 0-64-28.652-64-64s28.656-64 64-64h61.020c-17.148-180.68-102.592-270.94-106.62-275.092l0.324 0.324c-11.568-11.584-18.724-27.572-18.724-45.232 0-35.348 28.656-64 64-64 17.688 0 33.696 7.176 45.28 18.772 6.236 6.244 146.72 150.184 146.72 429.228zM320 1024c-35.344 0-64 28.652-64 64v128c0 35.348 28.656 64 64 64 35.348 0 64-28.652 64-64v-128c0-35.348-28.652-64-64-64z" />
<glyph unicode="&#x3c;" glyph-name="uni3C" horiz-adv-x="1152" d="M959.948 383.984c-9.616 0-19.384 2.18-28.572 6.772l-768 384c-21.68 10.84-35.376 33-35.376 57.244s13.696 46.404 35.38 57.244l768 384c31.624 15.8 70.060 2.992 85.864-28.624 15.808-31.612 2.992-70.056-28.62-85.864l-653.516-326.756 653.512-326.756c31.612-15.804 44.428-54.248 28.62-85.864-11.208-22.428-33.816-35.392-57.292-35.396z" />
<glyph unicode="&#x3d;" glyph-name="uni3D" horiz-adv-x="1152" d="M960 1024h-768c-35.344 0-64 28.656-64 64s28.656 64 64 64h768c35.348 0 64-28.656 64-64s-28.652-64-64-64zM960 512h-768c-35.344 0-64 28.652-64 64s28.656 64 64 64h768c35.348 0 64-28.652 64-64s-28.652-64-64-64z" />
<glyph unicode="&#x3e;" glyph-name="uni3E" horiz-adv-x="1152" d="M192.052 383.984c9.616 0 19.384 2.18 28.572 6.772l768 384c21.68 10.84 35.376 33 35.376 57.244s-13.696 46.404-35.38 57.244l-768 384c-31.624 15.8-70.060 2.992-85.864-28.624-15.808-31.612-2.992-70.056 28.62-85.864l653.516-326.756-653.512-326.756c-31.612-15.804-44.428-54.248-28.62-85.864 11.208-22.428 33.816-35.392 57.292-35.396z" />
<glyph unicode="&#x3f;" glyph-name="uni3F" horiz-adv-x="1152" d="M576 640c-35.344 0-64 28.652-64 64v128c0 35.348 28.656 64 64 64 135.74 0 219.576 23.56 263.836 74.144 39.368 44.992 56.164 118.52 56.164 245.856s-16.796 200.864-56.164 245.856c-44.26 50.584-128.096 74.144-263.836 74.144s-219.576-23.56-263.836-74.144c-39.368-44.992-56.164-118.52-56.164-245.856 0-35.344-28.656-64-64-64s-64 28.656-64 64c0 113.616 10.436 241.688 87.836 330.144 70.356 80.408 184.8 117.856 360.164 117.856s289.808-37.448 360.164-117.856c77.404-88.456 87.836-216.528 87.836-330.144s-10.432-241.688-87.836-330.144c-61.408-70.18-156.396-107.632-296.164-116.028v-65.828c0-35.348-28.652-64-64-64zM576 256c-35.344 0-64 28.652-64 64v128c0 35.348 28.656 64 64 64 35.348 0 64-28.652 64-64v-128c0-35.348-28.652-64-64-64z" />
<glyph unicode="&#x40;" glyph-name="uni40" horiz-adv-x="1664" d="M1365.256 1493.256c-114.896 114.892-289.32 170.744-533.256 170.744-243.932 0-418.36-55.852-533.256-170.744-114.892-114.896-170.744-289.324-170.744-533.256s55.852-418.36 170.744-533.252c114.896-114.896 289.324-170.748 533.256-170.748 224.004 0 388.54 46.776 503.004 143.004 27.056 22.744 30.552 63.116 7.804 90.172-22.752 27.064-63.124 30.544-90.172 7.804-90.432-76.024-228.024-112.98-420.636-112.98-208.256 0-353.080 43.588-442.744 133.252-89.668 89.668-133.256 234.496-133.256 442.748 0 208.256 43.588 353.080 133.256 442.744 89.668 89.668 234.488 133.256 442.744 133.256 208.252 0 353.080-43.588 442.748-133.256 89.664-89.664 133.252-234.488 133.252-442.744v-64c0-38.484-12.472-128-128-128s-128 89.516-128 128v64c0 117.92-23.052 193.564-74.748 245.256-51.688 51.692-127.328 74.744-245.252 74.744s-193.564-23.052-245.256-74.744c-51.692-51.692-74.744-127.336-74.744-245.256s23.052-193.564 74.744-245.252c51.696-51.696 127.336-74.748 245.256-74.748s193.564 23.052 245.252 74.748c2.34 2.34 4.6 4.748 6.824 7.188 45.096-51.824 113.144-81.936 195.924-81.936 153.12 0 256 102.88 256 256v64c0 243.932-55.852 418.36-170.744 533.256zM986.748 805.252c-25.42-25.412-74.592-37.252-154.748-37.252s-129.328 11.84-154.748 37.252c-25.412 25.42-37.252 74.592-37.252 154.748s11.84 129.328 37.252 154.744c25.42 25.42 74.592 37.256 154.748 37.256s129.328-11.836 154.748-37.256c25.412-25.416 37.252-74.588 37.252-154.744s-11.84-129.328-37.252-154.748z" />
<glyph unicode="&#x41;" glyph-name="uni41" horiz-adv-x="1408" d="M1275.42 343.764l-512 1280c-9.716 24.304-33.248 40.236-59.42 40.236-26.168 0-49.704-15.932-59.42-40.232l-512-1280c-13.128-32.816 2.832-70.068 35.652-83.192 32.82-13.112 70.068 2.828 83.192 35.652l137.504 343.772h630.144l137.508-343.768c10.008-25.024 34.040-40.248 59.436-40.248 7.916 0 15.956 1.476 23.752 4.588 32.816 13.132 48.784 50.376 35.652 83.192zM440.132 768l263.868 659.672 263.872-659.672h-527.74z" />
<glyph unicode="&#x42;" glyph-name="uni42" horiz-adv-x="1280" d="M640 256h-448c-35.344 0-64 28.652-64 64v1280c0 35.344 28.656 64 64 64h448c154.916 0 255.584-23.684 326.4-76.8 81.828-61.368 121.6-161.856 121.6-307.2 0-142.872-38.436-242.4-117.46-304.032 17.768-7.852 33.996-16.74 48.96-26.716 90.4-60.264 132.5-158.532 132.5-309.252s-42.1-248.988-132.5-309.248c-78.584-52.396-192.084-74.752-379.5-74.752zM256 384h384c325.984 0 384 67.080 384 256 0 75.368-8.968 158.4-75.5 202.752-55.244 36.828-150.392 53.248-308.5 53.248h-384v-512zM640 1024c123.72 0 203.028 16.268 249.6 51.2 30.22 22.668 70.4 68.556 70.4 204.8s-40.18 182.132-70.4 204.8c-46.572 34.932-125.88 51.2-249.6 51.2h-384v-512h384z" />
<glyph unicode="&#x43;" glyph-name="uni43" horiz-adv-x="1408" d="M768 256c-215.136 0-371.828 56.452-479.028 172.584-108.316 117.344-160.972 291.172-160.972 531.416 0 255.628 41.68 418.884 135.144 529.34 100.828 119.16 261.248 174.66 504.856 174.66 224.416 0 376.436-46.472 478.432-146.252 25.264-24.716 25.712-65.24 0.996-90.504-24.72-25.264-65.248-25.716-90.508-0.992-76.528 74.876-200.116 109.748-388.92 109.748-266.84 0-360.164-73.816-407.144-129.34-72.52-85.704-104.856-223.46-104.856-446.66 0-206.564 41.552-351.992 127.028-444.584 81.624-88.432 207.548-131.416 384.972-131.416 163.752 0 283.028 36.368 364.668 111.176 26.060 23.888 66.544 22.12 90.416-3.94 23.888-26.064 22.112-66.548-3.94-90.42-106.332-97.448-253.9-144.816-451.144-144.816z" />
<glyph unicode="&#x44;" glyph-name="uni44" horiz-adv-x="1408" d="M640 256h-448c-35.344 0-64 28.652-64 64v1280c0 35.344 28.656 64 64 64h448c243.6 0 404.028-55.5 504.856-174.66 93.464-110.456 135.144-273.712 135.144-529.34 0-240.244-52.656-414.072-160.972-531.416-107.204-116.132-263.896-172.584-479.028-172.584zM256 384h384c177.42 0 303.348 42.984 384.972 131.416 85.476 92.592 127.028 238.020 127.028 444.584 0 223.2-32.34 360.956-104.856 446.66-46.984 55.524-140.304 129.34-407.144 129.34h-384v-1152z" />
<glyph unicode="&#x45;" glyph-name="uni45" horiz-adv-x="1280" d="M1088 384h-832v512h704c35.348 0 64 28.656 64 64s-28.652 64-64 64h-704v512h832c35.348 0 64 28.656 64 64s-28.652 64-64 64h-896c-35.344 0-64-28.656-64-64v-1280c0-35.348 28.656-64 64-64h896c35.348 0 64 28.652 64 64s-28.652 64-64 64z" />
<glyph unicode="&#x46;" glyph-name="uni46" horiz-adv-x="1280" d="M1088 1664h-896c-35.344 0-64-28.656-64-64v-1280c0-35.348 28.656-64 64-64s64 28.652 64 64v576h704c35.348 0 64 28.656 64 64s-28.652 64-64 64h-704v512h832c35.348 0 64 28.656 64 64s-28.652 64-64 64z" />
<glyph unicode="&#x47;" glyph-name="uni47" horiz-adv-x="1408" d="M768 256c-215.136 0-371.828 56.452-479.028 172.584-108.316 117.344-160.972 291.172-160.972 531.416 0 255.628 41.68 418.884 135.144 529.34 100.828 119.16 261.248 174.66 504.856 174.66 224.392 0 376.4-46.46 478.4-146.212 25.268-24.716 25.724-65.236 1.004-90.504-24.712-25.272-65.232-25.724-90.504-1.008-76.54 74.86-200.12 109.724-388.9 109.724-266.84 0-360.164-73.816-407.144-129.34-72.516-85.704-104.856-223.46-104.856-446.66 0-206.564 41.552-351.992 127.028-444.584 81.624-88.432 207.548-131.416 384.972-131.416 176.328 0 302.256 42.7 384.016 130.4v381.6h-192.016c-35.348 0-64 28.656-64 64s28.652 64 64 64h256.016c35.348 0 64-28.656 64-64v-469.584c0-14.788-5.124-29.12-14.5-40.568-106.9-130.44-269.632-193.848-497.516-193.848z" />
<glyph unicode="&#x48;" glyph-name="uni48" horiz-adv-x="1280" d="M1088 1664c-35.348 0-64-28.656-64-64v-576h-768v576c0 35.344-28.656 64-64 64s-64-28.656-64-64v-1280c0-35.348 28.656-64 64-64s64 28.652 64 64v576h768v-576c0-35.348 28.652-64 64-64s64 28.652 64 64v1280c0 35.344-28.652 64-64 64z" />
<glyph unicode="&#x49;" glyph-name="uni49" horiz-adv-x="384" d="M192 256c-35.344 0-64 28.652-64 64v1280c0 35.344 28.656 64 64 64s64-28.656 64-64v-1280c0-35.348-28.656-64-64-64z" />
<glyph unicode="&#x4a;" glyph-name="uni4A" horiz-adv-x="1024" d="M448 256c-127.8 0-230.404 44.888-304.96 133.416-22.768 27.040-19.308 67.412 7.728 90.18 27.040 22.768 67.408 19.308 90.18-7.728 49.792-59.124 117.52-87.868 207.052-87.868 170.592 0 228.948 60.704 258.004 106.36 42.876 67.376 61.996 172.74 61.996 341.64v768c0 35.344 28.656 64 64 64 35.348 0 64-28.656 64-64v-768c0-197.308-24.524-320.036-82.004-410.36-70.928-111.46-190.648-165.64-365.996-165.64z" />
<glyph unicode="&#x4b;" glyph-name="uni4B" horiz-adv-x="1280" d="M1127.020 370.728l-766.052 589.272 766.052 589.272c28.020 21.552 33.252 61.736 11.708 89.752-21.548 28.012-61.732 33.26-89.748 11.708l-792.98-609.988v559.256c0 35.344-28.656 64-64 64s-64-28.656-64-64v-1280c0-35.348 28.656-64 64-64s64 28.652 64 64v559.256l792.98-609.984c11.628-8.948 25.352-13.276 38.972-13.276 19.188 0.004 38.172 8.596 50.772 24.984 21.548 28.016 16.316 68.196-11.704 89.748z" />
<glyph unicode="&#x4c;" glyph-name="uni4C" horiz-adv-x="1280" d="M1088 256h-896c-35.344 0-64 28.652-64 64v1280c0 35.344 28.656 64 64 64s64-28.656 64-64v-1216h832c35.348 0 64-28.652 64-64s-28.652-64-64-64z" />
<glyph unicode="&#x4d;" glyph-name="uni4D" horiz-adv-x="1920" d="M1727.932 255.988c-29.888 0-56.604 21.036-62.692 51.46l-216.52 1082.596-430.24-968.040c-10.268-23.108-33.188-38.004-58.48-38.004s-48.212 14.896-58.484 38.008l-430.24 968.040-216.52-1082.596c-6.932-34.66-40.664-57.128-75.308-50.208-34.66 6.932-57.14 40.648-50.208 75.308l256 1280c5.468 27.336 28 47.988 55.704 51.060 27.732 3.068 54.216-12.144 65.536-37.616l453.52-1020.412 453.516 1020.408c11.32 25.476 37.86 40.704 65.536 37.616 27.708-3.072 50.24-23.724 55.708-51.060l256-1280c6.928-34.66-15.548-68.376-50.208-75.308-4.236-0.844-8.464-1.252-12.62-1.252z" />
<glyph unicode="&#x4e;" glyph-name="uni4E" horiz-adv-x="1280" d="M1088.008 255.996c-20.492 0-40.236 9.868-52.436 27.3l-779.572 1113.672v-1076.968c0-35.348-28.656-64-64-64s-64 28.652-64 64v1280c0 27.932 18.116 52.64 44.76 61.040 26.64 8.4 55.652-1.452 71.672-24.336l779.568-1113.672v1076.968c0 35.344 28.652 64 64 64s64-28.656 64-64v-1280c0-27.932-18.116-52.64-44.756-61.040-6.344-2-12.828-2.964-19.236-2.964z" />
<glyph unicode="&#x4f;" glyph-name="uni4F" horiz-adv-x="1536" d="M768 256c-215.136 0-371.828 56.452-479.028 172.584-108.316 117.344-160.972 291.172-160.972 531.416 0 255.628 41.68 418.884 135.144 529.34 100.828 119.16 261.248 174.66 504.856 174.66 243.6 0 404.028-55.5 504.856-174.66 93.464-110.456 135.144-273.712 135.144-529.34 0-240.244-52.656-414.072-160.972-531.416-107.204-116.132-263.896-172.584-479.028-172.584zM768 1536c-266.84 0-360.164-73.816-407.144-129.34-72.516-85.704-104.856-223.46-104.856-446.66 0-206.564 41.552-351.992 127.028-444.584 81.624-88.432 207.548-131.416 384.972-131.416 177.42 0 303.348 42.984 384.972 131.416 85.476 92.592 127.028 238.020 127.028 444.584 0 223.2-32.34 360.956-104.856 446.66-46.984 55.524-140.304 129.34-407.144 129.34z" />
<glyph unicode="&#x50;" glyph-name="uni50" horiz-adv-x="1280" d="M192 256c-35.344 0-64 28.652-64 64v1280c0 35.344 28.656 64 64 64h448c187.416 0 300.916-22.356 379.5-74.748 90.4-60.264 132.5-158.532 132.5-309.252s-42.1-248.988-132.5-309.252c-78.584-52.392-192.084-74.748-379.5-74.748h-384v-576c0-35.348-28.656-64-64-64zM256 1024h384c325.984 0 384 67.076 384 256 0 217.324-100.608 256-384 256h-384v-512z" />
<glyph unicode="&#x51;" glyph-name="uni51" horiz-adv-x="1536" d="M1210.944 125.292c-63.016-4.996-245.288-0.536-331.28 78.908-16.952 15.66-29.248 33.656-37.128 54.248 177.276 11.908 310.084 67.872 404.492 170.144 108.316 117.336 160.972 291.164 160.972 531.408 0 255.628-41.68 418.884-135.144 529.34-100.828 119.16-261.256 174.66-504.856 174.66-243.608 0-404.028-55.5-504.856-174.66-93.464-110.456-135.144-273.712-135.144-529.34 0-240.244 52.656-414.072 160.972-531.416 97.312-105.416 235.412-161.652 420.976-171.132 11.376-57.46 39.084-106.828 82.852-147.268 62.12-57.396 153.896-93.676 272.76-107.836 41.22-4.912 78.5-6.196 106.232-6.196 29.192 0 47.792 1.416 49.26 1.54 35.236 2.792 61.536 33.62 58.748 68.856-2.792 35.232-33.62 61.54-68.856 58.744zM383.028 515.416c-85.476 92.592-127.028 238.020-127.028 444.584 0 223.2 32.34 360.956 104.856 446.66 46.98 55.524 140.304 129.34 407.144 129.34s360.16-73.816 407.144-129.34c72.516-85.704 104.856-223.46 104.856-446.66 0-206.564-41.552-351.992-127.028-444.584-81.624-88.432-207.552-131.416-384.972-131.416-177.424 0-303.348 42.984-384.972 131.416z" />
<glyph unicode="&#x52;" glyph-name="uni52" horiz-adv-x="1280" d="M812.332 904.688c90.74 10.824 156.284 32.14 207.168 66.060 90.4 60.264 132.5 158.532 132.5 309.252s-42.1 248.988-132.5 309.252c-78.584 52.392-192.084 74.748-379.5 74.748h-448c-35.344 0-64-28.656-64-64v-1280c0-35.348 28.656-64 64-64s64 28.652 64 64v576h384c9.608 0 18.98 0.076 28.208 0.192l364.896-609.084c11.992-20.024 33.208-31.116 54.96-31.116 11.196 0 22.532 2.936 32.828 9.104 30.32 18.164 40.18 57.468 22.016 87.792l-330.576 551.8zM256 1024v512h384c283.392 0 384-38.676 384-256 0-188.924-58.016-256-384-256h-384z" />
<glyph unicode="&#x53;" glyph-name="uni53" horiz-adv-x="1408" d="M704 256c-335.52 0-539.004 133.084-547.5 138.752-29.412 19.604-37.356 59.344-17.752 88.752 19.568 29.36 59.192 37.324 88.588 17.86 1.212-0.784 46.492-30.032 127.060-58.844 74.644-26.7 195.892-58.52 349.604-58.52 181.592 0 309.936 32.244 381.48 95.836 44.764 39.78 66.52 92.176 66.52 160.164 0 78.4-66.6 121.752-124.616 150.756-89.724 44.852-216.4 76.524-338.904 107.152-129.208 32.304-262.816 65.704-365.1 116.844-129.644 64.828-195.38 154.068-195.38 265.248 0 105.184 36.832 191.26 109.48 255.832 95.676 85.048 252.636 128.168 466.52 128.168 335.52 0 539.004-133.084 547.5-138.748 29.416-19.608 37.36-59.344 17.752-88.752-19.604-29.408-59.344-37.356-88.752-17.752-0.256 0.172-45.628 29.676-126.9 58.736-74.64 26.692-195.888 58.516-349.6 58.516-181.592 0-309.94-32.244-381.48-95.832-44.764-39.788-66.52-92.18-66.52-160.168 0-78.392 66.6-121.748 124.62-150.756 89.716-44.86 216.396-76.528 338.9-107.156 129.208-32.304 262.82-65.704 365.096-116.844 129.648-64.824 195.384-154.064 195.384-265.244 0-105.184-36.836-191.256-109.48-255.836-95.676-85.044-252.636-128.164-466.52-128.164z" />
<glyph unicode="&#x54;" glyph-name="uni54" horiz-adv-x="1408" d="M1216 1664h-1024c-35.344 0-64-28.656-64-64s28.656-64 64-64h448v-1216c0-35.348 28.656-64 64-64s64 28.652 64 64v1216h448c35.348 0 64 28.656 64 64s-28.652 64-64 64z" />
<glyph unicode="&#x55;" glyph-name="uni55" horiz-adv-x="1408" d="M704 256c-234.048 0-384.516 50.672-473.532 159.472-90.052 110.068-102.468 265.24-102.468 416.528v768c0 35.344 28.656 64 64 64s64-28.656 64-64v-768c0-174.444 21.304-271.636 73.532-335.472 62.812-76.772 181.804-112.528 374.468-112.528s311.656 35.756 374.464 112.528c52.232 63.836 73.536 161.028 73.536 335.472v768c0 35.344 28.652 64 64 64s64-28.656 64-64v-768c0-151.288-12.416-306.46-102.464-416.528-89.020-108.8-239.488-159.472-473.536-159.472z" />
<glyph unicode="&#x56;" glyph-name="uni56" horiz-adv-x="1408" d="M704 256c-26.168 0-49.704 15.932-59.42 40.232l-512 1280c-13.128 32.82 2.832 70.064 35.652 83.192 32.824 13.128 70.064-2.836 83.192-35.652l452.576-1131.448 452.58 1131.444c13.124 32.82 50.376 48.784 83.196 35.652 32.812-13.128 48.776-50.372 35.648-83.192l-512-1280c-9.72-24.296-33.252-40.228-59.424-40.228z" />
<glyph unicode="&#x57;" glyph-name="uni57" horiz-adv-x="1920" d="M1343.992 256c-27.508 0-51.988 17.596-60.712 43.76l-323.28 969.856-323.284-969.856c-8.824-26.476-33.788-44.3-61.684-43.752-27.904 0.42-52.316 18.876-60.332 45.6l-384 1280c-10.156 33.856 9.056 69.536 42.912 79.692 33.86 10.152 69.536-9.056 79.692-42.912l325.912-1086.372 320.076 960.22c8.704 26.136 33.16 43.764 60.708 43.764s52.004-17.628 60.72-43.76l320.076-960.22 325.912 1086.372c10.156 33.852 45.84 53.064 79.692 42.912 33.856-10.156 53.072-45.836 42.916-79.692l-384-1280c-8.020-26.732-32.428-45.18-60.332-45.6-0.34-0.008-0.668-0.012-0.992-0.012z" />
<glyph unicode="&#x58;" glyph-name="uni58" horiz-adv-x="1280" d="M718.116 960l422.312 603.3c20.264 28.956 13.232 68.86-15.732 89.132-28.948 20.264-68.86 13.228-89.128-15.732l-395.568-565.096-395.568 565.096c-20.268 28.956-60.172 36-89.132 15.732-28.956-20.272-36-60.176-15.732-89.132l422.308-603.3-422.308-603.296c-20.268-28.956-13.228-68.864 15.732-89.132 11.172-7.816 23.972-11.576 36.644-11.576 20.176 0 40.036 9.516 52.488 27.3l395.568 565.104 395.572-565.096c12.448-17.784 32.304-27.3 52.484-27.3 12.68 0 25.476 3.752 36.648 11.576 28.956 20.268 35.996 60.18 15.728 89.132l-422.316 603.288z" />
<glyph unicode="&#x59;" glyph-name="uni59" horiz-adv-x="1408" d="M1251.5 1653.252c-29.408 19.604-69.144 11.66-88.752-17.752l-458.748-688.124-458.748 688.124c-19.608 29.412-59.344 37.36-88.752 17.752-29.412-19.608-37.356-59.344-17.752-88.752l501.252-751.884v-492.616c0-35.348 28.656-64 64-64s64 28.652 64 64v492.616l501.248 751.884c19.612 29.408 11.668 69.144-17.748 88.752z" />
<glyph unicode="&#x5a;" glyph-name="uni5A" horiz-adv-x="1408" d="M1216 256h-1024c-24.6 0-47.024 14.1-57.684 36.276-10.656 22.172-7.66 48.488 7.708 67.704l940.816 1176.020h-890.84c-35.344 0-64 28.656-64 64s28.656 64 64 64h1024c24.6 0 47.028-14.1 57.684-36.276s7.66-48.496-7.708-67.704l-940.816-1176.020h890.84c35.348 0 64-28.652 64-64s-28.652-64-64-64z" />
<glyph unicode="&#x5b;" glyph-name="uni5B" horiz-adv-x="640" d="M448-128h-256c-35.344 0-64 28.652-64 64v1920c0 35.344 28.656 64 64 64h256c35.348 0 64-28.656 64-64s-28.652-64-64-64h-192v-1792h192c35.348 0 64-28.652 64-64s-28.652-64-64-64z" />
<glyph unicode="&#x5c;" glyph-name="uni5C" horiz-adv-x="1152" d="M960.020-128.016c7.916 0 15.952 1.476 23.752 4.592 32.82 13.124 48.78 50.372 35.652 83.192l-768 1920c-13.124 32.82-50.368 48.788-83.192 35.652-32.816-13.128-48.78-50.372-35.652-83.192l768-1920c10.004-25.020 34.040-40.244 59.44-40.244z" />
<glyph unicode="&#x5d;" glyph-name="uni5D" horiz-adv-x="640" d="M192-128h256c35.344 0 64 28.652 64 64v1920c0 35.344-28.656 64-64 64h-256c-35.348 0-64-28.656-64-64s28.652-64 64-64h192v-1792h-192c-35.348 0-64-28.652-64-64s28.652-64 64-64z" />
<glyph unicode="&#x5e;" glyph-name="uni5E" horiz-adv-x="1152" d="M960.052 1023.996c-19.46 0-38.676 8.836-51.248 25.604l-332.804 443.732-332.8-443.732c-21.208-28.276-61.324-34.008-89.6-12.8s-34.008 61.324-12.8 89.6l384 512c12.084 16.116 31.056 25.6 51.2 25.6s39.112-9.484 51.2-25.6l384-512c21.208-28.276 15.476-68.392-12.8-89.6-11.512-8.632-24.988-12.8-38.348-12.804z" />
<glyph unicode="&#x5f;" glyph-name="uni5F" horiz-adv-x="1024" d="M960 128h-896c-35.344 0-64-28.652-64-64s28.656-64 64-64h896c35.348 0 64 28.652 64 64s-28.652 64-64 64z" />
<glyph unicode="&#x60;" glyph-name="uni60" horiz-adv-x="640" d="M448.060 1279.996c-20.68 0-40.976 10.004-53.312 28.504l-256 384c-19.604 29.408-11.66 69.144 17.752 88.752 29.408 19.608 69.144 11.66 88.752-17.752l256-384c19.604-29.408 11.66-69.144-17.752-88.752-10.912-7.272-23.244-10.752-35.44-10.752z" />
<glyph unicode="&#x61;" glyph-name="uni61" horiz-adv-x="1152" d="M897.92 1214.272c-71.748 44.844-174.036 65.728-321.92 65.728-123.692 0-213.28-14.18-281.94-44.62-32.312-14.328-46.892-52.136-32.568-84.448 14.328-32.312 52.128-46.888 84.448-32.568 51.048 22.636 126.304 33.636 230.060 33.636 267.636 0 320-70.4 320-192v-101.244c-64.852 26.624-161.864 37.244-320 37.244-138.664 0-247.756-26.668-324.256-79.256-80.956-55.66-123.744-138.908-123.744-240.744s42.788-185.084 123.744-240.74c76.5-52.592 185.592-79.26 324.256-79.26 162.212 0 260.092 11.172 324.936 39.332 9.656-23.096 32.464-39.332 59.064-39.332 35.348 0 64 28.652 64 64v640c0 116.436-42.416 201.984-126.080 254.272zM871.028 425.168c-44.276-36.904-189.584-41.168-295.028-41.168-110.7 0-197.752 19.616-251.744 56.744-45.928 31.572-68.256 75.82-68.256 135.256s22.328 103.684 68.256 135.256c53.992 37.128 141.044 56.744 251.744 56.744 105.444 0 250.752-4.264 295.028-41.168 22.82-19.016 24.972-56.464 24.972-150.832s-2.152-131.816-24.972-150.832z" />
<glyph unicode="&#x62;" glyph-name="uni62" horiz-adv-x="1280" d="M1029.248 1157.256c-83.736 83.74-207.424 122.744-389.248 122.744-178.080 0-300.364-37.44-384-117.652v437.652c0 35.344-28.656 64-64 64s-64-28.656-64-64v-1280c0-35.348 28.656-64 64-64s64 28.652 64 64v53.652c83.636-80.212 205.92-117.652 384-117.652 181.824 0 305.512 39.004 389.248 122.752 83.744 83.74 122.752 207.424 122.752 389.248s-39.004 305.512-122.752 389.256zM938.752 469.248c-58.168-58.164-153.1-85.248-298.752-85.248s-240.58 27.084-298.744 85.248c-58.172 58.168-85.256 153.1-85.256 298.752s27.084 240.58 85.256 298.744c58.164 58.168 153.092 85.256 298.744 85.256s240.584-27.088 298.752-85.256c58.16-58.164 85.248-153.092 85.248-298.744s-27.088-240.584-85.248-298.752z" />
<glyph unicode="&#x63;" glyph-name="uni63" horiz-adv-x="1152" d="M640 256c-181.824 0-305.512 39.004-389.256 122.752-83.74 83.736-122.744 207.424-122.744 389.248s39.004 305.512 122.744 389.256c83.744 83.74 207.432 122.744 389.256 122.744 162.272 0 276.584-30.656 359.744-96.476 27.724-21.936 32.412-62.188 10.464-89.904-21.94-27.716-62.192-32.4-89.904-10.464-58.532 46.324-150.22 68.844-280.304 68.844-145.652 0-240.58-27.088-298.744-85.256-58.168-58.164-85.256-153.092-85.256-298.744s27.088-240.584 85.256-298.752c58.164-58.164 153.092-85.248 298.744-85.248 130.084 0 221.756 22.516 280.28 68.828 27.716 21.944 67.96 17.248 89.904-10.464 21.94-27.712 17.248-67.964-10.464-89.904-83.148-65.808-197.456-96.46-359.72-96.46z" />
<glyph unicode="&#x64;" glyph-name="uni64" horiz-adv-x="1280" d="M1088 1664c-35.348 0-64-28.656-64-64v-437.656c-83.636 80.216-205.92 117.656-384 117.656-181.824 0-305.512-39.004-389.256-122.744-83.74-83.744-122.744-207.432-122.744-389.256s39.004-305.512 122.744-389.248c83.744-83.748 207.432-122.752 389.256-122.752 178.080 0 300.364 37.44 384 117.656v-53.656c0-35.348 28.652-64 64-64s64 28.652 64 64v1280c0 35.344-28.652 64-64 64zM938.752 469.248c-58.168-58.164-153.1-85.248-298.752-85.248s-240.58 27.084-298.744 85.248c-58.168 58.168-85.256 153.1-85.256 298.752s27.088 240.58 85.256 298.744c58.164 58.168 153.092 85.256 298.744 85.256s240.584-27.088 298.752-85.256c58.164-58.164 85.248-153.092 85.248-298.744s-27.084-240.584-85.248-298.752z" />
<glyph unicode="&#x65;" glyph-name="uni65" horiz-adv-x="1280" d="M640 256c-210.448 0-338.696 38.7-415.832 125.48-79.816 89.784-96.168 219.448-96.168 386.52 0 181.824 39.004 305.512 122.748 389.256 83.74 83.74 207.428 122.744 389.252 122.744 168.864 0 286.436-33.348 370.028-104.948 84.584-72.448 130.364-183.368 139.968-339.1 1.084-17.624-5.156-34.916-17.248-47.78-12.096-12.864-28.968-20.16-46.632-20.16l-830.116-0.012c0-163.128 18.496-250.472 63.832-301.48 50.732-57.076 149.472-82.52 320.168-82.52 233.58 0 299.976 51.916 331.728 97.152 20.304 28.924 60.22 35.916 89.156 15.612 28.924-20.304 35.916-60.228 15.608-89.156-74.592-106.264-205.132-151.608-436.492-151.608zM640 1152c-145.652 0-240.58-27.088-298.748-85.256-38.992-38.992-64.016-94.508-76.28-170.744l749.964 0.008c-13.444 83.724-42.084 142.344-88.18 181.832-58.256 49.904-152.052 74.16-286.756 74.16z" />
<glyph unicode="&#x66;" glyph-name="uni66" horiz-adv-x="768" d="M576 1280h-318.904c4.108 110.164 20.076 170.66 52.16 202.744 37.824 37.828 115.108 53.256 266.744 53.256 35.348 0 64 28.656 64 64s-28.652 64-64 64c-164.536 0-281.688-15.18-357.256-90.744-75.564-75.568-90.744-192.72-90.744-357.256v-896c0-35.348 28.656-64 64-64s64 28.652 64 64v832h320c35.348 0 64 28.656 64 64s-28.652 64-64 64z" />
<glyph unicode="&#x67;" glyph-name="uni67" horiz-adv-x="1280" d="M1088 1280c-35.348 0-64-28.656-64-64v-53.656c-83.636 80.216-205.92 117.656-384 117.656-181.824 0-305.512-39.004-389.256-122.744-83.74-83.744-122.744-207.432-122.744-389.256s39.004-305.512 122.744-389.248c83.744-83.748 207.432-122.752 389.256-122.752 178.080 0 300.364 37.44 384 117.656v-115.656c0-63.812 0-258-384-258-164.28 0-277.008 34.948-335.048 103.876-22.756 27.048-63.132 30.5-90.172 7.744-27.040-22.764-30.5-63.14-7.736-90.176 83.484-99.168 229.152-149.444 432.956-149.444 167.928 0 296.924 34.256 383.404 101.816 85.332 66.664 128.596 162.276 128.596 284.184v958c0 35.344-28.652 64-64 64zM938.752 469.248c-58.168-58.164-153.1-85.248-298.752-85.248s-240.58 27.084-298.744 85.248c-58.172 58.168-85.256 153.1-85.256 298.752s27.084 240.58 85.256 298.744c58.164 58.168 153.092 85.256 298.744 85.256s240.584-27.088 298.752-85.256c58.16-58.164 85.248-153.092 85.248-298.744s-27.088-240.584-85.248-298.752z" />
<glyph unicode="&#x68;" glyph-name="uni68" horiz-adv-x="1152" d="M919.444 1153.652c-72.864 85.016-185.208 126.348-343.444 126.348-142.164 0-247.264-33.388-320-101.824v421.824c0 35.344-28.656 64-64 64s-64-28.656-64-64v-1280c0-35.348 28.656-64 64-64s64 28.652 64 64v448c0 145.564 24.12 244.464 73.736 302.348 47.748 55.708 126 81.652 246.264 81.652s198.516-25.944 246.264-81.652c49.62-57.884 73.736-156.784 73.736-302.348v-448c0-35.348 28.652-64 64-64s64 28.652 64 64v448c0 179.892-33.228 302.432-104.556 385.652z" />
<glyph unicode="&#x69;" glyph-name="uni69" horiz-adv-x="384" d="M192 256c-35.344 0-64 28.652-64 64v896c0 35.344 28.656 64 64 64 35.348 0 64-28.656 64-64v-896c0-35.348-28.652-64-64-64zM192 1408c-35.344 0-64 28.656-64 64v128c0 35.344 28.656 64 64 64 35.348 0 64-28.656 64-64v-128c0-35.344-28.652-64-64-64z" />
<glyph unicode="&#x6a;" glyph-name="uni6A" horiz-adv-x="512" d="M-64.056-126.336c-33.744 0-61.98 26.4-63.848 60.5-1.932 35.292 25.108 65.468 60.404 67.408 122.352 6.7 204.448 35.26 250.98 87.312 49.476 55.348 72.52 149.12 72.52 295.116v832c0 35.344 28.652 64 64 64s64-28.656 64-64v-832c0-179.34-33.396-300.224-105.092-380.424-71.324-79.784-179.172-121.036-339.404-129.812-1.192-0.068-2.38-0.1-3.56-0.1zM320 1408c-35.348 0-64 28.656-64 64v128c0 35.344 28.652 64 64 64s64-28.656 64-64v-128c0-35.344-28.652-64-64-64z" />
<glyph unicode="&#x6b;" glyph-name="uni6B" horiz-adv-x="896" d="M404.504 825.996l344.752 344.748c24.992 24.996 24.992 65.516 0 90.512-24.992 24.992-65.516 24.992-90.508 0l-402.748-402.748v741.492c0 35.344-28.652 64-64 64-35.344 0-64-28.656-64-64v-1280c0-35.348 28.656-64 64-64 35.348 0 64 28.652 64 64v490.664l396.8-529.064c12.576-16.764 31.784-25.604 51.248-25.604 13.36 0 26.836 4.172 38.352 12.804 28.272 21.208 34.008 61.32 12.796 89.596l-350.692 467.6z" />
<glyph unicode="&#x6c;" glyph-name="uni6C" horiz-adv-x="384" d="M320 384v0.024c-6.356 0.3-23.476 2.6-37.756 10.468-12.98 7.144-26.244 19.092-26.244 53.508v1152c0 35.344-28.652 64-64 64-35.344 0-64-28.656-64-64v-1152c0-140.868 114.82-192 192-192 35.348 0 64 28.652 64 64s-28.652 64-64 64z" />
<glyph unicode="&#x6d;" glyph-name="uni6D" horiz-adv-x="1920" d="M1687.448 1153.652c-72.872 85.020-185.216 126.348-343.448 126.348-158.236 0-270.58-41.328-343.444-126.348-15.248-17.788-28.744-37.392-40.556-58.948-11.812 21.56-25.304 41.16-40.552 58.948-72.872 85.020-185.216 126.348-343.448 126.348-142.164 0-247.264-33.384-320-101.824v37.824c0 35.344-28.656 64-64 64s-64-28.656-64-64v-896c0-35.348 28.656-64 64-64s64 28.652 64 64v448c0 145.564 24.12 244.464 73.736 302.348 47.748 55.708 126 81.652 246.264 81.652 120.26 0 198.516-25.944 246.26-81.652 49.62-57.884 73.74-156.784 73.74-302.348v-448c0-35.348 28.652-64 64-64s64 28.652 64 64v448c0 145.564 24.116 244.464 73.744 302.348 47.74 55.708 126 81.652 246.256 81.652 120.26 0 198.516-25.944 246.26-81.652 49.62-57.884 73.74-156.784 73.74-302.348v-448c0-35.348 28.652-64 64-64s64 28.652 64 64v448c0 179.892-33.224 302.432-104.552 385.652z" />
<glyph unicode="&#x6e;" glyph-name="uni6E" horiz-adv-x="1152" d="M919.444 1153.652c-72.864 85.020-185.208 126.348-343.444 126.348-142.164 0-247.264-33.384-320-101.824v37.824c0 35.344-28.656 64-64 64s-64-28.656-64-64v-896c0-35.348 28.656-64 64-64s64 28.652 64 64v448c0 145.564 24.12 244.464 73.736 302.348 47.748 55.708 126 81.652 246.264 81.652 120.256 0 198.516-25.944 246.256-81.652 49.628-57.884 73.744-156.784 73.744-302.348v-448c0-35.348 28.652-64 64-64s64 28.652 64 64v448c0 179.892-33.228 302.432-104.556 385.652z" />
<glyph unicode="&#x6f;" glyph-name="uni6F" horiz-adv-x="1280" d="M640 256c-181.824 0-305.512 39.004-389.256 122.752-83.74 83.736-122.744 207.424-122.744 389.248s39.004 305.512 122.744 389.256c83.744 83.74 207.432 122.744 389.256 122.744s305.512-39.004 389.248-122.744c83.748-83.744 122.752-207.432 122.752-389.256s-39.004-305.512-122.752-389.248c-83.74-83.744-207.424-122.752-389.248-122.752zM640 1152c-145.652 0-240.58-27.088-298.744-85.256-58.172-58.164-85.256-153.092-85.256-298.744s27.084-240.584 85.256-298.752c58.164-58.164 153.092-85.248 298.744-85.248s240.584 27.084 298.752 85.248 85.248 153.1 85.248 298.752-27.088 240.58-85.248 298.744c-58.168 58.168-153.1 85.256-298.752 85.256z" />
<glyph unicode="&#x70;" glyph-name="uni70" horiz-adv-x="1280" d="M1029.248 1157.256c-83.736 83.74-207.424 122.744-389.248 122.744-178.076 0-300.364-37.44-384-117.652v53.652c0 35.344-28.656 64-64 64s-64-28.656-64-64v-1280c0-35.348 28.656-64 64-64s64 28.652 64 64v437.652c83.636-80.212 205.924-117.652 384-117.652 181.824 0 305.512 39.004 389.248 122.752 83.744 83.74 122.752 207.424 122.752 389.248s-39.004 305.512-122.752 389.256zM938.752 469.248c-58.168-58.164-153.1-85.248-298.752-85.248s-240.58 27.084-298.744 85.248c-58.168 58.168-85.256 153.1-85.256 298.752s27.088 240.58 85.256 298.744c58.164 58.168 153.092 85.256 298.744 85.256s240.584-27.088 298.752-85.256c58.164-58.164 85.248-153.092 85.248-298.744s-27.084-240.584-85.248-298.752z" />
<glyph unicode="&#x71;" glyph-name="uni71" horiz-adv-x="1280" d="M1088 1280c-35.348 0-64-28.656-64-64v-53.656c-83.636 80.216-205.92 117.656-384 117.656-181.824 0-305.512-39.004-389.256-122.744-83.74-83.744-122.744-207.432-122.744-389.256s39.004-305.512 122.744-389.248c83.744-83.748 207.432-122.752 389.256-122.752 178.080 0 300.36 37.44 384 117.656v-437.656c0-35.348 28.652-64 64-64s64 28.652 64 64v1280c0 35.344-28.652 64-64 64zM938.752 469.248c-58.168-58.164-153.1-85.248-298.752-85.248s-240.58 27.084-298.748 85.248c-58.16 58.168-85.252 153.1-85.252 298.752s27.088 240.58 85.252 298.744c58.168 58.168 153.096 85.256 298.748 85.256s240.58-27.088 298.744-85.252c58.172-58.168 85.256-153.096 85.256-298.748s-27.084-240.584-85.248-298.752z" />
<glyph unicode="&#x72;" glyph-name="uni72" horiz-adv-x="768" d="M576 1280c-142.164 0-247.264-33.388-320-101.824v37.824c0 35.344-28.656 64-64 64s-64-28.656-64-64v-896c0-35.348 28.656-64 64-64s64 28.652 64 64v448c0 145.564 24.12 244.464 73.736 302.348 47.748 55.708 126 81.652 246.264 81.652 35.348 0 64 28.656 64 64s-28.652 64-64 64z" />
<glyph unicode="&#x73;" glyph-name="uni73" horiz-adv-x="1024" d="M512 256c-150.132 0-294.58 76.068-365.256 146.752-24.992 24.992-24.992 65.516 0 90.508 24.996 24.992 65.516 24.992 90.512 0 54.292-54.3 166.096-109.26 274.744-109.26 96.944 0 170.52 20.464 212.752 59.18 35.744 32.756 43.248 72.904 43.248 100.82 0 87.704-102.58 119.676-271.52 161.916-82.62 20.656-168.052 42.008-235.32 79.008-88.36 48.596-133.16 118.264-133.16 207.076 0 139.228 100.876 288 384 288 152.86 0 296.008-76.012 358.416-151.096 22.592-27.184 18.88-67.536-8.312-90.128-27.18-22.592-67.532-18.868-90.116 8.312-41.94 50.456-153.26 104.912-259.988 104.912-96.952 0-170.52-20.464-212.752-59.176-35.744-32.768-43.248-72.912-43.248-100.824 0-87.7 102.58-119.676 271.52-161.916 82.62-20.656 168.052-42.008 235.324-79.008 88.356-48.596 133.156-118.264 133.156-207.076 0-139.228-100.884-288-384-288z" />
<glyph unicode="&#x74;" glyph-name="uni74" horiz-adv-x="768" d="M576 384c-151.64 0-228.92 15.428-266.744 53.252-37.828 37.832-53.256 115.112-53.256 266.748v448h320c35.348 0 64 28.656 64 64s-28.652 64-64 64h-320v320c0 35.344-28.656 64-64 64s-64-28.656-64-64v-896c0-164.536 15.18-281.692 90.744-357.252 75.568-75.568 192.72-90.748 357.256-90.748 35.348 0 64 28.652 64 64s-28.652 64-64 64z" />
<glyph unicode="&#x75;" glyph-name="uni75" horiz-adv-x="1152" d="M960 1280c-35.348 0-64-28.656-64-64v-448c0-145.564-24.116-244.464-73.744-302.348-47.74-55.708-126-81.652-246.256-81.652-120.264 0-198.516 25.944-246.264 81.652-49.616 57.884-73.736 156.784-73.736 302.348v448c0 35.344-28.656 64-64 64s-64-28.656-64-64v-448c0-179.892 33.224-302.428 104.552-385.652 72.876-85.020 185.216-126.348 343.448-126.348 142.164 0 247.264 33.388 320 101.82v-37.82c0-35.348 28.652-64 64-64s64 28.652 64 64v896c0 35.344-28.652 64-64 64z" />
<glyph unicode="&#x76;" glyph-name="uni76" horiz-adv-x="1152" d="M576 256c-25.6 0-48.744 15.256-58.824 38.788l-384 896c-13.92 32.488 1.128 70.112 33.616 84.036 32.492 13.916 70.112-1.128 84.036-33.616l325.172-758.74 325.176 758.744c13.916 32.488 51.532 47.544 84.036 33.616 32.488-13.924 47.54-51.548 33.612-84.036l-384-896c-10.080-23.536-33.224-38.792-58.824-38.792z" />
<glyph unicode="&#x77;" glyph-name="uni77" horiz-adv-x="1920" d="M1753.212 1274.828c-32.504 13.928-70.104-1.128-84.036-33.616l-325.176-758.744-325.228 758.724c-6.248 14.58-17.836 26.896-33.576 33.636-32.504 13.928-70.116-1.128-84.036-33.616l-325.16-758.744-325.172 758.744c-13.924 32.488-51.548 47.532-84.036 33.616-32.488-13.924-47.536-51.548-33.616-84.036l384-896c10.084-23.536 33.224-38.792 58.824-38.792s48.744 15.256 58.824 38.788l325.176 758.744 325.176-758.744c10.080-23.532 33.224-38.788 58.824-38.788s48.744 15.256 58.824 38.788l384 896c13.928 32.488-1.124 70.116-33.612 84.040z" />
<glyph unicode="&#x78;" glyph-name="uni78" horiz-adv-x="1152" d="M660.292 768l348.3 406.348c23 26.836 19.896 67.24-6.94 90.244-26.84 23.012-67.248 19.892-90.248-6.94l-335.404-391.308-335.408 391.308c-23.004 26.836-63.412 29.944-90.244 6.94-26.836-23-29.944-63.408-6.94-90.244l348.3-406.348-348.3-406.348c-23.004-26.84-19.896-67.248 6.94-90.248 12.072-10.344 26.88-15.408 41.62-15.408 18.032 0 35.964 7.584 48.62 22.348l335.412 391.312 335.408-391.308c12.664-14.756 30.584-22.348 48.624-22.348 14.744 0 29.556 5.064 41.62 15.408 26.836 23.004 29.94 63.416 6.94 90.248l-348.3 406.344z" />
<glyph unicode="&#x79;" glyph-name="uni79" horiz-adv-x="1152" d="M985.212 1274.828c-32.504 13.928-70.116-1.128-84.036-33.616l-325.176-758.744-325.172 758.744c-13.924 32.488-51.548 47.532-84.036 33.616-32.488-13.924-47.536-51.548-33.616-84.036l373.16-870.708c-127.54-293.864-170.168-320.084-314.336-320.084-35.344 0-64-28.652-64-64s28.656-64 64-64c87.744 0 179.76 11.052 258.288 91.216 63.416 64.744 113.776 166.472 184.54 331.584l384 896c13.924 32.476-1.128 70.104-33.616 84.028z" />
<glyph unicode="&#x7a;" glyph-name="uni7A" horiz-adv-x="1152" d="M960 256h-768c-24.996 0-47.7 14.552-58.144 37.256s-6.712 49.416 9.552 68.396l677.444 790.348h-628.852c-35.344 0-64 28.656-64 64s28.656 64 64 64h768c24.992 0 47.7-14.552 58.144-37.256 10.44-22.704 6.716-49.416-9.552-68.392l-677.44-790.352h628.848c35.348 0 64-28.652 64-64s-28.652-64-64-64z" />
<glyph unicode="&#x7b;" glyph-name="uni7B" horiz-adv-x="896" d="M704 0h-64c-70.58 0-128 57.42-128 128v640c0 76.408-33.688 145.052-86.944 192 53.256 46.948 86.944 115.592 86.944 192v512c0 70.58 57.42 128 128 128h64c35.348 0 64 28.656 64 64s-28.652 64-64 64h-64c-141.16 0-256-114.84-256-256v-512c0-70.58-57.42-128-128-128h-64c-35.344 0-64-28.656-64-64s28.656-64 64-64h64c70.58 0 128-57.42 128-128v-640c0-141.16 114.84-256 256-256h64c35.348 0 64 28.652 64 64s-28.652 64-64 64z" />
<glyph unicode="&#x7c;" glyph-name="uni7C" horiz-adv-x="384" d="M192-128c-35.344 0-64 28.652-64 64v1920c0 35.344 28.656 64 64 64s64-28.656 64-64v-1920c0-35.348-28.652-64-64-64z" />
<glyph unicode="&#x7d;" glyph-name="uni7D" horiz-adv-x="896" d="M192 0h64c70.58 0 128 57.42 128 128v640c0 76.408 33.688 145.052 86.944 192-53.256 46.948-86.944 115.592-86.944 192v512c0 70.58-57.42 128-128 128h-64c-35.348 0-64 28.656-64 64s28.652 64 64 64h64c141.16 0 256-114.84 256-256v-512c0-70.58 57.42-128 128-128h64c35.344 0 64-28.656 64-64s-28.656-64-64-64h-64c-70.58 0-128-57.42-128-128v-640c0-141.16-114.84-256-256-256h-64c-35.348 0-64 28.652-64 64s28.652 64 64 64z" />
<glyph unicode="&#x7e;" glyph-name="uni7E" horiz-adv-x="1280" d="M191.996 639.984c-7.26 0-14.648 1.244-21.868 3.868-33.22 12.084-50.356 48.8-38.276 82.020 56.928 156.56 125.028 242.6 214.304 270.768 117.352 37.020 230.616-42.26 330.548-112.212 79.388-55.576 161.48-113.008 218.624-95.004 46.224 14.584 92.048 81.132 132.524 192.444 12.084 33.216 48.804 50.348 82.020 38.276 33.22-12.080 50.356-48.8 38.276-82.016-56.932-156.56-125.028-242.596-214.304-270.768-20.636-6.512-41.156-9.424-61.488-9.424-95.296-0.008-186.7 63.984-269.060 121.636-79.388 55.572-161.484 113.012-218.624 95.004-46.224-14.584-92.048-81.132-132.528-192.444-9.452-26.004-34-42.148-60.148-42.148z" />
<glyph unicode="&#xa9;" glyph-name="uniA9" horiz-adv-x="1664" d="M832 640c-117.92 0-193.564 23.052-245.256 74.748-51.692 51.688-74.744 127.332-74.744 245.252s23.052 193.564 74.744 245.256c51.696 51.692 127.336 74.744 245.256 74.744 116.18 0 255.528-19.708 302.22-173.396 10.276-33.82-8.808-69.568-42.628-79.84-33.808-10.28-69.568 8.808-79.84 42.632-13.736 45.192-36.736 82.604-179.752 82.604-80.156 0-129.328-11.836-154.748-37.256-25.412-25.416-37.252-74.588-37.252-154.744s11.84-129.328 37.252-154.748c25.42-25.412 74.592-37.252 154.748-37.252 143.008 0 166.012 37.412 179.748 82.6 10.276 33.82 46.028 52.892 79.844 42.624 33.816-10.276 52.904-46.024 42.624-79.844-46.7-153.672-186.040-173.38-302.216-173.38zM832 256c-243.932 0-418.36 55.852-533.256 170.748-114.892 114.892-170.744 289.32-170.744 533.252s55.852 418.36 170.744 533.256c114.896 114.892 289.324 170.744 533.256 170.744s418.36-55.852 533.252-170.744c114.896-114.896 170.748-289.324 170.748-533.256s-55.852-418.36-170.748-533.252-289.316-170.748-533.252-170.748zM832 1536c-208.256 0-353.080-43.588-442.744-133.256-89.668-89.664-133.256-234.488-133.256-442.744 0-208.252 43.588-353.080 133.256-442.748 89.668-89.664 234.488-133.252 442.744-133.252 208.252 0 353.080 43.588 442.748 133.252 89.664 89.668 133.252 234.496 133.252 442.748 0 208.256-43.588 353.080-133.252 442.744-89.668 89.668-234.492 133.256-442.748 133.256z" />
<glyph unicode="&#xe900;" glyph-name="home" data-tags="home, house" d="M2048 739.112l-1024 794.852-1024-794.856v324.076l1024 794.852 1024-794.856zM1792 768v-768h-512v512h-512v-512h-512v768l768 576z" />
<glyph unicode="&#xe901;" glyph-name="home2" data-tags="home, house" d="M1024 1856l-1024-1024 192-192 192 192v-832h512v384h256v-384h512v832l192-192 192 192-1024 1024zM1024 1024c-70.692 0-128 57.308-128 128s57.308 128 128 128c70.692 0 128-57.308 128-128s-57.308-128-128-128z" />
<glyph unicode="&#xe902;" glyph-name="home3" data-tags="home, house" d="M2048 704l-384 384v576h-256v-320l-384 384-1024-1024v-64h256v-640h640v384h256v-384h640v640h256z" />
<glyph unicode="&#xe903;" glyph-name="office" data-tags="office, buildings, work" d="M0-128h1024v2048h-1024v-2048zM640 1664h256v-256h-256v256zM640 1152h256v-256h-256v256zM640 640h256v-256h-256v256zM128 1664h256v-256h-256v256zM128 1152h256v-256h-256v256zM128 640h256v-256h-256v256zM1152 1280h896v-128h-896zM1152-128h256v512h384v-512h256v1152h-896z" />
<glyph unicode="&#xe904;" glyph-name="newspaper" data-tags="newspaper, news, paper" d="M1792 1408v256h-1792v-1408c0-70.692 57.308-128 128-128h1728c106.044 0 192 85.956 192 192v1088h-256zM1664 256h-1536v1280h1536v-1280zM256 1280h1280v-128h-1280zM1024 1024h512v-128h-512zM1024 768h512v-128h-512zM1024 512h384v-128h-384zM256 1024h640v-640h-640z" />
<glyph unicode="&#xe905;" glyph-name="pencil" data-tags="pencil, write, edit" d="M1728 1920c176.728 0 320-143.268 320-320 0-72.040-23.82-138.516-64-192l-128-128-448 448 128 128c53.484 40.18 119.956 64 192 64zM128 448l-128-576 576 128 1184 1184-448 448-1184-1184zM1431.156 1192.844l-896-896-110.312 110.312 896 896 110.312-110.312z" />
<glyph unicode="&#xe906;" glyph-name="pencil2" data-tags="pencil, write, edit" d="M768 640l256 128 896 896-128 128-896-896-128-256zM578.6 185.804c-63.264 133.456-131.332 201.524-264.792 264.788l198.192 545.584 256 155.824 768 768h-384l-768-768-384-1280 1280 384 768 768v384l-768-768-155.824-256z" />
<glyph unicode="&#xe907;" glyph-name="quill" data-tags="quill, feather, write, edit" d="M0-128c256 768 926 2048 2048 2048-526-422-768-1408-1152-1408s-384 0-384 0l-384-640h-128z" />
<glyph unicode="&#xe908;" glyph-name="pen" data-tags="pen, write, edit" d="M2036.34 1336.22l-572.116 572.116c-18.668 18.668-43.288 14.468-54.712-9.332l-76.708-159.808 534.396-534.396 159.808 76.708c23.8 11.424 28 36.044 9.332 54.712zM1230.768 1649.232l-526.768-43.9c-35-4.332-64.16-11.796-74.18-57.504-0.012-0.048-0.024-0.084-0.036-0.132-142.844-686.14-629.784-1355.696-629.784-1355.696l114.748-114.748 543.972 543.98c-11.992 25.060-18.72 53.128-18.72 82.768 0 106.040 85.96 192 192 192s192-85.96 192-192-85.96-192-192-192c-29.64 0-57.704 6.728-82.768 18.72l-543.976-543.972 114.744-114.748c0 0 669.556 486.94 1355.696 629.784 0.048 0.012 0.084 0.024 0.132 0.036 45.708 10.020 53.172 39.18 57.504 74.18l43.9 526.768-546.464 546.464z" />
<glyph unicode="&#xe909;" glyph-name="blog" data-tags="blog, pen, feed, publish, broadcast, write" d="M768 1920v-192c146.964 0 289.424-28.74 423.432-85.42 129.536-54.788 245.916-133.264 345.896-233.248s178.456-216.36 233.248-345.896c56.684-134.008 85.424-276.476 85.424-423.436h192c0 706.92-573.080 1280-1280 1280zM768 1536v-192c188.044 0 364.836-73.228 497.8-206.196 132.972-132.968 206.2-309.756 206.2-497.804h192c0 494.844-401.152 896-896 896zM960 1152l-128-128-448-128-384-832 50.748-50.748 465.608 465.608c-2.824 10.572-4.356 21.68-4.356 33.14 0 70.692 57.308 128 128 128s128-57.308 128-128-57.308-128-128-128c-11.464 0-22.564 1.528-33.136 4.356l-465.608-465.608 50.744-50.748 832 384 128 448 128 128-320 320z" />
<glyph unicode="&#xe90a;" glyph-name="eyedropper" data-tags="eyedropper, color, color-picker, sample" d="M1973.020 1845.020c-99.976 99.972-262.064 99.972-362.040 0l-344.236-344.236-242.744 242.744-271.528-271.528 212.852-212.852-944.236-944.236c-16.096-16.096-22.936-37.916-20.6-58.912h-0.488v-320c0-35.348 28.656-64 64-64h320c0 0 5.328 0 8 0 18.424 0 36.852 7.032 50.912 21.088l944.236 944.236 212.852-212.852 271.528 271.528-242.744 242.744 344.236 344.236c99.972 99.976 99.972 262.064 0 362.040zM346.18 0h-218.18v218.18l939.148 939.144 218.176-218.176-939.144-939.148z" />
<glyph unicode="&#xe90b;" glyph-name="droplet" data-tags="droplet, color, water" d="M1729.252 973.676c-131.508 366.88-410.22 696.3-705.252 946.324-295.032-250.024-573.74-579.444-705.252-946.324-81.328-226.872-89.364-473.124 25.168-690.8 131.692-250.28 397.264-410.876 680.084-410.876s548.392 160.596 680.080 410.88c114.54 217.676 106.5 463.924 25.172 690.796zM1477.528 402.088c-87.604-166.504-265.624-274.088-453.528-274.088-110.24 0-217.048 37.072-304.224 101.304 26.484-3.448 53.264-5.304 80.224-5.304 234.852 0 457.336 134.428 566.804 342.484 89.756 170.584 81.956 347.696 47.764 488.676 29.116-56.3 53.812-112.396 73.696-167.864 45.212-126.124 80.048-312.68-10.736-485.208z" />
<glyph unicode="&#xe90c;" glyph-name="paint-format" data-tags="paint-format, format, color" d="M2048 768v768h-384v128c0 70.4-57.6 128-128 128h-1408c-70.4 0-128-57.6-128-128v-384c0-70.4 57.6-128 128-128h1408c70.4 0 128 57.6 128 128v128h256v-512h-1152v-256h-64c-35.348 0-64-28.652-64-64v-640c0-35.348 28.652-64 64-64h256c35.348 0 64 28.652 64 64v640c0 35.348-28.652 64-64 64h-64v128h1152zM1536 1536h-1408v128h1408v-128z" />
<glyph unicode="&#xe90d;" glyph-name="image" data-tags="image, picture, photo, graphic" d="M1919.768 1664c0.080-0.068 0.164-0.152 0.232-0.232v-1535.54c-0.068-0.080-0.152-0.164-0.232-0.232h-1791.54c-0.080 0.068-0.164 0.152-0.228 0.232v1535.544c0.068 0.080 0.152 0.164 0.228 0.228h1791.54zM1920 1792h-1792c-70.4 0-128-57.6-128-128v-1536c0-70.4 57.6-128 128-128h1792c70.4 0 128 57.6 128 128v1536c0 70.4-57.6 128-128 128v0zM1664 1344c0-106.040-85.96-192-192-192s-192 85.96-192 192 85.96 192 192 192 192-85.96 192-192zM1792 256h-1536v256l448 768 512-640h128l448 384z" />
<glyph unicode="&#xe90e;" glyph-name="images" data-tags="images, pictures, photos, graphics" horiz-adv-x="2304" d="M2176 1664h-128v128c0 70.4-57.6 128-128 128h-1792c-70.4 0-128-57.6-128-128v-1536c0-70.4 57.6-128 128-128h128v-128c0-70.4 57.6-128 128-128h1792c70.4 0 128 57.6 128 128v1536c0 70.4-57.6 128-128 128zM256 1536v-1280h-127.772c-0.080 0.068-0.164 0.152-0.228 0.232v1535.54c0.068 0.080 0.152 0.164 0.228 0.228h1791.54c0.080-0.068 0.164-0.152 0.232-0.232v-127.768h-1536c-70.4 0-128-57.6-128-128v0zM2176 0.232c-0.068-0.080-0.152-0.164-0.232-0.232h-1791.54c-0.080 0.068-0.164 0.152-0.228 0.232v1535.54c0.068 0.080 0.152 0.164 0.228 0.228h1791.54c0.080-0.068 0.164-0.152 0.232-0.232v-1535.536zM1920 1216c0-106.040-85.96-192-192-192s-192 85.96-192 192 85.96 192 192 192 192-85.96 192-192zM2048 128h-1536v256l448 768 512-640h128l448 384z" />
<glyph unicode="&#xe90f;" glyph-name="camera" data-tags="camera, photo, picture, image" d="M608 704c0-229.752 186.248-416 416-416s416 186.248 416 416-186.248 416-416 416-416-186.248-416-416zM1920 1408h-448c-32 128-64 256-192 256h-512c-128 0-160-128-192-256h-448c-70.4 0-128-57.6-128-128v-1152c0-70.4 57.6-128 128-128h1792c70.4 0 128 57.6 128 128v1152c0 70.4-57.6 128-128 128zM1024 136c-313.7 0-568 254.296-568 568 0 313.7 254.3 568 568 568 313.704 0 568-254.3 568-568 0-313.704-254.292-568-568-568zM1920 1024h-256v128h256v-128z" />
<glyph unicode="&#xe910;" glyph-name="headphones" data-tags="headphones, headset, music, audio" d="M576 768h-128v-896h128c35.2 0 64 28.8 64 64v768c0 35.2-28.8 64-64 64zM1472 768c-35.204 0-64-28.8-64-64v-768c0-35.2 28.796-64 64-64h128v896h-128zM2048 896c0 565.54-458.46 1024-1024 1024s-1024-458.46-1024-1024c0-122.824 21.66-240.58 61.312-349.696-38.956-66.412-61.312-143.74-61.312-226.304 0-225.692 166.896-412.376 384-443.432v886.836c-63.828-9.132-123.328-31.684-175.508-64.756-10.784 53.436-16.492 108.728-16.492 165.352 0 459.5 372.5 832 832 832s832-372.5 832-832c0-56.628-5.66-111.936-16.44-165.392-52.2 33.092-111.708 55.696-175.56 64.836v-886.88c217.096 31.064 384 217.748 384 443.428 0 82.548-22.356 159.868-61.296 226.276 39.656 109.132 61.296 226.904 61.296 349.732z" />
<glyph unicode="&#xe911;" glyph-name="music" data-tags="music, song, audio, sound, note" d="M1920 1920h128v-1472c0-176.732-200.58-320-448-320s-448 143.268-448 320c0 176.736 200.58 320 448 320 125.368 0 238.684-36.8 320-96.080v736.080l-1024-227.556v-988.444c0-176.732-200.576-320-448-320s-448 143.268-448 320c0 176.736 200.576 320 448 320 125.368 0 238.684-36.8 320-96.080v1248.080l1152 256z" />
<glyph unicode="&#xe912;" glyph-name="play" data-tags="play, video, movie" d="M1962.376 1599.784c-287.264 41.3-604.664 64.216-938.372 64.216-333.72 0-651.112-22.916-938.388-64.216-55.060-215.452-85.616-453.5-85.616-703.784 0-250.28 30.556-488.332 85.616-703.78 287.276-41.304 604.672-64.22 938.388-64.22 333.708 0 651.104 22.916 938.372 64.22 55.064 215.448 85.624 453.5 85.624 703.78 0 250.284-30.56 488.332-85.624 703.784zM768.004 512v768l640-384-640-384z" />
<glyph unicode="&#xe913;" glyph-name="film" data-tags="film, video, movie, tape, play" d="M0 1664v-1536h2048v1536h-2048zM384 256h-256v256h256v-256zM384 768h-256v256h256v-256zM384 1280h-256v256h256v-256zM1536 256h-1024v1280h1024v-1280zM1920 256h-256v256h256v-256zM1920 768h-256v256h256v-256zM1920 1280h-256v256h256v-256zM768 1280v-768l512 384z" />
<glyph unicode="&#xe914;" glyph-name="video-camera" data-tags="video-camera, video, media, film, movie" d="M768 1344c0 176.732 143.268 320 320 320s320-143.268 320-320c0-176.732-143.268-320-320-320s-320 143.268-320 320zM0 1344c0 176.732 143.268 320 320 320s320-143.268 320-320c0-176.732-143.268-320-320-320s-320 143.268-320 320zM1536 704v192c0 70.4-57.6 128-128 128h-1280c-70.4 0-128-57.6-128-128v-640c0-70.4 57.6-128 128-128h1280c70.4 0 128 57.6 128 128v192l512-320v896l-512-320zM1280 384h-1024v384h1024v-384z" />
<glyph unicode="&#xe915;" glyph-name="dice" data-tags="dice, game, chance, luck, random, gample" d="M1728 1536h-1024c-176 0-320-144-320-320v-1024c0-176 144-320 320-320h1024c176 0 320 144 320 320v1024c0 176-144 320-320 320zM832 128c-106.040 0-192 85.96-192 192s85.96 192 192 192 192-85.96 192-192-85.96-192-192-192zM832 896c-106.040 0-192 85.96-192 192s85.96 192 192 192 192-85.96 192-192-85.96-192-192-192zM1216 512c-106.040 0-192 85.96-192 192s85.96 192 192 192 192-85.96 192-192-85.96-192-192-192zM1600 128c-106.040 0-192 85.96-192 192s85.96 192 192 192 192-85.96 192-192-85.96-192-192-192zM1600 896c-106.040 0-192 85.96-192 192s85.96 192 192 192 192-85.96 192-192-85.96-192-192-192zM1657.52 1664c-29.86 145.608-159.42 256-313.52 256h-1024c-176 0-320-144-320-320v-1024c0-154.092 110.392-283.66 256-313.52v1273.52c0 70.4 57.6 128 128 128h1273.52z" />
<glyph unicode="&#xe916;" glyph-name="pacman" data-tags="pacman, game, arcade" d="M1929.46 1562.392c-187.804 218.9-466.42 357.608-777.46 357.608-565.54 0-1024-458.46-1024-1024s458.46-1024 1024-1024c311.040 0 589.656 138.712 777.456 357.608l-649.456 666.392 649.46 666.392zM1408 1678.796c78.864 0 142.796-63.928 142.796-142.796 0-78.864-63.932-142.796-142.796-142.796s-142.796 63.932-142.796 142.796c0 78.864 63.932 142.796 142.796 142.796z" />
<glyph unicode="&#xe917;" glyph-name="spades" data-tags="spades, cards, poker" d="M1635.14 1223.7c-387.132 287.716-520.532 518.036-611.132 696.296v0c-0.008 0-0.008 0.004-0.008 0.004v-0.004c-90.592-178.26-224-408.584-611.132-696.296-660.072-490.572-38.752-1175.336 507.516-798.448-35.592-233.86-157.060-404.344-280.416-477.764v-75.488h768.064v75.48c-123.364 73.416-244.82 243.908-280.424 477.768 546.272-376.892 1167.6 307.88 507.532 798.452z" />
<glyph unicode="&#xe918;" glyph-name="clubs" data-tags="clubs, cards, poker" d="M1573.664 1134.456c-118.064 0-224.172-49.192-299.704-129.388-31.992-33.968-87.524-74.224-147.6-109.62 28.22 107.736 117.352 243.4 179.256 302.912 79.28 76.34 127.968 183.66 127.968 303 0.012 229.788-182.952 416.192-409.576 418.64-226.64-2.444-409.592-188.852-409.592-418.636 0-119.344 48.688-226.66 127.972-303 61.908-59.512 151.040-195.176 179.256-302.912-60.084 35.4-115.612 75.652-147.6 109.62-75.536 80.196-181.64 129.388-299.7 129.388-228.772 0-414.16-187.328-414.16-418.656 0-231.276 185.384-418.676 414.16-418.676 118.084 0 224.164 50.712 299.7 130.904 33.608 35.744 92.888 80.276 156.584 117.264-6.004-295.384-147.064-512.336-290.636-597.812v-75.484h768.028v75.48c-143.584 85.472-284.64 302.432-290.64 597.812 63.704-36.988 122.976-81.536 156.584-117.264 75.532-80.188 181.616-130.904 299.704-130.904 228.772 0 414.156 187.4 414.156 418.676-0.004 231.328-185.384 418.656-414.16 418.656z" />
<glyph unicode="&#xe919;" glyph-name="diamonds" data-tags="diamonds, cards, poker" d="M1024 1920l-640-1024 640-1024 640 1024z" />
<glyph unicode="&#xe91a;" glyph-name="bullhorn" data-tags="bullhorn, megaphone, announcement, advertisement, news" d="M2048 1061.488c0 401.852-117.584 727.876-262.964 730.452 0.584 0.012 1.156 0.060 1.744 0.060h-165.884c0 0-389.6-292.672-950.46-407.508-17.12-90.584-28.060-198.548-28.060-323.004s10.932-232.416 28.060-323c560.856-114.836 950.46-407.512 950.46-407.512h165.884c-0.584 0-1.156 0.048-1.744 0.064 145.392 2.576 262.964 328.596 262.964 730.448zM1729.648 441.496c-18.764 0-39.064 19.484-49.492 31.096-25.26 28.128-49.584 71.92-70.376 126.656-46.512 122.464-72.132 286.62-72.132 462.248 0 175.62 25.62 339.78 72.132 462.244 20.788 54.736 45.124 98.532 70.376 126.656 10.428 11.624 30.728 31.104 49.492 31.104 18.76 0 39.072-19.488 49.488-31.104 25.268-28.128 49.592-71.916 70.376-126.656 46.516-122.46 72.136-286.624 72.136-462.244 0-175.608-25.62-339.776-72.136-462.248-20.78-54.736-45.124-98.528-70.376-126.656-10.416-11.612-30.72-31.096-49.488-31.096zM503.624 1061.488c0 103.9 7.62 204.86 22.104 298.188-94.744-13.108-177.884-20.648-280.68-20.648-134.116 0-134.116 0-134.116 0l-110.932-189.372v-176.34l110.92-189.372c0 0 0 0 134.12 0 102.796 0 185.936-7.548 280.68-20.648-14.472 93.328-22.096 194.292-22.096 298.192zM736.3 635.656l-255.996 49.020 163.684-643.088c8.472-33.268 41.488-50.076 73.372-37.308l237.112 94.904c31.888 12.752 44.656 47.928 28.392 78.168l-246.564 458.304zM1729.648 822.54c-7.236 0-15.056 7.508-19.076 11.984-9.74 10.84-19.112 27.72-27.124 48.816-17.924 47.2-27.8 110.468-27.8 178.156s9.876 130.956 27.8 178.156c8.012 21.096 17.392 37.976 27.124 48.816 4.020 4.48 11.84 11.988 19.076 11.988 7.232 0 15.060-7.512 19.076-11.988 9.74-10.84 19.112-27.716 27.12-48.816 17.928-47.196 27.804-110.468 27.804-178.156 0-67.684-9.876-130.956-27.804-178.156-8.008-21.096-17.392-37.976-27.12-48.816-4.016-4.476-11.84-11.984-19.076-11.984z" />
<glyph unicode="&#xe91b;" glyph-name="connection" data-tags="connection, wifi, wave" horiz-adv-x="2560" d="M1280 768c211.74 0 403.74-86.132 542.804-225.196l-180.936-180.936c-92.708 92.712-220.712 150.132-361.868 150.132s-269.156-57.42-361.868-150.132l-180.936 180.936c139.064 139.064 331.064 225.196 542.804 225.196zM374.904 905.096c241.76 241.76 563.196 374.904 905.096 374.904s663.336-133.144 905.1-374.904l-181.020-181.016c-193.412 193.408-450.56 299.92-724.080 299.92-273.524 0-530.668-106.512-724.076-299.924l-181.020 181.020zM1977.568 1651.124c213.404-90.264 405.032-219.456 569.564-383.992v0l-181.016-181.016c-290.112 290.112-675.84 449.884-1086.116 449.884-410.28 0-796-159.772-1086.116-449.884l-181.020 181.020c164.536 164.532 356.164 293.724 569.568 383.988 221.008 93.476 455.704 140.876 697.568 140.876s476.556-47.4 697.568-140.876zM1152 128c0 70.692 57.308 128 128 128s128-57.308 128-128c0-70.692-57.308-128-128-128s-128 57.308-128 128z" />
<glyph unicode="&#xe91c;" glyph-name="podcast" data-tags="podcast, broadcast, live, radio, feed" d="M2048 896c0 565.54-458.46 1024-1024 1024s-1024-458.46-1024-1024c0-440.108 277.672-815.328 667.372-960.136l-27.372-63.864h768l-27.372 63.864c389.7 144.808 667.372 520.028 667.372 960.136zM973.58 650.348c-45.616 19.576-77.58 64.872-77.58 117.652 0 70.692 57.308 128 128 128s128-57.308 128-128c0-52.78-31.956-98.088-77.572-117.668l-50.428 117.668-50.42-117.652zM1076.536 645.416c116.184 24.236 203.464 127.204 203.464 250.584 0 141.388-114.612 256-256 256-141.384 0-256-114.612-256-256 0-123.384 87.324-226.244 203.52-250.456l-149.248-348.244c-182.46 78.3-310.272 259.568-310.272 470.7 0 282.768 229.232 536 512 536s512-253.232 512-536c0-211.132-127.812-392.4-310.272-470.7l-149.192 348.116zM1376.896-55.416l-147.848 344.972c252.892 85.476 434.952 324.692 434.952 606.444 0 353.46-286.536 640-640 640-353.46 0-640-286.54-640-640 0-281.752 182.060-520.968 434.952-606.444l-147.848-344.972c-319.188 136.976-542.772 454.068-542.772 823.416 0 494.664 401.004 919.668 895.668 919.668s895.668-425.004 895.668-919.668c0-369.348-223.584-686.44-542.772-823.416z" />
<glyph unicode="&#xe91d;" glyph-name="feed" data-tags="feed, wave, radio, live, broadcast" d="M768 896c0 141.384 114.616 256 256 256s256-114.616 256-256c0-141.384-114.616-256-256-256s-256 114.616-256 256zM1328.696 1458.948c199.704-108.316 335.304-319.796 335.304-562.948s-135.6-454.632-335.304-562.948c88.132 140.252 143.304 340.54 143.304 562.948s-55.172 422.696-143.304 562.948zM576 896c0-222.408 55.168-422.696 143.304-562.948-199.704 108.32-335.304 319.796-335.304 562.948s135.6 454.628 335.304 562.948c-88.136-140.252-143.304-340.54-143.304-562.948zM192 896c0-343.8 108.808-652.368 281.304-863.444-284.604 181.896-473.304 500.628-473.304 863.444s188.7 681.548 473.304 863.444c-172.496-211.076-281.304-519.644-281.304-863.444zM1574.704 1759.44c284.596-181.892 473.296-500.624 473.296-863.44s-188.7-681.548-473.296-863.44c172.488 211.072 281.296 519.64 281.296 863.44s-108.808 652.368-281.296 863.44z" />
<glyph unicode="&#xe91e;" glyph-name="mic" data-tags="mic, microphone, voice, audio" d="M960 512c176.732 0 320 143.268 320 320v768c0 176.732-143.268 320-320 320s-320-143.268-320-320v-768c0-176.732 143.272-320 320-320zM1408 1024v-192c0-247.42-200.58-448-448-448-247.424 0-448 200.58-448 448v192h-128v-192c0-296.476 224.008-540.6 512-572.44v-259.56h-256v-128h640v128h-256v259.56c287.988 31.84 512 275.964 512 572.44v192h-128z" />
<glyph unicode="&#xe91f;" glyph-name="book" data-tags="book, read, reading" d="M1792 1664v-1664h-1344c-106.052 0-192 85.96-192 192s85.948 192 192 192h1216v1536h-1280c-140.796 0-256-115.2-256-256v-1536c0-140.8 115.204-256 256-256h1536v1792h-128zM448.112 256v0c-0.036-0.004-0.076 0-0.112 0-35.344 0-64-28.652-64-64s28.656-64 64-64c0.036 0 0.076 0.004 0.112 0.004v-0.004h1215.78v128h-1215.78z" />
<glyph unicode="&#xe920;" glyph-name="books" data-tags="books, library, archive" horiz-adv-x="2304" d="M448 1664h-384c-35.2 0-64-28.8-64-64v-1408c0-35.2 28.8-64 64-64h384c35.2 0 64 28.8 64 64v1408c0 35.2-28.8 64-64 64zM384 1280h-256v128h256v-128zM1088 1664h-384c-35.2 0-64-28.8-64-64v-1408c0-35.2 28.8-64 64-64h384c35.2 0 64 28.8 64 64v1408c0 35.2-28.8 64-64 64zM1024 1280h-256v128h256v-128zM1530.176 1565.040l-342.928-172.788c-31.432-15.836-44.192-54.516-28.356-85.952l575.956-1143.096c15.836-31.436 54.516-44.196 85.952-28.356l342.928 172.784c31.432 15.84 44.192 54.52 28.356 85.948l-575.956 1143.1c-15.84 31.436-54.52 44.2-85.952 28.36zM1856 192c0-35.346-28.654-64-64-64s-64 28.654-64 64c0 35.346 28.654 64 64 64s64-28.654 64-64z" />
<glyph unicode="&#xe921;" glyph-name="library" data-tags="library, bank, building" horiz-adv-x="2176" d="M2048 0v128h-128v768h128v128h-384v-128h128v-768h-384v768h128v128h-384v-128h128v-768h-384v768h128v128h-384v-128h128v-768h-384v768h128v128h-384v-128h128v-768h-128v-128h-128v-128h2176v128h-128zM1024 1920h128l1024-640v-128h-2176v128l1024 640z" />
<glyph unicode="&#xe922;" glyph-name="file-text" data-tags="file-text, file, document, list, paper" d="M1728 1920h-1536c-105.6 0-192-86.4-192-192v-1664c0-105.6 86.4-192 192-192h1536c105.6 0 192 86.4 192 192v1664c0 105.6-86.4 192-192 192zM1664 128h-1408v1536h1408v-1536zM512 1024h896v-128h-896zM512 768h896v-128h-896zM512 512h896v-128h-896zM512 1280h896v-128h-896z" />
<glyph unicode="&#xe923;" glyph-name="profile" data-tags="profile, file, document, page, user, paper" d="M1728 1920h-1536c-105.6 0-192-86.4-192-192v-1664c0-105.6 86.4-192 192-192h1536c105.6 0 192 86.4 192 192v1664c0 105.6-86.4 192-192 192zM1664 128h-1408v1536h1408v-1536zM512 768h896v-128h-896zM512 512h896v-128h-896zM640 1344c0 106.038 85.962 192 192 192s192-85.962 192-192c0-106.038-85.962-192-192-192s-192 85.962-192 192zM960 1152h-256c-105.6 0-192-57.6-192-128v-128h640v128c0 70.4-86.4 128-192 128z" />
<glyph unicode="&#xe924;" glyph-name="file-empty" data-tags="file-empty, file, document, paper, page, new, empty, blank" d="M1835.612 1461.848c-44.424 60.584-106.348 131.4-174.356 199.408s-138.824 129.928-199.408 174.356c-103.148 75.64-153.184 84.388-181.848 84.388h-992c-88.224 0-160-71.776-160-160v-1728c0-88.224 71.776-160 160-160h1472c88.224 0 160 71.776 160 160v1248c0 28.664-8.744 78.7-84.388 181.848zM1570.748 1570.748c61.4-61.4 109.6-116.796 145.16-162.748h-307.908v307.892c45.968-35.56 101.356-83.756 162.748-145.144zM1792 32c0-17.344-14.656-32-32-32h-1472c-17.344 0-32 14.656-32 32v1728c0 17.344 14.656 32 32 32 0 0 991.912 0.004 992 0v-448c0-35.344 28.652-64 64-64h448v-1248z" />
<glyph unicode="&#xe925;" glyph-name="files-empty" data-tags="files-empty, files, documents, papers, pages" d="M1835.612 1205.848c-44.42 60.584-106.348 131.4-174.356 199.408s-138.824 129.928-199.408 174.356c-103.148 75.64-153.184 84.388-181.848 84.388h-736c-88.228 0-160-71.776-160-160v-1472c0-88.224 71.772-160 160-160h1216c88.224 0 160 71.776 160 160v992c0 28.664-8.744 78.7-84.388 181.848zM1570.748 1314.748c61.4-61.4 109.6-116.796 145.16-162.748h-307.908v307.892c45.964-35.56 101.356-83.756 162.748-145.144v0zM1792 32c0-17.344-14.656-32-32-32h-1216c-17.344 0-32 14.656-32 32v1472c0 17.344 14.656 32 32 32 0 0 735.912 0.004 736 0v-448c0-35.344 28.648-64 64-64h448v-992zM1205.848 1835.608c-103.148 75.644-153.184 84.392-181.848 84.392h-736c-88.224 0-160-71.776-160-160v-1472c0-77.264 55.056-141.916 128-156.78v1628.78c0 17.344 14.656 32 32 32h973.752c-19.292 15.84-38.056 30.52-55.904 43.608z" />
<glyph unicode="&#xe926;" glyph-name="file-text2" data-tags="file-text, file, document, list, paper, page" d="M1835.612 1461.848c-44.424 60.584-106.348 131.4-174.356 199.408s-138.824 129.928-199.408 174.356c-103.148 75.64-153.184 84.388-181.848 84.388h-992c-88.224 0-160-71.776-160-160v-1728c0-88.224 71.776-160 160-160h1472c88.224 0 160 71.776 160 160v1248c0 28.664-8.744 78.7-84.388 181.848zM1570.748 1570.748c61.4-61.4 109.6-116.796 145.16-162.748h-307.908v307.892c45.968-35.56 101.356-83.756 162.748-145.144zM1792 32c0-17.344-14.656-32-32-32h-1472c-17.344 0-32 14.656-32 32v1728c0 17.344 14.656 32 32 32 0 0 991.912 0.004 992 0v-448c0-35.344 28.652-64 64-64h448v-1248zM1472 256h-896c-35.344 0-64 28.652-64 64s28.656 64 64 64h896c35.348 0 64-28.652 64-64s-28.652-64-64-64zM1472 512h-896c-35.344 0-64 28.652-64 64s28.656 64 64 64h896c35.348 0 64-28.652 64-64s-28.652-64-64-64zM1472 768h-896c-35.344 0-64 28.652-64 64s28.656 64 64 64h896c35.348 0 64-28.652 64-64s-28.652-64-64-64z" />
<glyph unicode="&#xe927;" glyph-name="file-picture" data-tags="file-picture, file, document, file-image" d="M1664 128h-1280v256l384 640 526-640 370 256v-512zM1664 960c0-106.040-85.96-192-192-192-106.044 0-192 85.96-192 192s85.956 192 192 192c106.040 0 192-85.96 192-192zM1835.612 1461.848c-44.424 60.584-106.348 131.4-174.356 199.408s-138.824 129.928-199.408 174.356c-103.148 75.64-153.184 84.388-181.848 84.388h-992c-88.224 0-160-71.776-160-160v-1728c0-88.224 71.776-160 160-160h1472c88.224 0 160 71.776 160 160v1248c0 28.664-8.744 78.7-84.388 181.848zM1570.748 1570.748c61.4-61.4 109.6-116.796 145.16-162.748h-307.908v307.892c45.968-35.56 101.356-83.756 162.748-145.144zM1792 32c0-17.344-14.656-32-32-32h-1472c-17.344 0-32 14.656-32 32v1728c0 17.344 14.656 32 32 32 0 0 991.912 0.004 992 0v-448c0-35.344 28.652-64 64-64h448v-1248z" />
<glyph unicode="&#xe928;" glyph-name="file-music" data-tags="file-music, file, document, file-song, file-audio" d="M1835.612 1461.848c-44.42 60.584-106.348 131.4-174.356 199.408s-138.824 129.928-199.408 174.356c-103.148 75.64-153.184 84.388-181.848 84.388h-992c-88.224 0-160-71.776-160-160v-1728c0-88.224 71.772-160 160-160h1472c88.224 0 160 71.776 160 160v1248c0 28.664-8.744 78.7-84.388 181.848v0zM1570.748 1570.748c61.4-61.4 109.6-116.796 145.16-162.748h-307.908v307.892c45.964-35.56 101.356-83.756 162.748-145.144v0zM1792 32c0-17.344-14.656-32-32-32h-1472c-17.344 0-32 14.656-32 32v1728c0 17.344 14.656 32 32 32 0 0 991.912 0.004 992 0v-448c0-35.344 28.648-64 64-64h448v-1248zM1512.576 1137.496c-14.828 12.16-34.328 17.028-53.124 13.264l-640-128c-29.916-5.988-51.452-32.252-51.452-62.76v-473.752c-37.664 16.348-81.356 25.752-128 25.752-141.384 0-256-85.96-256-192s114.616-192 256-192 256 85.96 256 192v459.532l512 102.404v-267.684c-37.664 16.348-81.356 25.752-128 25.752-141.384 0-256-85.96-256-192s114.616-192 256-192 256 85.96 256 192v639.996c0 19.172-8.596 37.336-23.424 49.496z" />
<glyph unicode="&#xe929;" glyph-name="file-play" data-tags="file-play, file, document, file-media, file-video" d="M768 1152l640-448-640-448v896zM1835.612 1461.848c-44.424 60.584-106.348 131.4-174.356 199.408s-138.824 129.928-199.408 174.356c-103.148 75.64-153.184 84.388-181.848 84.388h-992c-88.224 0-160-71.776-160-160v-1728c0-88.224 71.776-160 160-160h1472c88.224 0 160 71.776 160 160v1248c0 28.664-8.744 78.7-84.388 181.848zM1570.748 1570.748c61.4-61.4 109.6-116.796 145.16-162.748h-307.908v307.892c45.968-35.56 101.356-83.756 162.748-145.144zM1792 32c0-17.344-14.656-32-32-32h-1472c-17.344 0-32 14.656-32 32v1728c0 17.344 14.656 32 32 32 0 0 991.912 0.004 992 0v-448c0-35.344 28.652-64 64-64h448v-1248z" />
<glyph unicode="&#xe92a;" glyph-name="file-video" data-tags="file-video, file, document, file-camera" d="M1835.612 1461.848c-44.416 60.584-106.348 131.4-174.356 199.408s-138.824 129.928-199.408 174.356c-103.148 75.64-153.188 84.388-181.848 84.388h-992c-88.224 0-160-71.776-160-160v-1728c0-88.224 71.764-160 160-160h1472c88.224 0 160 71.776 160 160v1248c0 28.664-8.744 78.7-84.388 181.848v0 0zM1570.748 1570.748c61.4-61.4 109.6-116.796 145.16-162.748h-307.908v307.892c45.96-35.56 101.356-83.756 162.748-145.144v0 0zM1792 32c0-17.344-14.656-32-32-32h-1472c-17.344 0-32 14.656-32 32v1728c0 17.344 14.656 32 32 32 0 0 991.912 0.004 992 0v-448c0-35.344 28.64-64 64-64h448v-1248zM512 896h640v-640h-640v640zM1152 640l384 256v-640l-384 256z" />
<glyph unicode="&#xe92b;" glyph-name="file-zip" data-tags="file-zip, file, document, file-compressed, file-type, file-format" d="M1835.612 1461.848c-44.416 60.584-106.348 131.4-174.356 199.408s-138.824 129.928-199.408 174.356c-103.148 75.64-153.184 84.388-181.848 84.388h-992c-88.224 0-160-71.776-160-160v-1728c0-88.224 71.768-160 160-160h1472c88.224 0 160 71.776 160 160v1248c0 28.664-8.744 78.7-84.388 181.848v0 0zM1570.748 1570.748c61.4-61.4 109.6-116.796 145.16-162.748h-307.908v307.892c45.96-35.56 101.356-83.756 162.748-145.144v0 0zM1792 32c0-17.344-14.656-32-32-32h-1472c-17.344 0-32 14.656-32 32v1728c0 17.344 14.656 32 32 32 0 0 991.912 0.004 992 0v-448c0-35.344 28.644-64 64-64h448v-1248zM512 1792h256v-128h-256v128zM768 1664h256v-128h-256v128zM512 1536h256v-128h-256v128zM768 1408h256v-128h-256v128zM512 1280h256v-128h-256v128zM768 1152h256v-128h-256v128zM512 1024h256v-128h-256v128zM768 896h256v-128h-256v128zM512 224c0-52.8 43.2-96 96-96h320c52.8 0 96 43.2 96 96v320c0 52.8-43.2 96-96 96h-160v128h-256v-544zM896 384v-128h-256v128h256z" />
<glyph unicode="&#xe92c;" glyph-name="copy" data-tags="copy, duplicate, files, pages, papers, documents" d="M1280 1408v512h-896l-384-384v-1152h768v-512h1280v1536h-768zM384 1738.98v-202.98h-202.98l202.98 202.98zM128 512v896h384v384h640v-384l-384-384v-512h-640zM1152 1226.98v-202.98h-202.98l202.98 202.98zM1920 0h-1024v896h384v384h640v-1280z" />
<glyph unicode="&#xe92d;" glyph-name="paste" data-tags="paste, clipboard-file" d="M1408 1664h-256v128c0 70.4-57.6 128-128 128h-256c-70.408 0-128-57.6-128-128v-128h-256v-256h1024v256zM1024 1664h-256v127.772c0.068 0.076 0.144 0.156 0.228 0.228h255.536c0.084-0.072 0.164-0.152 0.236-0.228v-127.772zM1664 1280v320c0 35.2-28.8 64-64 64h-128v-128h64v-256h-384l-384-384v-512h-512v1152h64v128h-128c-35.204 0-64-28.8-64-64v-1280c0-35.2 28.796-64 64-64h576v-384h1280v1408h-384zM1152 1098.98v-202.98h-202.98l202.98 202.98zM1920 0h-1024v768h384v384h640v-1152z" />
<glyph unicode="&#xe92e;" glyph-name="stack" data-tags="stack, layers" d="M2048 1280l-1024 512-1024-512 1024-512 1024 512zM1024 1622.060l684.116-342.060-684.116-342.060-684.116 342.060 684.116 342.060zM1842.888 998.556l205.112-102.556-1024-512-1024 512 205.112 102.556 818.888-409.444zM1842.888 614.556l205.112-102.556-1024-512-1024 512 205.112 102.556 818.888-409.444z" />
<glyph unicode="&#xe92f;" glyph-name="folder" data-tags="folder, directory, category, browse" d="M896 1664l256-256h896v-1408h-2048v1664z" />
<glyph unicode="&#xe930;" glyph-name="folder-open" data-tags="folder-open, directory, category, browse" d="M1664 0l384 1024h-1664l-384-1024zM256 1152l-256-1152v1664h576l256-256h832v-256z" />
<glyph unicode="&#xe931;" glyph-name="folder-plus" data-tags="folder-plus, directory, folder-add" d="M1152 1408l-256 256h-896v-1664h2048v1408h-896zM1408 512h-256v-256h-256v256h-256v256h256v256h256v-256h256v-256z" />
<glyph unicode="&#xe932;" glyph-name="folder-minus" data-tags="folder-minus, directory, folder-remove" d="M1152 1408l-256 256h-896v-1664h2048v1408h-896zM1408 512h-768v256h768v-256z" />
<glyph unicode="&#xe933;" glyph-name="folder-download" data-tags="folder-download, directory, folder-save" d="M1152 1408l-256 256h-896v-1664h2048v1408h-896zM1024 192l-448 448h320v512h256v-512h320l-448-448z" />
<glyph unicode="&#xe934;" glyph-name="folder-upload" data-tags="folder-upload, directory, folder-load" d="M1152 1408l-256 256h-896v-1664h2048v1408h-896zM1024 960l448-448h-320v-512h-256v512h-320l448 448z" />
<glyph unicode="&#xe935;" glyph-name="price-tag" data-tags="price-tag" d="M1952 1920h-768c-52.8 0-126.548-30.548-163.884-67.884l-952.232-952.232c-37.336-37.336-37.336-98.428 0-135.764l824.236-824.236c37.336-37.336 98.428-37.336 135.764 0l952.236 952.236c37.332 37.332 67.88 111.080 67.88 163.88v768c0 52.8-43.2 96-96 96zM1472 1152c-106.040 0-192 85.96-192 192s85.96 192 192 192 192-85.96 192-192-85.96-192-192-192z" />
<glyph unicode="&#xe936;" glyph-name="price-tags" data-tags="price-tags" horiz-adv-x="2560" d="M2464 1920h-768c-52.8 0-126.548-30.548-163.884-67.884l-952.232-952.232c-37.336-37.336-37.336-98.428 0-135.764l824.236-824.236c37.336-37.336 98.428-37.336 135.764 0l952.236 952.236c37.332 37.332 67.88 111.080 67.88 163.88v768c0 52.8-43.2 96-96 96zM1984 1152c-106.040 0-192 85.96-192 192s85.96 192 192 192 192-85.96 192-192-85.96-192-192-192zM256 832l1088 1088h-160c-52.8 0-126.548-30.548-163.884-67.884l-952.232-952.232c-37.336-37.336-37.336-98.428 0-135.764l824.236-824.236c37.336-37.336 98.428-37.336 135.764 0l60.116 60.116-832 832z" />
<glyph unicode="&#xe937;" glyph-name="barcode" data-tags="barcode" d="M0 1664h256v-1280h-256zM384 1664h128v-1280h-128zM640 1664h128v-1280h-128zM1024 1664h128v-1280h-128zM1536 1664h128v-1280h-128zM1920 1664h128v-1280h-128zM1280 1664h64v-1280h-64zM896 1664h64v-1280h-64zM1728 1664h64v-1280h-64zM0 256h128v-128h-128zM384 256h128v-128h-128zM640 256h128v-128h-128zM1280 256h128v-128h-128zM1920 256h128v-128h-128zM1536 256h256v-128h-256zM896 256h256v-128h-256z" />
<glyph unicode="&#xe938;" glyph-name="qrcode" data-tags="qrcode" d="M640 1792h-512v-512h512v512zM768 1920v0-768h-768v768h768zM256 1664h256v-256h-256zM1920 1792h-512v-512h512v512zM2048 1920v0-768h-768v768h768zM1536 1664h256v-256h-256zM640 512h-512v-512h512v512zM768 640v0-768h-768v768h768zM256 384h256v-256h-256zM896 1920h128v-128h-128zM1024 1792h128v-128h-128zM896 1664h128v-128h-128zM1024 1536h128v-128h-128zM896 1408h128v-128h-128zM1024 1280h128v-128h-128zM896 1152h128v-128h-128zM896 896h128v-128h-128zM1024 768h128v-128h-128zM896 640h128v-128h-128zM1024 512h128v-128h-128zM896 384h128v-128h-128zM1024 256h128v-128h-128zM896 128h128v-128h-128zM1024 0h128v-128h-128zM1920 896h128v-128h-128zM128 896h128v-128h-128zM256 1024h128v-128h-128zM0 1024h128v-128h-128zM512 1024h128v-128h-128zM640 896h128v-128h-128zM768 1024h128v-128h-128zM1152 896h128v-128h-128zM1280 1024h128v-128h-128zM1408 896h128v-128h-128zM1536 1024h128v-128h-128zM1664 896h128v-128h-128zM1792 1024h128v-128h-128zM1920 640h128v-128h-128zM1152 640h128v-128h-128zM1280 768h128v-128h-128zM1408 640h128v-128h-128zM1664 640h128v-128h-128zM1792 768h128v-128h-128zM1920 384h128v-128h-128zM1152 384h128v-128h-128zM1280 512h128v-128h-128zM1536 512h128v-128h-128zM1664 384h128v-128h-128zM1792 512h128v-128h-128zM1920 128h128v-128h-128zM1280 256h128v-128h-128zM1408 128h128v-128h-128zM1536 256h128v-128h-128zM1664 128h128v-128h-128zM1280 0h128v-128h-128zM1536 0h128v-128h-128zM1792 0h128v-128h-128z" />
<glyph unicode="&#xe939;" glyph-name="ticket" data-tags="ticket, theater, cinema" d="M1151.992 1280l255.996-255.996-511.988-511.988-255.996 255.996zM2003.052 1324.992l-147.032 147.032-64.016-64.016c-32.756-32.76-78.020-53.020-128-53.020-99.976 0-181.028 81.044-181.028 181.020 0 50.004 20.28 95.276 53.068 128.036l63.976 63.972-147.036 147.032c-59.936 59.936-158.016 59.936-217.952 0l-1190.080-1190.076c-59.932-59.936-59.932-158.020 0-217.952l147.040-147.036 63.924 63.928c32.764 32.812 78.060 53.104 128.088 53.104 99.976 0 181.020-81.048 181.020-181.020 0-50.012-20.28-95.28-53.068-128.044l-63.968-63.972 147.032-147.036c59.932-59.932 158.016-59.932 217.952 0l1190.080 1190.080c59.928 59.952 59.928 158.032 0 217.968zM896.004 256.008l-512 512 768 768 512-512-768-768z" />
<glyph unicode="&#xe93a;" glyph-name="cart" data-tags="cart, purchase, ecommerce, shopping" d="M768 64c0-106.038-85.962-192-192-192s-192 85.962-192 192c0 106.038 85.962 192 192 192s192-85.962 192-192zM2048 64c0-106.038-85.962-192-192-192s-192 85.962-192 192c0 106.038 85.962 192 192 192s192-85.962 192-192zM2048 896v768h-1536c0 70.692-57.308 128-128 128h-384v-128h256l96.148-824.108c-58.588-46.916-96.148-119-96.148-199.892 0-141.392 114.616-256 256-256h1536v128h-1536c-70.692 0-128 57.308-128 128 0 0.436 0.028 0.872 0.032 1.312l1663.968 254.688z" />
<glyph unicode="&#xe93b;" glyph-name="coin-dollar" data-tags="coin-dollar, money, cash, currency-dollar" d="M960 1792c-530.192 0-960-429.808-960-960 0-530.196 429.808-960 960-960 530.196 0 960 429.804 960 960 0 530.192-429.804 960-960 960zM960 64c-424.156 0-768 343.844-768 768s343.844 768 768 768c424.156 0 768-343.844 768-768s-343.844-768-768-768zM1024 896v256h256v128h-256v128h-128v-128h-256v-512h256v-256h-256v-128h256v-128h128v128h256.004l-0.004 512h-256zM896 896h-128v256h128v-256zM1152.004 512h-128.004v256h128.004v-256z" />
<glyph unicode="&#xe93c;" glyph-name="coin-euro" data-tags="coin-euro, money, cash, currency-euro" d="M960 1792c-530.192 0-960-429.808-960-960s429.808-960 960-960c530.196 0 960 429.804 960 960s-429.804 960-960 960zM960 64c-424.156 0-768 343.844-768 768s343.844 768 768 768c424.152 0 768-343.844 768-768s-343.848-768-768-768zM1341.648 631.32c-30.54 17.768-69.724 7.416-87.5-23.14-34.512-59.324-98.176-96.18-166.148-96.18h-256c-83.432 0-154.572 53.508-180.992 128h308.992c35.344 0 64 28.652 64 64s-28.656 64-64 64h-320v128h320c35.344 0 64 28.656 64 64s-28.656 64-64 64h-308.992c26.42 74.492 97.56 128 180.992 128h256c67.972 0 131.636-36.852 166.148-96.18 17.776-30.552 56.956-40.912 87.504-23.136 30.552 17.776 40.912 56.952 23.136 87.504-57.344 98.576-163.404 159.812-276.788 159.812h-256c-154.536 0-283.828-110.112-313.56-256h-70.44c-35.344 0-64-28.656-64-64s28.656-64 64-64h64v-128h-64c-35.344 0-64-28.652-64-64s28.656-64 64-64h70.44c29.732-145.888 159.024-256 313.56-256h256c113.384 0 219.44 61.24 276.788 159.82 17.776 30.552 7.416 69.728-23.14 87.5z" />
<glyph unicode="&#xe93d;" glyph-name="coin-pound" data-tags="coin-pound, money, cash, currency-pound" d="M960 1792c-530.192 0-960-429.808-960-960s429.808-960 960-960c530.196 0 960 429.804 960 960s-429.804 960-960 960zM960 64c-424.156 0-768 343.844-768 768s343.844 768 768 768c424.148 0 768-343.844 768-768s-343.852-768-768-768zM1216 512h-448v256h192c35.344 0 64 28.652 64 64s-28.656 64-64 64h-192v64c0 105.868 86.132 192 192 192 68.34 0 132.084-36.808 166.36-96.060 17.7-30.596 56.852-41.052 87.444-23.352 30.592 17.696 41.052 56.848 23.352 87.444-57.076 98.672-163.276 159.968-277.156 159.968-176.448 0-320-143.552-320-320v-64h-64c-35.344 0-64-28.652-64-64s28.656-64 64-64h64v-384h576c35.348 0 64 28.652 64 64s-28.652 64-64 64z" />
<glyph unicode="&#xe93e;" glyph-name="coin-yen" data-tags="coin-yen, money, cash, currency-yen" d="M960 1792c-530.192 0-960-429.808-960-960s429.808-960 960-960c530.196 0 960 429.804 960 960s-429.804 960-960 960zM960 64c-424.156 0-768 343.844-768 768s343.844 768 768 768c424.152 0 768-343.844 768-768s-343.848-768-768-768zM1216 768c35.348 0 64 28.652 64 64s-28.652 64-64 64h-136.416l189.664 284.5c19.608 29.408 11.66 69.144-17.752 88.752-29.408 19.604-69.144 11.66-88.752-17.752l-202.744-304.124-202.748 304.124c-19.608 29.412-59.344 37.36-88.752 17.752-29.412-19.608-37.356-59.344-17.752-88.752l189.668-284.5h-136.416c-35.344 0-64-28.652-64-64s28.656-64 64-64h192v-128h-192c-35.344 0-64-28.652-64-64s28.656-64 64-64h192v-192c0-35.348 28.656-64 64-64s64 28.652 64 64v192h192c35.348 0 64 28.652 64 64s-28.652 64-64 64h-192v128h192z" />
<glyph unicode="&#xe93f;" glyph-name="credit-card" data-tags="credit-card, money, payment, ecommerce" d="M1856 1664h-1664c-105.6 0-192-86.4-192-192v-1152c0-105.6 86.4-192 192-192h1664c105.6 0 192 86.4 192 192v1152c0 105.6-86.4 192-192 192zM192 1536h1664c34.692 0 64-29.308 64-64v-192h-1792v192c0 34.692 29.308 64 64 64zM1856 256h-1664c-34.692 0-64 29.308-64 64v576h1792v-576c0-34.692-29.308-64-64-64zM256 640h128v-256h-128zM512 640h128v-256h-128zM768 640h128v-256h-128z" />
<glyph unicode="&#xe940;" glyph-name="calculator" data-tags="calculator, compute, math, arithmetic, sum" d="M768 1792h-640c-70.4 0-128-57.6-128-128v-640c0-70.4 57.592-128 128-128h640c70.4 0 128 57.6 128 128v640c0 70.4-57.6 128-128 128zM768 1280h-640v128h640v-128zM1792 1792h-640c-70.408 0-128-57.6-128-128v-1664c0-70.4 57.592-128 128-128h640c70.4 0 128 57.6 128 128v1664c0 70.4-57.6 128-128 128zM1792 640h-640v128h640v-128zM1792 1024h-640v128h640v-128zM768 768h-640c-70.4 0-128-57.6-128-128v-640c0-70.4 57.592-128 128-128h640c70.4 0 128 57.6 128 128v640c0 70.4-57.6 128-128 128zM768 256h-256v-256h-128v256h-256v128h256v256h128v-256h256v-128z" />
<glyph unicode="&#xe941;" glyph-name="lifebuoy" data-tags="lifebuoy, support, help" d="M1024 1920c-565.54 0-1024-458.46-1024-1024s458.46-1024 1024-1024 1024 458.46 1024 1024-458.46 1024-1024 1024zM640 896c0 212.080 171.92 384 384 384s384-171.92 384-384-171.92-384-384-384-384 171.92-384 384zM1851.96 553.048v0l-354.84 146.98c25.036 60.368 38.88 126.552 38.88 195.972s-13.844 135.604-38.88 195.972l354.84 146.98c43.816-105.644 68.040-221.46 68.040-342.952s-24.228-237.308-68.040-342.952v0zM1366.956 1723.96v0 0l-146.98-354.84c-60.368 25.036-126.552 38.88-195.976 38.88s-135.604-13.844-195.972-38.88l-146.98 354.844c105.644 43.808 221.464 68.036 342.952 68.036 121.492 0 237.308-24.228 342.956-68.040zM196.040 1238.952l354.844-146.98c-25.036-60.368-38.884-126.552-38.884-195.972s13.844-135.604 38.88-195.972l-354.84-146.98c-43.812 105.644-68.040 221.46-68.040 342.952s24.228 237.308 68.040 342.952zM681.048 68.040l146.98 354.84c60.368-25.036 126.552-38.88 195.972-38.88s135.604 13.844 195.972 38.88l146.98-354.84c-105.644-43.808-221.46-68.040-342.952-68.040-121.488 0-237.308 24.228-342.952 68.040z" />
<glyph unicode="&#xe942;" glyph-name="phone" data-tags="phone, telephone, contact, support, call" d="M1408 640c-128-128-128-256-256-256s-256 128-384 256-256 256-256 384 128 128 256 256-256 512-384 512-384-384-384-384c0-256 263-775 512-1024s768-512 1024-512c0 0 384 256 384 384s-384 512-512 384z" />
<glyph unicode="&#xe943;" glyph-name="phone-hang-up" data-tags="phone-hang-up, telephone, contact, support, call" d="M2034.756 768.012c16.008-110.964 26.432-262.784-23.328-320.892-82.284-96.088-603.424-96.088-603.424 96.084 0 96.796 85.712 160.268 3.424 256.356-80.944 94.524-226.052 96.060-387.428 96.084-161.372-0.024-306.484-1.56-387.428-96.084-82.284-96.092 3.428-159.56 3.428-256.356 0-192.172-521.14-192.172-603.428-96.088-49.756 58.108-39.336 209.928-23.324 320.892 12.32 74.076 43.448 153.992 143.096 255.988 0 0.004 0.004 0.004 0.004 0.008 149.476 139.484 375.692 253.476 859.652 255.936v0.060c2.688 0 5.328-0.020 8-0.028 2.676 0.008 5.312 0.028 8 0.028v-0.056c483.96-2.46 710.176-116.452 859.652-255.936 0.004-0.004 0.004-0.008 0.004-0.008 99.648-101.992 130.78-181.908 143.1-255.988z" />
<glyph unicode="&#xe944;" glyph-name="address-book" data-tags="address-book, contact, book, contacts" d="M384 1920v-2048h1536v2048h-1536zM1152 1407.34c141.020 0 255.34-114.32 255.34-255.34s-114.32-255.34-255.34-255.34-255.34 114.32-255.34 255.34 114.32 255.34 255.34 255.34v0zM1536 384h-768v128c0 141.392 114.612 256 256 256v0h256c141.392 0 256-114.608 256-256v-128zM128 1792h192v-384h-192v384zM128 1280h192v-384h-192v384zM128 768h192v-384h-192v384zM128 256h192v-384h-192v384z" />
<glyph unicode="&#xe945;" glyph-name="envelop" data-tags="envelop, mail, email, contact, letter" d="M1856 1664h-1664c-105.6 0-192-86.4-192-192v-1280c0-105.6 86.4-192 192-192h1664c105.6 0 192 86.4 192 192v1280c0 105.6-86.4 192-192 192zM797.48 819.256l-541.48-421.784v1003.284l541.48-581.5zM352.76 1408h1342.48l-671.24-504-671.24 504zM818.576 796.604l205.424-220.604 205.42 220.604 421.108-540.604h-1253.056l421.104 540.604zM1250.52 819.256l541.48 581.5v-1003.284l-541.48 421.784z" />
<glyph unicode="&#xe946;" glyph-name="pushpin" data-tags="pushpin, pin" d="M1088 1920l-192-192 192-192-448-512h-448l352-352-544-721.232v-78.768h78.768l721.232 544 352-352v448l512 448 192-192 192 192-960 960zM896 832l-128 128 448 448 128-128-448-448z" />
<glyph unicode="&#xe947;" glyph-name="location" data-tags="location, map-marker, pin" d="M1024 1920c-353.464 0-640-286.536-640-640 0-640 640-1408 640-1408s640 768 640 1408c0 353.464-286.54 640-640 640zM1024 896c-212.080 0-384 171.92-384 384s171.92 384 384 384 384-171.92 384-384-171.92-384-384-384z" />
<glyph unicode="&#xe948;" glyph-name="location2" data-tags="location, map-marker, pin" d="M1024 1920c-353.464 0-640-286.536-640-640 0-640 640-1408 640-1408s640 768 640 1408c0 353.464-286.54 640-640 640zM1024 888c-216.496 0-392 175.504-392 392s175.504 392 392 392 392-175.504 392-392-175.504-392-392-392zM776 1280c0 136.966 111.034 248 248 248s248-111.034 248-248c0-136.966-111.034-248-248-248s-248 111.034-248 248z" />
<glyph unicode="&#xe949;" glyph-name="compass" data-tags="compass, direction, location" d="M1088.020-128.008c-4.592 0-9.244 0.5-13.88 1.528-29.296 6.5-50.14 32.476-50.14 62.48v960h-960c-30.004 0-55.984 20.844-62.48 50.14-6.5 29.292 8.228 59.168 35.416 71.856l1920 896c24.392 11.376 53.288 6.288 72.32-12.744 19.032-19.028 24.12-47.932 12.744-72.32l-896-1920c-10.684-22.88-33.544-36.94-57.98-36.94zM352.484 1024h735.516c35.348 0 64-28.656 64-64v-735.516l699.58 1499.092-1499.096-699.576z" />
<glyph unicode="&#xe94a;" glyph-name="compass2" data-tags="compass, direction, location" d="M1024 1920c-565.54 0-1024-458.46-1024-1024s458.46-1024 1024-1024 1024 458.46 1024 1024-458.46 1024-1024 1024zM192 896c0 459.5 372.5 832 832 832 219.148 0 418.464-84.772 567.068-223.256l-823.068-352.744-352.744-823.068c-138.484 148.604-223.256 347.92-223.256 567.068zM1170.332 749.668l-512.164-219.5 219.5 512.164 292.664-292.664zM1024 64c-219.148 0-418.468 84.772-567.064 223.256l823.064 352.744 352.744 823.064c138.484-148.596 223.256-347.916 223.256-567.064 0-459.5-372.5-832-832-832z" />
<glyph unicode="&#xe94b;" glyph-name="map" data-tags="map, guide" d="M0 1536l640 256v-1536l-640-256zM768 1856l640-384v-1472l-640 320zM1536 1472l512 384v-1536l-512-384z" />
<glyph unicode="&#xe94c;" glyph-name="map2" data-tags="map, guide" d="M1344 1536l-640 256-704-256v-1536l704 256 640-256 704 256v1536l-704-256zM768 1628.54l512-204.8v-1260.276l-512 204.796v1260.28zM128 1446.344l512 186.18v-1263.6l-512-186.176v1263.596zM1920 345.656l-512-186.184v1263.6l512 186.18v-1263.596z" />
</font>
</defs>
</svg>
