<svg preserveAspectRatio="none" xmlns="http://www.w3.org/2000/svg" width="42" height="2818" viewBox="0 0 42 2818"><svg preserveAspectRatio="none" xmlns:xlink="http://www.w3.org/1999/xlink" height="68" width="42" viewBox="-10 -10 42 68"><title>btn_gold_l</title><path d="M204.84 1.427C203.12.52 200.87.05 198.34.002L20.6 0c-2.525.048-4.775.518-6.5 1.426C6.637 5.353 7.357 16.522 0 23.958c7.357 7.514 6.636 18.683 14.098 22.61 1.725.909 3.976 1.378 6.502 1.427.345.006 177.39.007 177.66.002 2.61-.05 4.86-.52 6.58-1.427 7.46-3.927 6.74-15.096 14.1-22.533-7.36-7.513-6.64-18.682-14.1-22.61z" fill="#bdb289"/></svg><svg preserveAspectRatio="none" xmlns:xlink="http://www.w3.org/1999/xlink" height="68" width="42" viewBox="-10 -10 42 68" y="68"><title>btn_gold_l_h</title><path d="M204.84 1.427C203.12.52 200.87.05 198.34.002L20.6 0c-2.525.048-4.775.518-6.5 1.426C6.637 5.353 7.357 16.522 0 23.958c7.357 7.514 6.636 18.683 14.098 22.61 1.725.909 3.976 1.378 6.502 1.427.345.006 177.39.007 177.66.002 2.61-.05 4.86-.52 6.58-1.427 7.46-3.927 6.74-15.096 14.1-22.533-7.36-7.513-6.64-18.682-14.1-22.61z" fill="#c9bd91"/></svg><svg preserveAspectRatio="none" xmlns:xlink="http://www.w3.org/1999/xlink" height="68" width="42" viewBox="-10 -10 42 68" y="136"><title>btn_gold_l_p</title><path d="M204.84 1.427C203.12.52 200.87.05 198.34.002L20.6 0c-2.525.048-4.775.518-6.5 1.426C6.637 5.353 7.357 16.522 0 23.958c7.357 7.514 6.636 18.683 14.098 22.61 1.725.909 3.976 1.378 6.502 1.427.345.006 177.39.007 177.66.002 2.61-.05 4.86-.52 6.58-1.427 7.46-3.927 6.74-15.096 14.1-22.533-7.36-7.513-6.64-18.682-14.1-22.61z" fill="#9f926d"/></svg><svg preserveAspectRatio="none" xmlns:xlink="http://www.w3.org/1999/xlink" height="68" width="42" viewBox="-10 -10 42 68" y="204"><title>btn_gold_r</title><path d="M7.84 1.427C6.12.52 3.87.05 1.34.002L-176.4 0c-2.525.048-4.775.518-6.5 1.426-7.463 3.927-6.743 15.096-14.1 22.532 7.357 7.514 6.636 18.683 14.098 22.61 1.725.909 3.976 1.378 6.502 1.427.345.006 177.39.007 177.66.002 2.61-.05 4.86-.52 6.58-1.427 7.46-3.927 6.74-15.096 14.1-22.533-7.36-7.513-6.64-18.682-14.1-22.61z" fill="#bdb289"/></svg><svg preserveAspectRatio="none" xmlns:xlink="http://www.w3.org/1999/xlink" height="68" width="42" viewBox="-10 -10 42 68" y="272"><title>btn_gold_r_h</title><path d="M7.84 1.427C6.12.52 3.87.05 1.34.002L-176.4 0c-2.525.048-4.775.518-6.5 1.426-7.463 3.927-6.743 15.096-14.1 22.532 7.357 7.514 6.636 18.683 14.098 22.61 1.725.909 3.976 1.378 6.502 1.427.345.006 177.39.007 177.66.002 2.61-.05 4.86-.52 6.58-1.427 7.46-3.927 6.74-15.096 14.1-22.533-7.36-7.513-6.64-18.682-14.1-22.61z" fill="#c9bd91"/></svg><svg preserveAspectRatio="none" xmlns:xlink="http://www.w3.org/1999/xlink" height="68" width="42" viewBox="-10 -10 42 68" y="340"><title>btn_gold_r_p</title><path d="M7.84 1.427C6.12.52 3.87.05 1.34.002L-176.4 0c-2.525.048-4.775.518-6.5 1.426-7.463 3.927-6.743 15.096-14.1 22.532 7.357 7.514 6.636 18.683 14.098 22.61 1.725.909 3.976 1.378 6.502 1.427.345.006 177.39.007 177.66.002 2.61-.05 4.86-.52 6.58-1.427 7.46-3.927 6.74-15.096 14.1-22.533-7.36-7.513-6.64-18.682-14.1-22.61z" fill="#9f926d"/></svg><svg preserveAspectRatio="none" xmlns:xlink="http://www.w3.org/1999/xlink" height="68" width="42" viewBox="-10 -10 42 68" y="408"><title>btn_gray_l</title><path d="M204.84 1.427C203.12.52 200.87.05 198.34.002L20.6 0c-2.525.048-4.775.518-6.5 1.426C6.637 5.353 7.357 16.522 0 23.958c7.357 7.514 6.636 18.683 14.098 22.61 1.725.909 3.976 1.378 6.502 1.427.345.006 177.39.007 177.66.002 2.61-.05 4.86-.52 6.58-1.427 7.46-3.927 6.74-15.096 14.1-22.533-7.36-7.513-6.64-18.682-14.1-22.61z" fill="#6b6b6b"/></svg><svg preserveAspectRatio="none" xmlns:xlink="http://www.w3.org/1999/xlink" height="68" width="42" viewBox="-10 -10 42 68" y="476"><title>btn_gray_r</title><path d="M7.84 1.427C6.12.52 3.87.05 1.34.002L-176.4 0c-2.525.048-4.775.518-6.5 1.426-7.463 3.927-6.743 15.096-14.1 22.532 7.357 7.514 6.636 18.683 14.098 22.61 1.725.909 3.976 1.378 6.502 1.427.345.006 177.39.007 177.66.002 2.61-.05 4.86-.52 6.58-1.427 7.46-3.927 6.74-15.096 14.1-22.533-7.36-7.513-6.64-18.682-14.1-22.61z" fill="#6b6b6b"/></svg><svg preserveAspectRatio="none" xmlns:xlink="http://www.w3.org/1999/xlink" height="59" width="38" viewBox="-10 -10 38 59" y="544"><title>btn_gold_l</title><path d="M18 0h-1.1c-2.1 0-3.9.4-5.3 1.2C5.4 4.3 6 13.4 0 19.5c6 6.1 5.4 15.2 11.5 18.4 1.4.7 3.3 1.1 5.3 1.2h1.1V0z" fill="#BDB289"/></svg><svg preserveAspectRatio="none" xmlns:xlink="http://www.w3.org/1999/xlink" height="59" width="38" viewBox="-10 -10 38 59" y="603"><title>btn_gold_l_h</title><path d="M18 0h-1.1c-2.1 0-3.9.4-5.3 1.2C5.4 4.3 6 13.4 0 19.5c6 6.1 5.4 15.2 11.5 18.4 1.4.7 3.3 1.1 5.3 1.2h1.1V0z" fill="#C9BD91"/></svg><svg preserveAspectRatio="none" xmlns:xlink="http://www.w3.org/1999/xlink" height="59" width="38" viewBox="-10 -10 38 59" y="662"><title>btn_gold_l_p</title><path d="M18 0h-1.1c-2.1 0-3.9.4-5.3 1.2C5.4 4.3 6 13.4 0 19.5c6 6.1 5.4 15.2 11.5 18.4 1.4.7 3.3 1.1 5.3 1.2h1.1V0z" fill="#9F926D"/></svg><svg preserveAspectRatio="none" xmlns:xlink="http://www.w3.org/1999/xlink" height="59" width="38" viewBox="-10 -10 38 59" y="721"><title>btn_gold_r</title><path d="M6.4 1.2C5 .4 3.1 0 1.1 0H0v39h1c2.1 0 4-.4 5.4-1.2 6.1-3.2 5.5-12.3 11.6-18.3-6.1-6.1-5.5-15.2-11.6-18.3z" fill="#BDB289"/></svg><svg preserveAspectRatio="none" xmlns:xlink="http://www.w3.org/1999/xlink" height="59" width="38" viewBox="-10 -10 38 59" y="780"><title>btn_gold_r_h</title><path d="M6.4 1.2C5 .4 3.1 0 1.1 0H0v39h1c2.1 0 4-.4 5.4-1.2 6.1-3.2 5.5-12.3 11.6-18.3-6.1-6.1-5.5-15.2-11.6-18.3z" fill="#C9BD91"/></svg><svg preserveAspectRatio="none" xmlns:xlink="http://www.w3.org/1999/xlink" height="59" width="38" viewBox="-10 -10 38 59" y="839"><title>btn_gold_r_p</title><path d="M6.4 1.2C5 .4 3.1 0 1.1 0H0v39h1c2.1 0 4-.4 5.4-1.2 6.1-3.2 5.5-12.3 11.6-18.3-6.1-6.1-5.5-15.2-11.6-18.3z" fill="#9F926D"/></svg><svg preserveAspectRatio="none" xmlns:xlink="http://www.w3.org/1999/xlink" height="59" width="38" viewBox="-10 -10 38 59" y="898"><title>btn_gray_l</title><path d="M18 0h-1.1c-2.1 0-3.9.4-5.3 1.2C5.4 4.3 6 13.4 0 19.5c6 6.1 5.4 15.2 11.5 18.4 1.4.7 3.3 1.1 5.3 1.2h1.1V0z" fill="#6B6B6B"/></svg><svg preserveAspectRatio="none" xmlns:xlink="http://www.w3.org/1999/xlink" height="59" width="38" viewBox="-10 -10 38 59" y="957"><title>btn_gray_r</title><path d="M6.4 1.2C5 .4 3.1 0 1.1 0H0v39h1c2.1 0 4-.4 5.4-1.2 6.1-3.2 5.5-12.3 11.6-18.3-6.1-6.1-5.5-15.2-11.6-18.3z" fill="#6B6B6B"/></svg><svg preserveAspectRatio="none" xmlns:xlink="http://www.w3.org/1999/xlink" height="59" width="38" viewBox="-10 -10 38 59" y="1016"><title>btn_red_l</title><path d="M18 0h-1.1c-2.1 0-3.9.4-5.3 1.2C5.4 4.3 6 13.4 0 19.5c6 6.1 5.4 15.2 11.5 18.4 1.4.7 3.3 1.1 5.3 1.2h1.1V0h.1z" fill="#B4191E"/></svg><svg preserveAspectRatio="none" xmlns:xlink="http://www.w3.org/1999/xlink" height="59" width="38" viewBox="-10 -10 38 59" y="1075"><title>btn_red_l_h</title><path d="M18 0h-1.1c-2.1 0-3.9.4-5.3 1.2C5.4 4.3 6 13.4 0 19.5c6 6.1 5.4 15.2 11.5 18.4 1.4.7 3.3 1.1 5.3 1.2h1.1V0h.1z" fill="#C9141A"/></svg><svg preserveAspectRatio="none" xmlns:xlink="http://www.w3.org/1999/xlink" height="59" width="38" viewBox="-10 -10 38 59" y="1134"><title>btn_red_l_p</title><path d="M18 0h-1.1c-2.1 0-3.9.4-5.3 1.2C5.4 4.3 6 13.4 0 19.5c6 6.1 5.4 15.2 11.5 18.4 1.4.7 3.3 1.1 5.3 1.2h1.1V0h.1z" fill="#9F1116"/></svg><svg preserveAspectRatio="none" xmlns:xlink="http://www.w3.org/1999/xlink" height="59" width="38" viewBox="-10 -10 38 59" y="1193"><title>btn_red_r</title><path d="M6.4 1.2C5 .4 3.1 0 1.1 0H0v39h1c2.1 0 4-.4 5.4-1.2 6.1-3.2 5.5-12.3 11.6-18.3-6.1-6.1-5.5-15.2-11.6-18.3z" fill="#B4191E"/></svg><svg preserveAspectRatio="none" xmlns:xlink="http://www.w3.org/1999/xlink" height="59" width="38" viewBox="-10 -10 38 59" y="1252"><title>btn_red_r_h</title><path d="M6.4 1.1C5 .4 3.1 0 1.1 0H0v39h1c2.1 0 4-.4 5.4-1.2 6.1-3.2 5.5-12.3 11.6-18.3-6.1-6.1-5.5-15.2-11.6-18.4z" fill="#C9141A"/></svg><svg preserveAspectRatio="none" xmlns:xlink="http://www.w3.org/1999/xlink" height="59" width="38" viewBox="-10 -10 38 59" y="1311"><title>btn_red_r_p</title><path d="M6.4 1.2C5 .4 3.1 0 1.1 0H0v39h1c2.1 0 4-.4 5.4-1.2 6.1-3.2 5.5-12.3 11.6-18.3-6.1-6.1-5.5-15.2-11.6-18.3z" fill="#9F1116"/></svg><svg preserveAspectRatio="none" xmlns:xlink="http://www.w3.org/1999/xlink" height="68" width="42" viewBox="-10 -10 42 68" y="1370"><title>btn_red_l</title><path d="M204.84 1.427C203.12.52 200.87.05 198.34.002L20.6 0c-2.525.048-4.775.518-6.5 1.426C6.637 5.353 7.357 16.522 0 23.958c7.357 7.514 6.636 18.683 14.098 22.61 1.725.909 3.976 1.378 6.502 1.427.345.006 177.39.007 177.66.002 2.61-.05 4.86-.52 6.58-1.427 7.46-3.927 6.74-15.096 14.1-22.533-7.36-7.513-6.64-18.682-14.1-22.61z" fill="#B4191E"/></svg><svg preserveAspectRatio="none" xmlns:xlink="http://www.w3.org/1999/xlink" height="68" width="42" viewBox="-10 -10 42 68" y="1438"><title>btn_red_l_h</title><path d="M204.84 1.427C203.12.52 200.87.05 198.34.002L20.6 0c-2.525.048-4.775.518-6.5 1.426C6.637 5.353 7.357 16.522 0 23.958c7.357 7.514 6.636 18.683 14.098 22.61 1.725.909 3.976 1.378 6.502 1.427.345.006 177.39.007 177.66.002 2.61-.05 4.86-.52 6.58-1.427 7.46-3.927 6.74-15.096 14.1-22.533-7.36-7.513-6.64-18.682-14.1-22.61z" fill="#c9141a"/></svg><svg preserveAspectRatio="none" xmlns:xlink="http://www.w3.org/1999/xlink" height="68" width="42" viewBox="-10 -10 42 68" y="1506"><title>btn_red_l_p</title><path d="M204.84 1.427C203.12.52 200.87.05 198.34.002L20.6 0c-2.525.048-4.775.518-6.5 1.426C6.637 5.353 7.357 16.522 0 23.958c7.357 7.514 6.636 18.683 14.098 22.61 1.725.909 3.976 1.378 6.502 1.427.345.006 177.39.007 177.66.002 2.61-.05 4.86-.52 6.58-1.427 7.46-3.927 6.74-15.096 14.1-22.533-7.36-7.513-6.64-18.682-14.1-22.61z" fill="#9f1116"/></svg><svg preserveAspectRatio="none" xmlns:xlink="http://www.w3.org/1999/xlink" height="68" width="42" viewBox="-10 -10 42 68" y="1574"><title>btn_red_r</title><path d="M7.84 1.427C6.12.52 3.87.05 1.34.002L-176.4 0c-2.525.048-4.775.518-6.5 1.426-7.463 3.927-6.743 15.096-14.1 22.532 7.357 7.514 6.636 18.683 14.098 22.61 1.725.909 3.976 1.378 6.502 1.427.345.006 177.39.007 177.66.002 2.61-.05 4.86-.52 6.58-1.427 7.46-3.927 6.74-15.096 14.1-22.533-7.36-7.513-6.64-18.682-14.1-22.61z" fill="#B4191E"/></svg><svg preserveAspectRatio="none" xmlns:xlink="http://www.w3.org/1999/xlink" height="68" width="42" viewBox="-10 -10 42 68" y="1642"><title>btn_red_r_h</title><path d="M7.84 1.427C6.12.52 3.87.05 1.34.002L-176.4 0c-2.525.048-4.775.518-6.5 1.426-7.463 3.927-6.743 15.096-14.1 22.532 7.357 7.514 6.636 18.683 14.098 22.61 1.725.909 3.976 1.378 6.502 1.427.345.006 177.39.007 177.66.002 2.61-.05 4.86-.52 6.58-1.427 7.46-3.927 6.74-15.096 14.1-22.533-7.36-7.513-6.64-18.682-14.1-22.61z" fill="#c9141a"/></svg><svg preserveAspectRatio="none" xmlns:xlink="http://www.w3.org/1999/xlink" height="68" width="42" viewBox="-10 -10 42 68" y="1710"><title>btn_red_r_p</title><path d="M7.84 1.427C6.12.52 3.87.05 1.34.002L-176.4 0c-2.525.048-4.775.518-6.5 1.426-7.463 3.927-6.743 15.096-14.1 22.532 7.357 7.514 6.636 18.683 14.098 22.61 1.725.909 3.976 1.378 6.502 1.427.345.006 177.39.007 177.66.002 2.61-.05 4.86-.52 6.58-1.427 7.46-3.927 6.74-15.096 14.1-22.533-7.36-7.513-6.64-18.682-14.1-22.61z" fill="#9f1116"/></svg><svg preserveAspectRatio="none" xmlns:xlink="http://www.w3.org/1999/xlink" height="52" width="35" viewBox="-10 -10 35 52" y="1778"><title>btn_gold_l</title><path d="M15 0h-1c-1.7 0-3.3.3-4.4 1C4.5 3.6 5 11 0 16c5 5 4.5 12.4 9.6 15 1.2.6 2.7.9 4.4 1h1V0z" fill="#BDB289"/></svg><svg preserveAspectRatio="none" xmlns:xlink="http://www.w3.org/1999/xlink" height="52" width="35" viewBox="-10 -10 35 52" y="1830"><title>btn_gold_l_h</title><path class="st0" d="M15 0h-1c-1.7 0-3.3.3-4.4 1C4.5 3.6 5 11 0 16c5 5 4.5 12.4 9.6 15 1.2.6 2.7.9 4.4 1h1V0z" fill="#C9BD91"/></svg><svg preserveAspectRatio="none" xmlns:xlink="http://www.w3.org/1999/xlink" height="52" width="35" viewBox="-10 -10 35 52" y="1882"><title>btn_gold_l_p</title><path d="M15 0h-.9c-1.8 0-3.2.3-4.4 1C4.5 3.6 5 11 0 16c5 5 4.5 12.4 9.6 15.1 1.2.6 2.8.9 4.4 1h.9L15 0z" fill="#9F926D"/></svg><svg preserveAspectRatio="none" xmlns:xlink="http://www.w3.org/1999/xlink" height="52" width="35" viewBox="-10 -10 35 52" y="1934"><title>btn_gold_r</title><path d="M5.3.9C4.2.3 2.6 0 .9 0H0v32h.9c1.8 0 3.3-.3 4.5-1 5-2.6 4.5-10 9.6-15C9.9 11 10.4 3.6 5.3.9z" fill="#BDB289"/></svg><svg preserveAspectRatio="none" xmlns:xlink="http://www.w3.org/1999/xlink" height="52" width="35" viewBox="-10 -10 35 52" y="1986"><title>btn_gold_r_h</title><path d="M5.3.9C4.2.3 2.6 0 .9 0H0v32h.9c1.8 0 3.3-.3 4.5-1 5-2.6 4.5-10 9.6-15C9.9 11 10.4 3.6 5.3.9z" fill="#C9BD91"/></svg><svg preserveAspectRatio="none" xmlns:xlink="http://www.w3.org/1999/xlink" height="52" width="35" viewBox="-10 -10 35 52" y="2038"><title>btn_gold_r_p</title><path d="M5.3.9C4.2.3 2.6 0 .9 0H0v32h.9c1.8 0 3.3-.3 4.5-1 5-2.6 4.5-10 9.6-15C9.9 11 10.4 3.6 5.3.9z" fill="#9F926D"/></svg><svg preserveAspectRatio="none" xmlns:xlink="http://www.w3.org/1999/xlink" height="52" width="35" viewBox="-10 -10 35 52" y="2090"><title>btn_gray_l</title><path d="M15 0h-1c-1.7 0-3.3.3-4.4 1C4.5 3.6 5 11 0 16c5 5 4.5 12.4 9.6 15 1.2.6 2.7.9 4.4 1h1V0z" fill="#6B6B6B"/></svg><svg preserveAspectRatio="none" xmlns:xlink="http://www.w3.org/1999/xlink" height="52" width="35" viewBox="-10 -10 35 52" y="2142"><title>btn_gray_r</title><path d="M5.3.9C4.2.3 2.6 0 .9 0H0v32h.9c1.8 0 3.3-.3 4.5-1 5-2.6 4.5-10 9.6-15C9.9 11 10.4 3.6 5.3.9z" fill="#6B6B6B"/></svg><svg preserveAspectRatio="none" xmlns:xlink="http://www.w3.org/1999/xlink" height="52" viewBox="-10 -10 35 52" width="35" y="2194"><title>btn_red_l</title><path d="M15 0h-1c-1.7 0-3.3.3-4.4 1C4.5 3.6 5 11 0 16c5 5 4.5 12.4 9.6 15 1.2.6 2.7.9 4.4 1h1V0z" fill="#B4191E"/></svg><svg preserveAspectRatio="none" xmlns:xlink="http://www.w3.org/1999/xlink" height="52" viewBox="-10 -10 35 52" width="35" y="2246"><title>btn_red_l_h</title><path d="M15 0h-1c-1.7 0-3.3.3-4.4 1C4.5 3.6 5 11 0 16c5 5 4.5 12.5 9.6 15.1 1.2.6 2.7.9 4.4 1h1V0z" fill="#C9141A"/></svg><svg preserveAspectRatio="none" xmlns:xlink="http://www.w3.org/1999/xlink" height="52" width="35" viewBox="-10 -10 35 52" y="2298"><title>btn_red_l_p</title><path d="M15 0h-1c-1.7 0-3.3.3-4.4 1C4.5 3.6 5 11 0 16c5 5 4.5 12.4 9.6 15 1.2.6 2.7.9 4.4 1h1V0z" fill="#9F1116"/></svg><svg preserveAspectRatio="none" xmlns:xlink="http://www.w3.org/1999/xlink" height="52" width="35" viewBox="-10 -10 35 52" y="2350"><title>btn_red_r</title><path d="M5.3 1C4.2.3 2.6 0 .9 0H0v32h.9c1.8 0 3.3-.3 4.5-1 5-2.6 4.5-10 9.6-15-5.1-5-4.6-12.4-9.7-15z" fill="#B4191E"/></svg><svg preserveAspectRatio="none" xmlns:xlink="http://www.w3.org/1999/xlink" height="52" width="35" viewBox="-10 -10 35 52" y="2402"><title>btn_red_r_h</title><path d="M5.3.9C4.2.3 2.6 0 .9 0H0v32h.9c1.8 0 3.3-.3 4.5-1 5-2.6 4.5-10 9.6-15C9.9 11 10.4 3.6 5.3.9z" fill="#C9141A"/></svg><svg preserveAspectRatio="none" xmlns:xlink="http://www.w3.org/1999/xlink" height="52" width="35" viewBox="-10 -10 35 52" y="2454"><title>btn_red_r_p</title><path d="M5.3 1C4.2.3 2.6 0 .9 0H0v32h.9c1.8 0 3.3-.3 4.5-1 5-2.6 4.5-10 9.6-15-5.1-5-4.6-12.4-9.7-15z" fill="#9F1116"/></svg><svg preserveAspectRatio="none" xmlns:xlink="http://www.w3.org/1999/xlink" height="52" width="38" viewBox="-10 -10 38 52" y="2506"><title>btn_transp_l</title><path d="M125.83 1.837c-1.36-.57-3.13-.864-5.12-.895H18.11c-1.989.03-3.758.324-5.114.894C7.128 4.3 7.695 11.308 1.91 15.974c5.784 4.714 5.218 11.722 11.085 14.186 1.356.57 3.126.865 5.112.896.271.003 102.33.004 102.54 0 2.05-.03 3.82-.325 5.17-.895 5.87-2.464 5.31-9.472 11.09-14.138-5.78-4.714-5.22-11.722-11.08-14.186z" stroke="#B8A97F" stroke-width="2" fill="none"/></svg><svg preserveAspectRatio="none" xmlns:xlink="http://www.w3.org/1999/xlink" height="52" width="38" viewBox="-10 -10 38 52" y="2558"><title>btn_transp_l_h</title><path d="M125.83 1.837c-1.36-.57-3.13-.864-5.12-.895H18.11c-1.989.03-3.758.324-5.114.894C7.128 4.3 7.695 11.308 1.91 15.974c5.784 4.714 5.218 11.722 11.085 14.186 1.356.57 3.126.865 5.112.896.271.003 102.33.004 102.54 0 2.05-.03 3.82-.325 5.17-.895 5.87-2.464 5.31-9.472 11.09-14.138-5.78-4.714-5.22-11.722-11.08-14.186z" fill="#e5dece" stroke="#B8A97F" stroke-width="2"/></svg><svg preserveAspectRatio="none" xmlns:xlink="http://www.w3.org/1999/xlink" height="52" width="38" viewBox="-10 -10 38 52" y="2610"><title>btn_transp_l_p</title><path d="M125.83 1.837c-1.36-.57-3.13-.864-5.12-.895H18.11c-1.989.03-3.758.324-5.114.894C7.128 4.3 7.695 11.308 1.91 15.974c5.784 4.714 5.218 11.722 11.085 14.186 1.356.57 3.126.865 5.112.896.271.003 102.33.004 102.54 0 2.05-.03 3.82-.325 5.17-.895 5.87-2.464 5.31-9.472 11.09-14.138-5.78-4.714-5.22-11.722-11.08-14.186z" fill="#B8A97F" stroke="#B8A97F" stroke-width="2"/></svg><svg preserveAspectRatio="none" xmlns:xlink="http://www.w3.org/1999/xlink" height="52" width="38" viewBox="-10 -10 38 52" y="2662"><title>btn_transp_l_p</title><path d="M5.83 1.837C4.47 1.267 2.7.973.71.942h-102.6c-1.989.03-3.758.324-5.114.894-5.868 2.464-5.301 9.472-11.086 14.138 5.784 4.714 5.218 11.722 11.085 14.186 1.356.57 3.126.865 5.112.896.271.003 102.33.004 102.54 0 2.05-.03 3.82-.325 5.17-.895 5.87-2.464 5.31-9.472 11.09-14.138-5.78-4.714-5.22-11.722-11.08-14.186z" stroke="#B8A97F" stroke-width="2" fill="none"/></svg><svg preserveAspectRatio="none" xmlns:xlink="http://www.w3.org/1999/xlink" height="52" width="38" viewBox="-10 -10 38 52" y="2714"><title>btn_transp_r_h</title><path d="M5.83 1.837C4.47 1.267 2.7.973.71.942h-102.6c-1.989.03-3.758.324-5.114.894-5.868 2.464-5.301 9.472-11.086 14.138 5.784 4.714 5.218 11.722 11.085 14.186 1.356.57 3.126.865 5.112.896.271.003 102.33.004 102.54 0 2.05-.03 3.82-.325 5.17-.895 5.87-2.464 5.31-9.472 11.09-14.138-5.78-4.714-5.22-11.722-11.08-14.186z" fill="#e5dece" stroke="#B8A97F" stroke-width="2"/></svg><svg preserveAspectRatio="none" xmlns:xlink="http://www.w3.org/1999/xlink" height="52" width="38" viewBox="-10 -10 38 52" y="2766"><title>btn_transp_r_p</title><path d="M5.83 1.837C4.47 1.267 2.7.973.71.942h-102.6c-1.989.03-3.758.324-5.114.894-5.868 2.464-5.301 9.472-11.086 14.138 5.784 4.714 5.218 11.722 11.085 14.186 1.356.57 3.126.865 5.112.896.271.003 102.33.004 102.54 0 2.05-.03 3.82-.325 5.17-.895 5.87-2.464 5.31-9.472 11.09-14.138-5.78-4.714-5.22-11.722-11.08-14.186z" fill="#B8A97F" stroke="#B8A97F" stroke-width="2"/></svg></svg>